<svg width="23" height="26" viewBox="0 0 23 26" fill="none" xmlns="http://www.w3.org/2000/svg">
<path d="M6.9078 21.7842C6.81259 21.7842 6.71061 21.7842 6.6092 21.7842C5.04126 21.7842 3.47275 21.7825 1.90481 21.7847C1.13013 21.7858 0.532362 21.4698 0.192631 20.7689C-0.145973 20.0703 -0.0225878 19.4167 0.440527 18.7925C0.993787 18.0466 1.51155 17.2741 2.03608 16.5073C2.25411 16.189 2.33468 15.8268 2.33355 15.4403C2.33017 13.3557 2.28961 11.27 2.34144 9.18708C2.43722 5.34638 4.22883 2.53558 7.71741 0.928759C12.8201 -1.42175 18.9144 1.65724 20.1241 7.1487C20.2762 7.83943 20.3421 8.56058 20.3522 9.26878C20.3821 11.306 20.3674 13.3439 20.359 15.3817C20.3573 15.8611 20.4874 16.2825 20.7641 16.6713C21.2982 17.4201 21.8255 18.1733 22.3495 18.9288C22.7591 19.5198 22.8132 20.1548 22.492 20.7937C22.1703 21.4343 21.6227 21.7751 20.9055 21.7808C19.2998 21.7937 17.6941 21.7853 16.0884 21.7853C15.9864 21.7853 15.8845 21.7853 15.7712 21.7853C15.4997 22.9639 14.8934 23.9076 13.9126 24.5905C13.1283 25.1364 12.2517 25.3961 11.2922 25.395C9.69945 25.3922 7.56585 24.391 6.9078 21.7842ZM20.8615 19.9666C20.3111 19.1734 19.7916 18.4156 19.2626 17.6646C18.782 16.9823 18.5527 16.2296 18.5555 15.3941C18.5634 13.3658 18.5651 11.3376 18.5527 9.30934C18.5499 8.8327 18.5133 8.35156 18.4378 7.88112C17.831 4.11084 14.0224 1.38906 10.2707 2.0319C6.61427 2.65783 4.13925 5.5909 4.13756 9.30202C4.13644 11.0108 4.07277 12.723 4.15672 14.4278C4.23221 15.9625 3.86882 17.2933 2.88174 18.4731C2.50032 18.9288 2.19496 19.4477 1.83551 19.9661C8.18954 19.9666 14.503 19.9666 20.8615 19.9666ZM8.83745 21.7904C9.13774 22.8625 10.3085 23.6423 11.4984 23.5808C12.5734 23.5256 13.6917 22.6738 13.8438 21.7904C12.1818 21.7904 10.5209 21.7904 8.83745 21.7904Z" fill="#5D5D5D"/>
</svg>
