<svg width="121" height="95" viewBox="0 0 121 95" fill="none" xmlns="http://www.w3.org/2000/svg">
<rect width="121" height="95" fill="#E0E2E9"/>
<rect x="-205" y="-20" width="531.379" height="482.547" rx="20" fill="white"/>
<path d="M9.33974 60.5771L84.3381 60.5771C85.9312 60.5771 87.2227 59.2857 87.2227 57.6926V17.3083C87.2227 15.7152 85.9312 14.4237 84.3381 14.4237L9.33974 14.4237C7.74664 14.4237 6.45518 15.7152 6.45518 17.3083V57.6926C6.45518 59.2857 7.74664 60.5771 9.33974 60.5771Z" stroke="#FC9905" stroke-width="2.58038" stroke-linejoin="round"/>
<path d="M12.2266 69.2305H81.4558" stroke="#FC9905" stroke-width="2.58038" stroke-linecap="round" stroke-linejoin="round"/>
<path d="M17.9961 77.8838H75.6871" stroke="#FC9905" stroke-width="2.58038" stroke-linecap="round" stroke-linejoin="round"/>
<path d="M46.8407 51.924C54.8062 51.924 61.2635 45.4667 61.2635 37.5011C61.2635 29.5355 54.8062 23.0781 46.8407 23.0781C38.8753 23.0781 32.418 29.5355 32.418 37.5011C32.418 45.4667 38.8753 51.924 46.8407 51.924Z" stroke="#FC9905" stroke-width="2.58038" stroke-linecap="round" stroke-linejoin="round"/>
<path d="M87.2275 28.8458C83.4023 28.8458 79.7338 27.3263 77.029 24.6214C74.3242 21.9166 72.8047 18.2481 72.8047 14.4229" stroke="#FC9905" stroke-width="2.58038" stroke-linecap="round" stroke-linejoin="round"/>
<path d="M6.46094 28.8458C8.35496 28.8458 10.2304 28.4727 11.9803 27.7479C13.7301 27.0231 15.3201 25.9607 16.6594 24.6214C17.9986 23.2821 19.061 21.6922 19.7858 19.9423C20.5106 18.1924 20.8837 16.3169 20.8837 14.4229" stroke="#FC9905" stroke-width="2.58038" stroke-linecap="round" stroke-linejoin="round"/>
<path d="M87.2275 46.1533C83.4023 46.1533 79.7338 47.6729 77.029 50.3777C74.3242 53.0825 72.8047 56.7511 72.8047 60.5763" stroke="#FC9905" stroke-width="2.58038" stroke-linecap="round" stroke-linejoin="round"/>
<path d="M6.46094 46.1533C8.35496 46.1533 10.2304 46.5264 11.9803 47.2512C13.7301 47.976 15.3201 49.0384 16.6594 50.3777C17.9986 51.717 19.061 53.307 19.7858 55.0568C20.5106 56.8067 20.8837 58.6822 20.8837 60.5763" stroke="#FC9905" stroke-width="2.58038" stroke-linecap="round" stroke-linejoin="round"/>
<ellipse cx="80.2986" cy="65.7697" rx="28.8455" ry="28.8459" fill="white"/>
<path d="M110.298 43.8477L86.068 71.5397L75.6836 61.1552" stroke="#FC9905" stroke-width="2.58038" stroke-linecap="round" stroke-linejoin="round"/>
</svg>
