<svg width="36" height="29" viewBox="0 0 36 29" fill="none" xmlns="http://www.w3.org/2000/svg">
<rect width="36" height="29" fill="#E0E2E9"/>
<g clip-path="url(#clip0_15_7)">
<rect width="1728" height="1982" transform="translate(-1495 -1317)" fill="white"/>
<mask id="path-1-inside-1_15_7" fill="white">
<path d="M-869.433 -1038H171.289V73.2836H-869.433V-1038Z"/>
</mask>
<path d="M-869.433 -1038H171.289V73.2836H-869.433V-1038Z" fill="white"/>
<path d="M-869.433 -1036.58H171.289V-1039.42H-869.433V-1036.58Z" fill="black" mask="url(#path-1-inside-1_15_7)"/>
<mask id="path-3-inside-2_15_7" fill="white">
<path d="M-869.433 -45.582H171.289V73.2829H-869.433V-45.582Z"/>
</mask>
<path d="M-869.433 -44.0057H171.289V-47.1583H-869.433V-44.0057ZM171.289 71.8612H-869.433V74.7047H171.289V71.8612Z" fill="#EDEDED" mask="url(#path-3-inside-2_15_7)"/>
<rect x="-845" y="-19.5732" width="904.795" height="68.4237" rx="30.7376" fill="white"/>
<rect x="-845" y="-19.5732" width="904.795" height="68.4237" rx="30.7376" stroke="#CDCDCD" stroke-width="1.57629"/>
<path d="M18.092 28.4089C13.6278 28.4089 9.16417 28.4122 4.69996 28.4073C3.00525 28.4056 1.75225 27.6452 0.963938 26.1467C0.670917 25.5891 0.582901 24.9785 0.583994 24.3482C0.588915 20.0119 0.586728 15.675 0.586728 11.3388C0.586728 10.2093 0.581261 9.07932 0.587821 7.94988C0.598755 6.09498 1.87963 4.49211 3.6897 4.08538C4.01497 4.01212 4.35829 3.99299 4.6934 3.9908C6.36953 3.98151 8.04621 3.98479 9.72233 3.98916C9.90219 3.98971 10.0072 3.96839 10.0192 3.74917C10.105 2.15505 11.4028 0.861595 13.197 0.864329C16.4493 0.868155 19.702 0.857222 22.9542 0.868702C24.2603 0.873622 25.2525 1.45092 25.8298 2.63831C25.9883 2.96468 26.0435 3.349 26.1009 3.71364C26.1359 3.93504 26.2125 3.99135 26.4273 3.99026C28.1308 3.98206 29.8348 3.97932 31.5382 3.98752C33.2226 3.99572 34.4335 4.78951 35.2043 6.26391C35.4913 6.81332 35.5793 7.41522 35.5788 8.0368C35.5738 12.7284 35.576 17.4201 35.576 22.1122C35.576 22.8502 35.5498 23.5894 35.5809 24.3257C35.6624 26.2276 34.1033 28.4335 31.5109 28.4155C27.4113 28.387 23.3118 28.4078 19.2122 28.4084C18.8388 28.4089 18.4654 28.4089 18.092 28.4089ZM18.0849 26.6464C22.5218 26.6464 26.9587 26.648 31.3961 26.6426C31.6667 26.642 31.9488 26.6278 32.2063 26.554C33.3139 26.2369 33.8381 25.3994 33.8414 24.2202C33.8551 18.8447 33.8518 13.4692 33.8376 8.0942C33.8365 7.72246 33.7654 7.31955 33.6102 6.98553C33.2127 6.13271 32.4834 5.75987 31.5557 5.75932C29.9064 5.75823 28.2576 5.75877 26.6082 5.75877C26.1616 5.75877 25.715 5.76752 25.2689 5.7544C24.7506 5.73909 24.3811 5.3597 24.369 4.84527C24.3619 4.53585 24.3827 4.22478 24.3603 3.91646C24.3455 3.71145 24.3105 3.49496 24.2253 3.31073C23.9771 2.77389 23.5135 2.60114 22.9493 2.60168C19.7151 2.60606 16.4804 2.60387 13.2462 2.60442C13.1462 2.60442 13.0456 2.60551 12.9461 2.61535C12.3699 2.67385 11.908 3.12213 11.8549 3.69942C11.8265 4.0072 11.8336 4.31827 11.832 4.62769C11.8271 5.41983 11.493 5.75823 10.7053 5.75877C8.69184 5.75932 6.67841 5.75987 4.66498 5.75877C4.13196 5.75877 3.63557 5.87303 3.20588 6.20705C2.58868 6.68704 2.34978 7.33049 2.35087 8.09639C2.35634 11.6405 2.35306 15.1847 2.35306 18.7288C2.35306 20.5875 2.35524 22.4462 2.35196 24.3044C2.35087 24.8478 2.45966 25.3524 2.80079 25.7903C3.28843 26.4168 3.94937 26.648 4.71964 26.6475C9.17456 26.6453 13.63 26.6464 18.0849 26.6464Z" fill="#7C7C7C"/>
<path d="M18.0725 8.01959C22.569 8.00319 26.2739 11.7042 26.2689 16.2067C26.2646 20.7108 22.622 24.3534 18.0928 24.3829C13.6062 24.4124 9.8991 20.7097 9.89746 16.1985C9.89691 11.7015 13.5613 8.03544 18.0725 8.01959ZM24.4622 16.2597C24.454 12.6806 21.6101 9.83566 18.0589 9.85425C14.5229 9.87284 11.6786 12.7418 11.7042 16.2543C11.731 19.9405 14.6716 22.6078 18.0971 22.6144C21.6293 22.6209 24.4704 19.7618 24.4622 16.2597Z" fill="#7C7C7C"/>
<path d="M31.5441 9.60225C31.5507 10.5092 30.828 11.239 29.9221 11.2407C29.0321 11.2423 28.3067 10.5256 28.2941 9.63177C28.2815 8.73521 29.0157 7.99664 29.9199 7.99609C30.8165 7.99555 31.5381 8.70842 31.5441 9.60225Z" fill="#7C7C7C"/>
</g>
<defs>
<clipPath id="clip0_15_7">
<rect width="1728" height="1982" fill="white" transform="translate(-1495 -1317)"/>
</clipPath>
</defs>
</svg>
