<svg width="23" height="18" viewBox="0 0 23 18" fill="none" xmlns="http://www.w3.org/2000/svg">
<path d="M11.8817 17.9054C9.10444 17.9054 6.32747 17.9074 3.55017 17.9044C2.49584 17.9033 1.71631 17.4303 1.22588 16.498C1.04359 16.1511 0.988828 15.7712 0.989508 15.3791C0.992569 12.6814 0.991209 9.98332 0.991209 7.28561C0.991209 6.58296 0.987808 5.87996 0.991889 5.1773C0.998691 4.02333 1.79556 3.02614 2.92165 2.7731C3.12401 2.72753 3.3376 2.71563 3.54608 2.71426C4.58885 2.70848 5.63195 2.71052 6.67472 2.71324C6.78661 2.71358 6.85191 2.70032 6.8594 2.56394C6.91279 1.57219 7.72021 0.767506 8.83643 0.769206C10.8597 0.771587 12.8834 0.764785 14.9066 0.771927C15.7192 0.774988 16.3364 1.13414 16.6956 1.87285C16.7942 2.07589 16.8286 2.31498 16.8643 2.54183C16.8861 2.67957 16.9337 2.71461 17.0673 2.71392C18.1271 2.70882 19.1872 2.70712 20.247 2.71222C21.2949 2.71733 22.0482 3.21116 22.5277 4.12842C22.7063 4.47023 22.7611 4.84468 22.7607 5.23138C22.7577 8.15016 22.759 11.0689 22.759 13.9881C22.759 14.4472 22.7427 14.907 22.7621 15.3651C22.8127 16.5484 21.8428 17.9207 20.23 17.9095C17.6795 17.8918 15.1291 17.9047 12.5786 17.905C12.3463 17.9054 12.114 17.9054 11.8817 17.9054ZM11.8773 16.8089C14.6376 16.8089 17.3979 16.8099 20.1586 16.8065C20.3269 16.8062 20.5024 16.7973 20.6626 16.7514C21.3517 16.5541 21.6778 16.0331 21.6799 15.2995C21.6884 11.9552 21.6863 8.611 21.6775 5.26709C21.6768 5.03582 21.6326 4.78516 21.536 4.57736C21.2887 4.0468 20.835 3.81484 20.2579 3.8145C19.2318 3.81382 18.206 3.81416 17.1799 3.81416C16.902 3.81416 16.6242 3.81961 16.3467 3.81144C16.0242 3.80192 15.7943 3.56589 15.7868 3.24585C15.7824 3.05335 15.7953 2.85983 15.7814 2.66801C15.7722 2.54047 15.7504 2.40579 15.6974 2.29117C15.543 1.95719 15.2546 1.84972 14.9036 1.85006C12.8915 1.85278 10.8791 1.85142 8.86704 1.85176C8.8048 1.85176 8.74222 1.85244 8.68032 1.85856C8.32185 1.89495 8.03446 2.17384 8.00147 2.53299C7.98379 2.72447 7.98821 2.91799 7.98719 3.11049C7.98413 3.6033 7.77632 3.81382 7.28623 3.81416C6.03362 3.8145 4.78101 3.81484 3.5284 3.81416C3.1968 3.81416 2.88798 3.88525 2.62066 4.09305C2.23668 4.39166 2.08805 4.79196 2.08873 5.26845C2.09213 7.47335 2.09009 9.67825 2.09009 11.8831C2.09009 13.0395 2.09145 14.1959 2.08941 15.3519C2.08873 15.6899 2.15641 16.0039 2.36864 16.2763C2.67201 16.666 3.0832 16.8099 3.56241 16.8096C6.33393 16.8082 9.1058 16.8089 11.8773 16.8089Z" fill="#7C7C7C"/>
<path d="M11.8684 5.21878C14.6658 5.20858 16.9707 7.51109 16.9676 10.3122C16.9649 13.1143 14.6988 15.3804 11.881 15.3988C9.08975 15.4172 6.78349 13.1136 6.78247 10.3071C6.78213 7.50939 9.06186 5.22865 11.8684 5.21878ZM15.8436 10.3452C15.8385 8.11852 14.0692 6.34861 11.8599 6.36018C9.66011 6.37174 7.89054 8.15661 7.90652 10.3418C7.92319 12.6351 9.75262 14.2945 11.8837 14.2986C14.0811 14.3026 15.8487 12.5239 15.8436 10.3452Z" fill="#7C7C7C"/>
<path d="M20.251 6.20431C20.2551 6.76854 19.8055 7.22258 19.2419 7.2236C18.6882 7.22462 18.2369 6.77874 18.2291 6.22267C18.2213 5.6649 18.678 5.20542 19.2406 5.20508C19.7984 5.20474 20.2473 5.64823 20.251 6.20431Z" fill="#7C7C7C"/>
</svg>
