<svg width="54" height="32" viewBox="0 0 54 32" fill="none" xmlns="http://www.w3.org/2000/svg">
<path d="M29.2624 13.6592C28.8974 14.025 28.5546 14.356 28.1786 14.7305C27.9353 14.5824 27.7251 14.4518 27.515 14.3211C26.3316 13.5808 24.9824 13.215 23.4783 13.215C21.5982 13.215 19.7181 13.215 17.838 13.215C16.4445 13.215 15.1947 13.5372 14.0667 14.1818C12.264 15.2095 10.4392 16.2199 8.66964 17.2825C6.91118 18.3364 4.97577 18.8764 2.76387 18.7893C2.59798 18.7806 2.43209 18.7893 2.22196 18.7893C2.2109 18.9461 2.19984 19.0854 2.19984 19.2248C2.19984 20.8797 2.2109 22.5345 2.18878 24.1894C2.17772 25.0081 2.5648 25.6527 3.41638 26.123C3.61546 26.2362 3.83665 26.3233 3.98042 26.4627C4.96471 27.3511 6.25867 27.1508 7.5084 27.1247C7.11025 23.5884 10.5829 21.5068 13.7459 21.5329C16.909 21.559 20.271 23.6494 19.8729 27.1247C24.6064 27.1247 29.3288 27.1247 34.0512 27.1247C33.6641 23.4926 37.2805 21.4719 40.3993 21.5329C43.4849 21.6026 46.8138 23.6581 46.4157 27.1072C47.4774 27.1072 48.5502 27.1856 49.6008 27.0898C50.8727 26.9679 51.7132 26.0882 51.7464 25.0691C51.7574 24.8514 51.7464 24.6423 51.7464 24.4159C51.1491 24.3723 50.5741 24.3723 50.0211 24.2939C48.0967 24.0152 46.6369 22.7436 46.4489 21.2106C46.3604 20.479 46.6922 20.1916 47.6322 20.1916C48.329 20.1916 49.0257 20.1916 49.8441 20.1916C48.9041 19.46 47.8755 19.068 46.7032 18.8938C46.2387 18.8241 45.7521 18.8067 45.2766 18.8067C42.3458 18.798 39.415 18.7893 36.4843 18.8067C35.2235 18.8154 34.1396 18.5193 33.1775 17.8835C32.1379 17.2128 31.0762 16.5596 29.9702 15.8541C30.3352 15.497 30.678 15.1573 31.0762 14.7653C31.7176 15.1747 32.348 15.5666 32.9673 15.9586C33.454 16.2634 33.9516 16.5683 34.4383 16.8818C35.0908 17.2999 35.8207 17.4567 36.6833 17.3696C36.6833 15.0702 36.6833 12.7882 36.6833 10.4626C35.8428 10.4626 34.9912 10.4626 34.0622 10.4626C34.0622 10.6194 34.0622 10.7936 34.0622 10.9591C34.0512 11.5601 33.7415 11.8127 33.0005 11.8214C31.9278 11.8301 30.866 11.8301 29.7933 11.8214C29.0744 11.8127 28.7537 11.5601 28.7537 10.9852C28.7426 9.78327 28.7537 8.5726 28.7537 7.37064C28.7537 5.43704 28.7537 3.51216 28.7537 1.57856C28.7537 0.899194 29.0523 0.672737 29.9149 0.664027C30.8882 0.664027 31.8725 0.664027 32.8457 0.664027C33.7857 0.664027 34.0512 0.881774 34.0622 1.62211C34.0622 1.75276 34.0622 1.8747 34.0622 2.03148C37.6123 2.03148 41.1182 2.03148 44.6793 2.03148C44.6793 1.83986 44.6793 1.67437 44.6793 1.50018C44.6904 0.907904 45.0001 0.664027 45.7742 0.664027C46.8249 0.664027 47.8755 0.655317 48.9262 0.664027C49.6782 0.664027 49.9879 0.916614 49.999 1.5176C49.999 3.79958 49.999 6.07286 49.999 8.35485C49.999 9.22584 49.999 10.0968 49.999 10.9678C49.999 11.5601 49.6782 11.8127 48.9151 11.8127C47.9198 11.8214 46.9244 11.8127 45.9291 11.8127C44.9558 11.8127 44.6904 11.6036 44.6904 10.8285C44.6904 10.7152 44.6904 10.5933 44.6904 10.4452C43.8167 10.4452 42.9651 10.4452 42.0693 10.4452C42.0693 12.7359 42.0693 15.0179 42.0693 17.3783C42.2684 17.3783 42.4785 17.3696 42.6886 17.3783C44.248 17.4305 45.8406 17.3435 47.3668 17.5699C50.928 18.1099 53.4938 20.6793 53.538 23.5362C53.5491 24.2591 53.5822 24.9994 53.4385 25.7049C53.1067 27.3076 51.3261 28.4834 49.258 28.5269C48.2626 28.5444 47.2673 28.5444 46.2719 28.5269C45.9733 28.5269 45.8295 28.6053 45.6747 28.8057C43.2195 32.1503 37.3248 32.159 34.8806 28.8144C34.7147 28.5879 34.5378 28.5269 34.2392 28.5269C29.4062 28.5356 24.5842 28.5356 19.7513 28.5269C19.4305 28.5269 19.2757 28.6053 19.1098 28.8231C16.6878 32.1415 10.7599 32.1502 8.34892 28.8318C8.17197 28.5879 7.99501 28.5182 7.66323 28.5269C6.81165 28.5444 5.97113 28.5531 5.11955 28.5182C4.80988 28.5095 4.46704 28.4224 4.20161 28.2918C3.52698 27.9347 2.89659 27.5427 2.25514 27.1508C1.02753 26.454 0.419263 25.4959 0.419263 24.3201C0.408203 22.2994 0.408203 20.2787 0.408203 18.2667C0.408203 17.6396 0.717869 17.4044 1.51415 17.3957C2.06713 17.3957 2.6201 17.387 3.17308 17.3957C4.66611 17.4218 5.99325 17.0734 7.19873 16.3767C9.05672 15.3053 10.9368 14.2514 12.7838 13.1714C14.3763 12.2395 16.1459 11.7865 18.1476 11.8127C19.9503 11.8388 21.7641 11.8127 23.5668 11.8214C25.7455 11.8301 27.6035 12.4746 29.2624 13.6592ZM44.613 9.0168C44.613 7.15289 44.613 5.3151 44.613 3.49474C41.0629 3.49474 37.5681 3.49474 34.0733 3.49474C34.0733 5.34994 34.0733 7.17031 34.0733 9.0168C37.5902 9.0168 41.074 9.0168 44.613 9.0168ZM44.6462 26.4714C44.6572 24.5727 42.6997 22.9962 40.2887 22.9787C37.8335 22.9613 35.8207 24.503 35.8096 26.4191C35.7875 28.344 37.7672 29.9292 40.1892 29.9379C42.6333 29.9467 44.6351 28.3963 44.6462 26.4714ZM9.26686 26.454C9.26686 28.3615 11.2354 29.9292 13.6464 29.9379C16.1127 29.9467 18.1144 28.3789 18.1144 26.4366C18.1144 24.5378 16.1237 22.9787 13.7128 22.9787C11.2576 22.97 9.26686 24.5291 9.26686 26.454ZM30.5343 2.09245C30.5343 4.88832 30.5343 7.64935 30.5343 10.393C31.1315 10.393 31.6844 10.393 32.2374 10.393C32.2374 7.6058 32.2374 4.86219 32.2374 2.09245C31.6623 2.09245 31.1204 2.09245 30.5343 2.09245ZM48.152 10.4104C48.152 7.61451 48.152 4.85348 48.152 2.10987C47.5548 2.10987 47.0018 2.10987 46.4489 2.10987C46.4489 4.89703 46.4489 7.64064 46.4489 10.4104C47.024 10.4104 47.5659 10.4104 48.152 10.4104ZM40.1892 17.3783C40.1892 15.044 40.1892 12.7533 40.1892 10.4539C39.603 10.4539 39.0611 10.4539 38.4971 10.4539C38.4971 12.7708 38.4971 15.0615 38.4971 17.3783C39.0611 17.3783 39.603 17.3783 40.1892 17.3783ZM48.4175 21.5852C48.7935 22.6042 50.1759 23.1617 51.68 22.9091C51.5362 22.5345 51.4035 22.16 51.2266 21.8029C51.1823 21.7071 50.9722 21.6026 50.8284 21.5939C50.0432 21.5677 49.2469 21.5852 48.4175 21.5852Z" fill="#F6931E"/>
</svg>
