<svg width="23" height="23" viewBox="0 0 23 23" fill="none" xmlns="http://www.w3.org/2000/svg">
<path d="M11.4955 0.582036C17.5734 0.576306 22.501 5.50283 22.5 11.5841C22.499 17.6649 17.5648 22.5952 11.4921 22.5842C5.41463 22.5728 0.50765 17.6668 0.500009 11.5932C0.492368 5.51381 5.41129 0.587767 11.4955 0.582036ZM11.5079 2.04528C6.25944 2.03191 1.97616 6.308 1.96231 11.5745C1.94846 16.8206 6.22697 21.1062 11.4921 21.1205C16.7391 21.1348 21.0243 16.8564 21.0382 11.5903C21.0515 6.3419 16.775 2.05866 11.5079 2.04528Z" fill="#F6931E"/>
<path d="M10.7832 12.7919C10.7832 10.3551 10.7832 7.9303 10.7832 5.4873C11.256 5.4873 11.7284 5.4873 12.2256 5.4873C12.2256 7.42641 12.2256 9.36314 12.2256 11.3266C14.0272 11.3266 15.8044 11.3266 17.5988 11.3266C17.5988 11.8257 17.5988 12.299 17.5988 12.7914C15.3335 12.7919 13.0643 12.7919 10.7832 12.7919Z" fill="#F6931E"/>
</svg>
