<svg width="31" height="31" viewBox="0 0 31 31" fill="none" xmlns="http://www.w3.org/2000/svg">
<path d="M3.34629 27.1847L3.47169 26.7231C3.75742 25.6712 4.03315 24.6563 4.3095 23.6425C4.33736 23.5402 4.36474 23.4341 4.39266 23.326C4.46453 23.0476 4.53995 22.7556 4.63611 22.4773M3.34629 27.1847L4.91055 22.572M3.34629 27.1847L3.81368 27.0829C3.85402 27.0741 3.89359 27.0658 3.9323 27.0577C4.02265 27.0388 4.10841 27.0208 4.1887 26.9996C4.49528 26.919 4.8022 26.8386 5.10931 26.7583C6.10625 26.4974 7.10509 26.236 8.10012 25.9619L8.10026 25.9618C8.21589 25.9299 8.30582 25.9252 8.38659 25.9373C8.46878 25.9496 8.55797 25.9818 8.66908 26.0452C12.6107 28.3004 16.7014 28.5512 20.7966 26.5546C25.9811 24.027 28.6507 18.6509 27.7235 12.9382C26.7912 7.18894 21.6187 2.64876 15.7958 2.4641L3.34629 27.1847ZM4.63611 22.4773C4.63613 22.4773 4.63614 22.4772 4.63616 22.4772L4.91055 22.572M4.63611 22.4773C4.63609 22.4774 4.63608 22.4774 4.63606 22.4775L4.91055 22.572M4.63611 22.4773C4.66496 22.3935 4.66708 22.3358 4.65906 22.2884C4.65049 22.2376 4.62656 22.1765 4.57161 22.0911M4.91055 22.572C4.99471 22.3277 4.95075 22.1437 4.81572 21.934M4.57161 22.0911C4.57165 22.0912 4.57169 22.0912 4.57172 22.0913L4.81572 21.934M4.57161 22.0911C3.15992 19.9016 2.44935 17.4967 2.52718 14.884L2.52718 14.8839C2.64335 10.9949 4.22376 7.78208 7.21912 5.313C9.701 3.26718 12.5942 2.36218 15.7958 2.4641L4.81572 21.934M4.57161 22.0911L4.81572 21.934M1.23532 27.5152L1.23535 27.515C1.33268 27.1588 1.43033 26.8025 1.52802 26.446C1.84727 25.281 2.16691 24.1147 2.47688 22.946L2.47694 22.9458C2.53202 22.7374 2.50828 22.4661 2.40069 22.2674L2.4006 22.2672C-0.598729 16.7369 0.10112 10.1832 4.26037 5.46718L4.26038 5.46717C6.80563 2.58111 10.0238 0.930294 13.8614 0.584108C20.5487 -0.0189015 26.5862 3.79852 28.9679 10.0856L28.9679 10.0856C31.0713 15.637 29.4127 22.2092 24.9393 26.1139C22.5092 28.235 19.707 29.4718 16.5024 29.7588C13.687 30.0106 11.0146 29.475 8.49804 28.1767C8.23833 28.0424 7.99176 28.0067 7.69804 28.0849C5.55921 28.6518 3.41841 29.212 1.27686 29.7723C1.04087 29.8341 0.804865 29.8958 0.568854 29.9576C0.795421 29.1258 1.01493 28.3205 1.23532 27.5152Z" fill="#262465" stroke="#E5E5ED" stroke-width="0.580645"/>
<path d="M10.3629 8.58777L10.2971 8.57446C9.98355 8.51113 9.73618 8.55389 9.52041 8.66027C9.29701 8.7704 9.09055 8.95723 8.87962 9.20916L8.87921 9.20965C7.93989 10.3265 7.72477 11.581 8.0877 12.9799C8.39164 14.1502 9.06821 15.1339 9.81895 16.1299C11.6725 18.5885 13.8789 20.5404 16.8176 21.5426L16.8177 21.5427C17.8498 21.895 18.8233 22.151 19.8714 22.004C21.2206 21.8148 22.3023 20.7832 22.4842 19.4733C22.5103 19.2846 22.5241 19.1567 22.5238 19.0603C22.5236 18.9677 22.5101 18.9277 22.4984 18.9056C22.4869 18.8837 22.4619 18.8505 22.3864 18.7991C22.3076 18.7455 22.1951 18.6859 22.0253 18.6026L22.025 18.6025C21.9508 18.566 21.8767 18.5301 21.8025 18.4949L21.8022 18.4948C21.5629 18.3808 21.3249 18.2664 21.0876 18.1522C20.5251 17.8817 19.9661 17.6129 19.3999 17.3559C19.1707 17.2522 19.0973 17.2588 19.0656 17.2683C19.0233 17.2809 18.952 17.3276 18.7892 17.5364L18.7892 17.5364C18.5776 17.8077 18.356 18.0784 18.137 18.346C17.9964 18.5179 17.8569 18.6884 17.7216 18.8571L17.7214 18.8573C17.5886 19.0225 17.4246 19.1442 17.2222 19.1914C17.0227 19.238 16.8237 19.2032 16.636 19.1286L16.6359 19.1285C14.3558 18.2198 12.6073 16.6921 11.3586 14.5905L10.3629 8.58777ZM10.3629 8.58777L10.428 8.57077M10.3629 8.58777L10.428 8.57077M10.428 8.57077C10.7003 8.49958 10.8481 8.55157 10.9525 8.63546C11.0785 8.73683 11.1873 8.92185 11.2956 9.20358L11.2957 9.2038M10.428 8.57077L11.2957 9.2038M11.2957 9.2038C11.6282 10.0666 11.988 10.9188 12.359 11.7621M11.2957 9.2038L12.359 11.7621M12.359 11.7621C12.4186 11.8977 12.4357 12.004 12.4276 12.0927C12.4196 12.1794 12.3856 12.2722 12.3048 12.3789L12.5363 12.5541C12.4505 12.6671 12.3657 12.7808 12.2809 12.8946C12.0781 13.1665 11.8752 13.4386 11.6596 13.7003M12.359 11.7621L12.305 12.3786C12.216 12.4959 12.1293 12.6121 12.0436 12.7271C11.8427 12.9965 11.6466 13.2594 11.4357 13.5154M11.6596 13.7003L11.4359 13.5152C11.4358 13.5153 11.4358 13.5153 11.4357 13.5154M11.6596 13.7003L11.4355 13.5156C11.4356 13.5156 11.4357 13.5155 11.4357 13.5154M11.6596 13.7003L11.4357 13.5154M11.4357 13.5154C11.3071 13.6709 11.2192 13.8454 11.207 14.0449C11.1949 14.2427 11.2598 14.4245 11.3585 14.5902L11.4357 13.5154Z" fill="#262465" stroke="#E5E5ED" stroke-width="0.580645"/>
</svg>
