<svg width="31" height="31" viewBox="0 0 31 31" fill="none" xmlns="http://www.w3.org/2000/svg">
<path d="M1.73391 15.7027V15.7027C1.73985 8.09973 7.93816 1.91385 15.54 1.92395L1.73391 15.7027ZM1.73391 15.7027C1.72856 23.2875 7.91026 29.4815 15.4984 29.4946C23.0968 29.5077 29.298 23.3182 29.3052 15.7147C29.3123 8.12992 23.127 1.93346 15.54 1.92395L1.73391 15.7027ZM15.5169 0.902533C23.6777 0.901376 30.3242 7.5456 30.326 15.7064C30.3277 23.8654 23.6806 30.5143 15.5215 30.516C7.36366 30.5166 0.710767 23.8653 0.71308 15.7111C0.715394 7.54667 7.35619 0.90369 15.5169 0.902533Z" fill="#262465" stroke="#262465" stroke-width="0.387097"/>
<path d="M20.095 24.2734C20.131 24.2716 20.1708 24.2706 20.2135 24.2696C20.3238 24.2669 20.4536 24.2638 20.5889 24.2449L20.5892 24.2448C21.7681 24.0822 22.6835 23.5816 23.1808 22.4841C23.4447 21.9015 23.6926 21.3107 23.9309 20.7156C24.1132 20.2603 24.127 19.8428 24.0013 19.4837C23.8756 19.1242 23.603 18.8027 23.1752 18.5531C22.5881 18.2106 21.9992 17.8712 21.4098 17.5314C21.2132 17.4181 21.0167 17.3048 20.8201 17.1913L20.82 17.1913C20.2088 16.8384 19.7449 16.728 19.3508 16.8139C18.9567 16.8998 18.5822 17.1928 18.1758 17.7671L18.1745 17.7689C18.1717 17.7727 18.1681 17.7778 18.1639 17.7838C18.1516 17.8011 18.1342 17.8258 18.1184 17.8458C18.1182 17.8461 18.118 17.8464 18.1177 17.8466L17.9662 17.7262C17.5842 18.2184 16.9573 18.3332 16.4598 17.9571L20.095 24.2734ZM20.095 24.2734C18.7105 24.2408 17.5207 23.8223 16.4012 23.1982C12.7157 21.1434 9.84758 18.2719 7.88191 14.5309C7.24463 13.3175 6.83934 12.0448 6.98491 10.6772L6.98491 10.6772C7.1125 9.4766 7.63286 8.54631 8.75599 8.04202L8.75601 8.04201C9.37617 7.76347 10.0006 7.49672 10.6329 7.25533C11.3987 6.96364 12.1849 7.23622 12.606 7.94074C13.1607 8.86863 13.7039 9.8036 14.227 10.7481L14.227 10.7482C14.6476 11.5072 14.4192 12.4024 13.6963 12.8975L13.8057 13.0571L20.095 24.2734ZM19.9143 23.2497L19.9143 23.2496C18.8758 23.2148 17.8357 22.8369 16.8779 22.3005L16.8778 22.3004C13.2833 20.2827 10.4789 17.4785 8.64145 13.7586L8.64142 13.7586C8.18969 12.8432 7.88542 11.8477 7.99911 10.7723L7.99912 10.7721C8.04256 10.3639 8.1508 9.98324 8.36006 9.65993C8.57099 9.33405 8.8779 9.07693 9.29983 8.90848L9.29995 8.90844C9.56474 8.80293 9.82783 8.69205 10.0928 8.58021L10.117 8.56997C10.3734 8.46173 10.6317 8.35271 10.892 8.24831C11.0661 8.17842 11.2423 8.13805 11.4124 8.19822C11.5813 8.25798 11.6942 8.39948 11.7881 8.5608C12.2841 9.41253 12.7764 10.2654 13.2664 11.12C13.3718 11.3032 13.4483 11.4932 13.3966 11.6874C13.3458 11.8779 13.1871 12.0111 13.0057 12.1286L13.0057 12.1287C12.2218 12.636 11.8119 13.3238 11.8477 14.2573C11.8664 14.7445 12.0446 15.1799 12.3485 15.5715C13.3075 16.806 14.3998 17.908 15.6365 18.8619C16.784 19.747 18.2486 19.4983 19.0549 18.2897L19.055 18.2896C19.1331 18.1725 19.2058 18.0712 19.2796 17.9945C19.3549 17.9163 19.4434 17.8505 19.5561 17.8243C19.6687 17.7982 19.7773 17.818 19.8797 17.8549C19.9801 17.8912 20.0907 17.9499 20.2136 18.0208C21.0165 18.4831 21.8186 18.9466 22.6201 19.41L19.9143 23.2497ZM19.9143 23.2497L19.9197 23.2497M19.9143 23.2497L19.9197 23.2497M19.9197 23.2497C20.5105 23.253 21.0338 23.1601 21.4639 22.9147C21.8989 22.6665 22.2201 22.273 22.4224 21.7122L22.4225 21.7121M19.9197 23.2497L22.4225 21.7121M22.4225 21.7121C22.5211 21.4385 22.6319 21.1775 22.7451 20.911C22.8169 20.7419 22.8897 20.5706 22.9609 20.3924M22.4225 21.7121L22.9609 20.3924M22.9609 20.3924C23.0401 20.1945 23.0944 20.0004 23.03 19.8166C22.9658 19.6333 22.8028 19.5155 22.6202 19.4101L22.9609 20.3924Z" fill="#262465" stroke="#262465" stroke-width="0.387097"/>
</svg>
