<svg width="31" height="31" viewBox="0 0 31 31" fill="none" xmlns="http://www.w3.org/2000/svg">
<path d="M15.2127 30.4338C14.2307 30.4738 13.2607 30.3521 12.2996 30.1834C11.7976 30.0952 11.2896 29.9843 10.818 29.7708C10.2707 29.5228 9.72698 29.6349 9.17489 29.747C8.57094 29.8692 7.96281 29.9682 7.35587 30.0761C6.73045 30.187 6.10502 30.2985 5.4796 30.4064C4.72898 30.5358 3.97835 30.6639 3.22713 30.7891C2.8074 30.8589 2.40019 30.9936 1.96377 30.9746C1.4397 30.9513 1.0635 30.4362 1.24713 29.9384C1.41764 29.4751 1.64063 29.0291 1.78133 28.5581C1.85943 28.2976 1.96675 28.0245 2.07407 27.8039C2.17065 27.6054 2.23087 27.3586 2.38469 27.1606C2.57727 26.9132 2.66551 26.5841 2.79309 26.2872C2.97792 25.8579 3.14843 25.4221 3.34399 24.9982C3.41971 24.8342 3.41613 24.7215 3.30345 24.5749C2.4461 23.4636 1.78014 22.2419 1.25369 20.944C0.966315 20.2357 0.727832 19.5125 0.568048 18.7613C0.488753 18.3886 0.427344 18.0124 0.346259 17.6428C0.227614 17.1008 0.296178 16.5464 0.174552 16.0032C0.14176 15.8583 0.213305 15.6282 0.223441 15.435C0.254444 14.8549 0.216882 14.2742 0.297967 13.6935C0.511409 12.1702 0.88225 10.6964 1.53748 9.29826C1.77179 8.79804 2.0538 8.32704 2.31971 7.8459C2.67862 7.19723 3.10312 6.60758 3.55862 6.03224C4.11727 5.32633 4.7564 4.7015 5.42773 4.10232C6.03348 3.56156 6.68513 3.0822 7.37614 2.66963C8.32232 2.10442 9.31679 1.63521 10.3655 1.26556C11.1698 0.981767 11.9973 0.819002 12.8207 0.65743C13.2583 0.571576 13.718 0.470221 14.1842 0.504801C14.4561 0.525072 14.7292 0.530438 15.0058 0.461278C15.295 0.388541 15.5949 0.552498 15.884 0.50659C16.4778 0.411793 17.0395 0.613311 17.616 0.6622C18.2086 0.712281 18.7881 0.878623 19.3575 1.05391C19.9704 1.24231 20.5958 1.40984 21.1783 1.67098C21.6398 1.87787 22.0929 2.11754 22.5389 2.36437C23.4451 2.86697 24.2744 3.47749 25.0644 4.14703C26.0887 5.01511 26.9276 6.04357 27.6889 7.13999C28.1641 7.82503 28.5159 8.57864 28.8813 9.32569C29.149 9.87301 29.3011 10.4567 29.5073 11.0231C29.8049 11.8423 29.9098 12.7002 30.0445 13.5534C30.1703 14.3505 30.1662 15.153 30.1602 15.9555C30.1578 16.3126 30.1918 16.7097 30.1185 17.0174C29.9813 17.5885 29.9324 18.1722 29.7941 18.7416C29.533 19.8171 29.1926 20.8635 28.718 21.8603C28.4366 22.4512 28.1224 23.0295 27.7521 23.5733C27.2674 24.2857 26.7469 24.9654 26.1602 25.6039C25.3506 26.4851 24.4509 27.2465 23.4654 27.9154C22.5806 28.5164 21.6291 28.9928 20.6447 29.4053C19.9919 29.6784 19.3182 29.9121 18.6301 30.0445C17.9302 30.1792 17.2291 30.3319 16.5106 30.3885C16.0772 30.4225 15.6455 30.4165 15.2139 30.4344L15.2127 30.4338ZM3.41375 29.0506C3.51152 29.0601 3.59917 29.0637 3.69933 29.0351C3.97776 28.9552 4.2699 28.8556 4.54535 28.8455C5.19283 28.8223 5.81109 28.6529 6.44129 28.5516C6.94985 28.4699 7.45841 28.3578 7.9634 28.2588C8.3724 28.1784 8.7969 28.1056 9.21782 28.0549C9.76275 27.9888 10.3101 27.8063 10.8526 28.0549C11.2473 28.2356 11.6808 28.2749 12.0868 28.4115C12.5464 28.5665 13.0288 28.6118 13.5004 28.7102C13.9672 28.8074 14.4507 28.6553 14.9098 28.824C14.936 28.8336 14.9688 28.8252 14.9986 28.8252C15.2634 28.8229 15.5287 28.7841 15.7892 28.7781C16.3675 28.7644 16.9333 28.6965 17.5015 28.5909C18.8609 28.3381 20.1582 27.913 21.3775 27.2584C22.8704 26.4577 24.1773 25.4292 25.288 24.142C26.0034 23.3127 26.6229 22.4214 27.1046 21.4454C27.6871 20.2661 28.1331 19.0367 28.3281 17.7203C28.4187 17.1092 28.4682 16.5022 28.5033 15.8875C28.5278 15.4678 28.4819 15.054 28.4872 14.6379C28.495 14.0518 28.3996 13.4693 28.2976 12.897C28.1027 11.7994 27.7205 10.7554 27.262 9.73826C26.7988 8.7104 26.1811 7.78211 25.4573 6.92595C24.969 6.34763 24.4312 5.81403 23.8553 5.31679C23.2537 4.79749 22.6063 4.35153 21.9343 3.9312C20.8129 3.22947 19.5847 2.79841 18.3118 2.48719C17.6363 2.32204 16.9405 2.25765 16.2513 2.16226C15.2294 2.02096 14.2301 2.14437 13.2315 2.25884C12.6681 2.32323 12.1088 2.49375 11.5514 2.63803C10.4728 2.91825 9.46584 3.34871 8.5143 3.90139C7.19787 4.66573 6.04481 5.63516 5.04616 6.79658C4.32535 7.63484 3.72973 8.55121 3.23011 9.52423C2.89087 10.1854 2.62675 10.8878 2.41748 11.6133C2.23385 12.2507 2.09255 12.894 1.97629 13.5415C1.85347 14.2259 1.82605 14.9265 1.8648 15.6234C1.8797 15.8864 1.83976 16.1433 1.88328 16.4146C1.96258 16.9077 2.01683 17.4019 2.11163 17.8956C2.19152 18.3087 2.25651 18.7309 2.37456 19.1351C2.86583 20.8229 3.62957 22.3713 4.76237 23.7283C5.01814 24.0347 5.26378 24.3477 5.18985 24.8014C5.14096 25.1025 4.99787 25.3696 4.90426 25.6498C4.74031 26.1393 4.45532 26.5865 4.24545 27.0629C3.95629 27.7187 3.69039 28.3852 3.41255 29.0512L3.41375 29.0506Z" fill="#262465"/>
<path d="M15.1599 16.5418C16.8179 16.5418 18.4766 16.5436 20.1346 16.54C20.3659 16.54 20.583 16.5865 20.766 16.7195C21.0206 16.9049 21.1279 17.305 21.0349 17.6299C20.9651 17.8732 20.611 18.1403 20.3212 18.1629C20.2127 18.1713 20.103 18.1683 19.9939 18.1683C16.8465 18.1683 13.6986 18.1707 10.5512 18.1635C10.3228 18.1635 10.1052 18.2678 9.86077 18.1635C9.48277 18.0031 9.2276 17.6096 9.29914 17.1798C9.35101 16.8685 9.69741 16.5472 10.0969 16.5472C11.7847 16.5472 13.4726 16.5472 15.1605 16.5472C15.1605 16.5454 15.1605 16.5436 15.1605 16.5418H15.1599Z" fill="#262465"/>
<path d="M12.3234 12.4432C13.0275 12.4432 13.7322 12.4301 14.4357 12.4474C14.9592 12.4599 15.3688 12.7056 15.3229 13.3465C15.2978 13.6959 14.9145 14.0906 14.5627 14.09C13.065 14.0888 11.5674 14.087 10.0697 14.0864C9.68455 14.0864 9.33637 13.7704 9.29881 13.3787C9.25946 12.9703 9.52358 12.5678 9.89084 12.4921C10.0345 12.4623 10.183 12.4456 10.3296 12.4444C10.9944 12.4397 11.6586 12.442 12.3234 12.442V12.4432Z" fill="#262465"/>
</svg>
