<svg width="31" height="31" viewBox="0 0 31 31" fill="none" xmlns="http://www.w3.org/2000/svg">
<path d="M8.0673 26.3682C6.7287 26.0837 6.05747 24.7998 6.86706 23.5951C6.31232 22.9026 5.75243 22.2037 5.19124 21.5023C4.39388 22.252 3.81983 22.3144 2.88603 21.7745C2.23668 21.3986 1.58604 21.0267 0.939269 20.6463C0.0987848 20.1527 -0.138687 19.2858 0.347197 18.4409C1.64976 16.1743 2.95939 13.9115 4.26774 11.6481C4.3263 11.5464 4.37908 11.4222 4.46982 11.3617C4.79481 11.1436 4.79417 10.8321 4.79353 10.4897C4.78516 7.34723 4.78838 4.20475 4.78902 1.06162C4.78902 0.463758 4.93382 0.314453 5.52461 0.314453C11.9055 0.314453 18.2863 0.314453 24.6672 0.315097C25.2612 0.315097 25.4092 0.463758 25.4092 1.05583C25.4098 4.28455 25.4105 7.51263 25.4066 10.7413C25.4066 10.9454 25.4388 11.1005 25.6106 11.244C25.7619 11.3701 25.8745 11.5529 25.9755 11.7273C27.2536 13.9334 28.5279 16.1427 29.8015 18.352C30.3575 19.3167 30.1245 20.154 29.1541 20.7113C28.5041 21.0846 27.8566 21.4636 27.206 21.8363C26.3089 22.3511 25.5495 22.1863 24.942 21.3497C24.924 21.3253 24.8976 21.3073 24.8583 21.2712C24.5005 21.454 24.1414 21.638 23.7527 21.8369C23.9612 22.2636 24.0893 22.7141 23.9007 23.1446C23.7257 23.5443 23.4521 23.9001 23.1896 24.3281C23.7514 25.5296 22.797 26.8496 21.5858 26.8341C21.3477 27.2428 21.1933 27.6778 20.8972 27.9674C20.6108 28.248 20.1777 28.3786 19.809 28.5749C19.7942 28.5479 19.78 28.5215 19.7652 28.4945C19.7157 28.6792 19.6809 28.8697 19.6153 29.0486C19.2401 30.0667 18.1885 30.4792 17.2322 29.974C16.7605 29.725 16.3048 29.4457 15.8151 29.1651C15.4367 29.7481 15.0016 30.2527 14.2499 30.2623C13.5208 30.272 12.9892 29.9135 12.6185 29.306C11.5811 29.6773 10.6222 29.2359 10.1885 28.2223C8.83763 28.2049 8.19923 27.6514 8.0673 26.3682ZM24.3647 1.36989C18.1673 1.36989 12.0071 1.36989 5.83802 1.36989C5.83802 4.53103 5.83802 7.66966 5.83802 10.7948C6.0343 10.8726 6.22222 10.9241 6.38633 11.0168C7.15152 11.448 7.91413 11.8837 8.67031 12.3309C9.20446 12.6469 9.47218 13.1277 9.4355 13.7506C9.42327 13.9611 9.48827 14.0512 9.68262 14.1174C10.4427 14.3762 11.2008 14.6407 11.9518 14.9251C12.1803 15.0113 12.3328 14.9998 12.5181 14.8273C13.4841 13.9276 14.6174 13.6399 15.9077 13.9224C16.9246 14.1451 17.9523 14.3234 18.9981 14.2487C19.5889 14.2069 20.1745 14.1001 20.7698 14.0216C20.7022 13.3014 20.8721 12.7351 21.4462 12.3895C22.3954 11.8174 23.3666 11.2813 24.3647 10.7092C24.3647 7.65485 24.3647 4.52524 24.3647 1.36989ZM15.1046 26.0271C16.2199 26.4956 16.4914 26.9545 16.4059 28.1708C16.4013 28.239 16.4766 28.3413 16.5423 28.3819C16.9258 28.6168 17.3126 28.8478 17.7084 29.0621C18.083 29.2648 18.4343 29.1393 18.6216 28.759C18.7992 28.3992 18.7001 28.1058 18.3076 27.8728C17.7728 27.5555 17.2212 27.2653 16.7038 26.9229C16.5532 26.8232 16.429 26.587 16.4174 26.4055C16.4091 26.2729 16.5803 26.049 16.7148 26.0078C16.8821 25.9563 17.1202 26.0033 17.2817 26.0921C18.0057 26.4879 18.7091 26.9197 19.428 27.3245C19.7935 27.5304 20.1275 27.4217 20.3277 27.0645C20.5233 26.7157 20.4448 26.4049 20.1012 26.1803C19.9937 26.1101 19.8804 26.0483 19.7691 25.9833C19.186 25.6429 18.603 25.3031 18.0205 24.962C17.803 24.8346 17.6666 24.6299 17.7605 24.4008C17.8275 24.2374 18.0038 24.0707 18.1692 24.0121C18.2973 23.9664 18.5006 24.0572 18.6422 24.1376C19.5181 24.6351 20.383 25.1512 21.257 25.6525C21.6431 25.8739 21.9803 25.7819 22.1882 25.4222C22.3993 25.0573 22.3098 24.7374 21.9211 24.4999C21.6283 24.3217 21.3297 24.1531 21.033 23.9806C20.4776 23.6569 19.9113 23.3499 19.3739 22.9985C19.2311 22.9052 19.1114 22.6767 19.1056 22.5062C19.1004 22.3665 19.2536 22.1407 19.3849 22.0969C19.5503 22.0416 19.791 22.0834 19.9525 22.1703C20.6128 22.5255 21.2525 22.9187 21.9044 23.2894C22.2693 23.4966 22.5608 23.4394 22.7835 23.1382C23.0737 22.7443 22.9811 22.3768 22.51 22.104C20.5362 20.9578 18.5483 19.8354 16.5925 18.659C15.9586 18.278 15.3787 18.2439 14.7429 18.5586C14.5987 18.6301 14.4404 18.6764 14.3079 18.7639C14.1907 18.8411 14.0723 18.9435 14.0047 19.0638C13.7795 19.4648 13.5877 19.885 13.3625 20.2859C12.9834 20.9584 12.3746 21.3098 11.6358 21.4527C10.7857 21.6168 10.1441 21.1374 10.0874 20.3007C10.0765 20.1405 10.0848 19.979 10.0926 19.8181C10.1305 18.993 10.1582 18.1673 10.2219 17.3442C10.2367 17.1499 10.3429 16.9349 10.4697 16.7831C10.749 16.449 11.0695 16.1492 11.3893 15.8184C10.5785 15.5294 9.77465 15.243 8.9612 14.9528C8.88719 15.0731 8.82412 15.1709 8.76555 15.2713C7.84913 16.8584 6.93335 18.446 6.01757 20.033C5.73312 20.5266 5.73248 20.5266 6.09544 20.9797C6.55494 21.5531 7.01573 22.1259 7.49582 22.7231C7.70047 22.4373 7.87423 22.1818 8.06086 21.936C8.44893 21.4231 8.96248 21.1901 9.6054 21.2776C10.1852 21.3568 10.6048 21.6863 10.9195 22.158C12.2884 21.6535 13.1398 22.1349 13.5794 23.6504C14.6528 23.8088 15.5235 24.7335 15.1046 26.0271ZM24.3699 20.3567C23.3524 18.594 22.3485 16.8493 21.3323 15.1117C21.2872 15.0352 21.1173 14.9663 21.0311 14.9888C19.2652 15.4522 17.505 15.3499 15.7501 14.9418C14.7905 14.7185 13.9423 14.9032 13.2177 15.5777C12.5902 16.1614 11.9718 16.7554 11.3552 17.3513C11.2941 17.4105 11.2458 17.5128 11.2413 17.5978C11.193 18.4325 11.1499 19.2672 11.1165 20.1025C11.103 20.4333 11.1976 20.4989 11.5271 20.4217C11.9782 20.3162 12.3296 20.0748 12.5419 19.654C12.764 19.2144 12.9738 18.7684 13.2106 18.3372C13.2885 18.1957 13.4127 18.0515 13.5517 17.9781C13.9011 17.7941 14.2673 17.6396 14.6341 17.4923C15.4418 17.1685 16.2044 17.2361 16.9677 17.6885C18.8462 18.8025 20.7434 19.8856 22.6374 20.9739C22.743 21.0344 22.9141 21.0846 23.01 21.0415C23.4676 20.8336 23.9084 20.5929 24.3699 20.3567ZM26.2053 21.1567C26.4119 21.0659 26.5425 21.0215 26.6609 20.9546C27.3309 20.573 27.9989 20.1868 28.6662 19.7994C29.1103 19.5413 29.1708 19.3232 28.9147 18.8791C27.6353 16.6608 26.3546 14.4431 25.0726 12.226C24.8352 11.8148 24.6028 11.7504 24.1987 11.9815C23.5107 12.3747 22.824 12.7711 22.1393 13.1708C21.7544 13.3954 21.6901 13.6374 21.9102 14.0248C22.2333 14.593 22.5621 15.1574 22.889 15.7238C23.8479 17.3848 24.803 19.0477 25.7715 20.703C25.8738 20.8786 26.0586 21.0067 26.2053 21.1567ZM3.98136 21.1444C4.12037 21.0177 4.30442 20.914 4.39645 20.7564C5.70158 18.5162 6.99578 16.2695 8.28932 14.0228C8.51071 13.638 8.44313 13.3967 8.05636 13.1701C7.37226 12.7698 6.68558 12.3734 5.99698 11.9802C5.60505 11.7569 5.36114 11.8174 5.13847 12.2022C3.84042 14.4463 2.54494 16.6923 1.25139 18.9396C1.03709 19.3122 1.10402 19.5458 1.4805 19.7659C2.17361 20.172 2.86994 20.573 3.56755 20.9713C3.67696 21.0337 3.79988 21.0691 3.98136 21.1444ZM12.5008 23.7283C12.502 23.3917 12.2755 23.1131 11.9866 23.0185C11.6744 22.9161 11.4421 23.0313 11.2632 23.2849C10.6087 24.2136 9.95356 25.1416 9.30357 26.0741C9.03327 26.4621 9.08605 26.8019 9.43807 27.0478C9.79203 27.2943 10.1177 27.226 10.3989 26.8296C11.0437 25.9203 11.6847 25.0083 12.3206 24.0926C12.41 23.9645 12.4615 23.81 12.5008 23.7283ZM11.175 27.609C11.1519 27.9674 11.3481 28.2416 11.641 28.3542C11.9415 28.47 12.1835 28.3999 12.3946 28.1038C12.9364 27.3451 13.4719 26.5825 14.0041 25.8173C14.2757 25.4267 14.2261 25.0901 13.876 24.8423C13.5234 24.5926 13.1945 24.6583 12.9146 25.0515C12.3868 25.7935 11.8643 26.5394 11.3449 27.2878C11.2619 27.4075 11.2072 27.5472 11.175 27.609ZM10.0951 23.0127C10.0617 22.6272 9.86861 22.4341 9.59188 22.3331C9.31129 22.2314 9.06159 22.3067 8.88333 22.5577C8.48625 23.1169 8.08789 23.6749 7.69918 24.2399C7.44884 24.6042 7.51448 24.9549 7.85621 25.1885C8.20631 25.4273 8.52551 25.3662 8.79516 24.9916C9.17679 24.4613 9.55391 23.9272 9.92267 23.3879C10.0102 23.2598 10.0546 23.1028 10.0951 23.0127ZM14.741 26.9442C14.5299 27.0915 14.3478 27.1713 14.2351 27.3078C14.0047 27.5864 13.8033 27.8908 13.6051 28.1946C13.3876 28.5286 13.4597 28.8607 13.7789 29.0878C14.0987 29.3157 14.4424 29.2771 14.6811 28.9643C14.9012 28.676 15.102 28.3735 15.3079 28.0749C15.4534 27.8644 15.5074 27.6186 15.3408 27.4204C15.1863 27.237 14.9617 27.1147 14.741 26.9442Z" fill="#262465"/>
<path d="M17.6941 9.80842C19.0018 9.80842 20.3096 9.81035 21.6166 9.80648C21.8592 9.80584 22.0632 9.85926 22.1791 10.0942C22.3168 10.3735 22.1868 10.6991 21.883 10.7943C21.7537 10.8349 21.6089 10.8387 21.4718 10.8387C18.9529 10.8413 16.4347 10.8407 13.9158 10.84C13.8193 10.84 13.7215 10.8445 13.6269 10.8304C13.3212 10.7847 13.1423 10.5678 13.1616 10.2776C13.1796 10.0047 13.3733 9.8155 13.6751 9.81099C14.3393 9.80198 15.0041 9.80713 15.6689 9.80713C16.344 9.80842 17.0191 9.80842 17.6941 9.80842Z" fill="#262465"/>
<path d="M17.6836 5.33835C16.3869 5.33835 15.0901 5.34028 13.7933 5.3377C13.4008 5.33706 13.1929 5.18325 13.1601 4.88979C13.1292 4.61049 13.2875 4.38524 13.5687 4.32732C13.6723 4.30608 13.7817 4.30673 13.8879 4.30673C16.4171 4.30544 18.9463 4.30608 21.4755 4.30608C21.5289 4.30608 21.5829 4.3048 21.6363 4.30673C22.0032 4.32346 22.2432 4.53841 22.2329 4.84088C22.2226 5.13692 21.9987 5.33513 21.6376 5.33642C20.3203 5.34092 19.0016 5.33835 17.6836 5.33835Z" fill="#262465"/>
<path d="M9.24302 4.88229C9.6697 4.44532 10.0256 4.07463 10.3892 3.71102C10.6859 3.41434 10.9697 3.38667 11.2046 3.61771C11.4388 3.84745 11.4131 4.14156 11.1248 4.43245C10.6569 4.90482 10.1871 5.37526 9.7141 5.84312C9.3949 6.15847 9.14648 6.15846 8.82921 5.84827C8.59882 5.62367 8.36907 5.39778 8.14769 5.16481C7.91086 4.91447 7.9012 4.63903 8.10779 4.42022C8.31372 4.2027 8.62778 4.20656 8.87748 4.44725C9.00104 4.56438 9.09886 4.70789 9.24302 4.88229Z" fill="#262465"/>
<path d="M9.23886 10.428C9.66425 9.9949 10.0214 9.6255 10.385 9.26189C10.6753 8.97164 10.9726 8.93947 11.2017 9.16278C11.4373 9.39189 11.4122 9.68599 11.1251 9.97688C10.6573 10.4492 10.1875 10.9197 9.7151 11.3869C9.39074 11.7074 9.15198 11.7087 8.83149 11.3972C8.6011 11.1726 8.37071 10.948 8.14932 10.715C7.90413 10.4563 7.90027 10.1603 8.12616 9.94663C8.33402 9.75035 8.63521 9.76064 8.87268 9.99039C8.99431 10.1082 9.09278 10.2517 9.23886 10.428Z" fill="#262465"/>
</svg>
