<svg width="46" height="52" viewBox="0 0 46 52" fill="none" xmlns="http://www.w3.org/2000/svg">
<path d="M5.23047 23.1387C5.06641 22.1543 4.98438 21.1699 5.14844 20.1855C5.3125 19.1191 5.55859 18.2168 6.05078 17.4785C5.88672 16.4941 5.96875 15.5098 6.21484 14.5254C6.54297 13.541 6.95312 12.6387 7.52734 11.9824C7.52734 9.68555 8.10156 7.88086 9.41406 6.56836C10.7266 5.25586 12.6133 4.59961 14.9922 4.59961H18.3555C19.9961 4.59961 21.8008 4.8457 23.7695 5.33789C24.918 5.58398 26.5586 6.07617 28.5273 6.81445L30.9883 7.63477C31.8086 7.79883 32.3828 7.96289 32.875 7.96289V7.22461C32.875 6.48633 33.2031 5.83008 33.6953 5.33789C34.1875 4.8457 34.8438 4.59961 35.5 4.59961H43.375C44.1133 4.59961 44.7695 4.8457 45.2617 5.33789C45.7539 5.83008 46 6.48633 46 7.22461V28.2246C46 28.8809 45.7539 29.5371 45.2617 30.0293C44.7695 30.5215 44.1133 30.8496 43.375 30.8496H35.5C34.5977 30.8496 33.8594 30.4395 33.3672 29.7012C33.1211 29.7012 32.875 29.7832 32.7109 29.8652C32.2188 30.1113 31.6445 30.6855 30.8242 31.5879C30.332 32.0801 29.5938 32.9824 28.6094 34.2949C27.4609 35.9355 26.5586 37.002 25.9844 37.4941C25.6562 37.8223 25.4102 38.3145 25.1641 39.0527C25 39.4629 24.8359 40.1191 24.6719 41.1035C24.0156 44.7129 22.7031 46.5996 20.8164 46.5996C18.5195 46.5996 16.7969 45.9434 15.6484 44.6309C14.582 43.3184 14.0078 41.4316 14.0078 38.9707C14.0078 37.9043 14.1719 36.8379 14.5 35.8535C14.7461 35.1973 15.0742 34.459 15.5664 33.4746L15.7305 33.2285H9.98828C8.34766 33.2285 6.95312 32.5723 5.80469 31.4238C4.65625 30.1934 4 28.7988 4 27.1582C4 25.5176 4.41016 24.2051 5.23047 23.1387ZM43.375 7.22461H35.5V28.2246H43.375V7.22461ZM8.59375 23.959C7.9375 24.123 7.44531 24.4512 7.11719 25.1074C6.78906 25.6816 6.625 26.4199 6.625 27.2402C6.625 28.0605 6.95312 28.8809 7.60938 29.5371C8.26562 30.1934 9.08594 30.6035 9.98828 30.6035H19.1758C19.1758 31.3418 19.0938 32.0801 18.7656 32.8184C18.6016 33.2285 18.3555 33.8848 17.9453 34.7051C17.5352 35.5254 17.207 36.1816 17.043 36.6738C16.7969 37.4121 16.6328 38.1504 16.6328 38.9707C16.6328 40.4473 16.8789 41.5957 17.207 42.252C17.8633 43.4004 19.0117 43.9746 20.8164 43.9746C21.1445 43.6465 21.4727 43.1543 21.6367 42.498C21.8008 42.0879 21.9648 41.4316 22.1289 40.6113C22.375 39.3809 22.5391 38.4785 22.7031 37.9863C23.1133 37.002 23.6055 36.1816 24.1797 35.6074C24.7539 35.0332 25.6562 33.9668 26.8047 32.4082C28.1172 30.6855 29.1016 29.5371 29.7578 28.8809C30.9062 27.7324 31.9727 27.2402 32.875 27.2402V10.5879C32.2188 10.5879 31.3984 10.4238 30.4141 10.1777C29.8398 10.0137 28.8555 9.68555 27.4609 9.19336C25.6562 8.53711 24.1797 8.12695 23.1953 7.88086C21.4727 7.38867 19.832 7.22461 18.3555 7.22461H14.9922C13.3516 7.22461 12.0391 7.63477 11.2188 8.53711C10.3164 9.52148 9.98828 10.998 10.3164 13.0488C9.57812 13.377 9.08594 14.1152 8.75781 15.1816C8.42969 16.248 8.59375 17.2324 9.08594 18.1348C8.51172 18.3809 8.10156 18.9551 7.85547 19.7754C7.69141 20.5957 7.60938 21.416 7.77344 22.2363C7.9375 23.0566 8.18359 23.6309 8.59375 23.959ZM37.4688 11.1621C37.4688 11.6543 37.7148 12.1465 38.043 12.5566C38.4531 12.8848 38.9453 13.1309 39.4375 13.1309C40.0117 13.1309 40.5039 12.8848 40.832 12.5566C41.2422 12.1465 41.4062 11.6543 41.4062 11.1621C41.4062 10.5879 41.2422 10.0957 40.832 9.76758C40.5039 9.35742 40.0117 9.19336 39.4375 9.19336C38.9453 9.19336 38.4531 9.35742 38.043 9.76758C37.7148 10.0957 37.4688 10.5879 37.4688 11.1621Z" fill="#606770"/>
</svg>
