<svg width="36" height="36" viewBox="0 0 36 36" fill="none" xmlns="http://www.w3.org/2000/svg">
<path d="M35.5 17.7139C35.5 8.04811 27.6658 0.213867 18 0.213867C8.33425 0.213867 0.5 8.04811 0.5 17.7139C0.5 26.4495 6.89589 33.6892 15.2671 35.0029V22.7769H10.8274V17.7139H15.2671V13.8591C15.2671 9.47688 17.8753 7.05085 21.874 7.05085C23.7918 7.05085 25.7959 7.39606 25.7959 7.39606V11.7015H23.5904C21.4137 11.7015 20.7425 13.0536 20.7425 14.4344V17.7139H25.5945L24.8178 22.7769H20.7425V35.0029C29.1041 33.6892 35.5 26.4495 35.5 17.7139Z" fill="#1877F2"/>
<path d="M24.8079 22.7768L25.5846 17.7138H20.7326V14.4343C20.7326 13.0535 21.4134 11.7015 23.5805 11.7015H25.786V7.39599C25.786 7.39599 23.7819 7.05078 21.8641 7.05078C17.8654 7.05078 15.2572 9.47681 15.2572 13.859V17.7138H10.8175V22.7768H15.2572V35.0028C16.149 35.1467 17.06 35.2138 17.9901 35.2138C18.9202 35.2138 19.8312 35.1371 20.723 35.0028V22.7768H24.8079Z" fill="white"/>
</svg>
