<svg width="25" height="24" viewBox="0 0 25 24" fill="none" xmlns="http://www.w3.org/2000/svg">
<path d="M5.24124 12.7614C5.16016 12.7614 5.07533 12.7614 4.99004 12.7614C3.67026 12.7614 2.35096 12.7628 1.03119 12.7605C0.657188 12.7596 0.375986 12.5487 0.277566 12.2103C0.186175 11.8963 0.310372 11.5373 0.603291 11.3826C0.747641 11.3062 0.928079 11.2668 1.09258 11.2654C2.38845 11.2561 3.68479 11.2603 4.98113 11.2603C5.06643 11.2603 5.15173 11.2603 5.25015 11.2603C5.48354 10.3295 5.98361 9.59089 6.78738 9.07254C7.38775 8.68542 8.0481 8.51389 8.76329 8.52279C10.1088 8.54013 11.6226 9.44466 12.0871 11.2603H12.358C16.0122 11.2603 19.6664 11.2603 23.3202 11.2603C23.4214 11.2603 23.525 11.2547 23.6239 11.2715C23.9993 11.3357 24.2692 11.6858 24.243 12.0636C24.2177 12.432 23.9158 12.7324 23.5414 12.7586C23.4561 12.7647 23.3698 12.761 23.2836 12.761C19.6453 12.761 16.0066 12.761 12.3683 12.761H12.0955C11.5561 14.7411 9.93075 15.5088 8.65597 15.5032C7.27808 15.4971 5.71507 14.6085 5.24077 12.761L5.24124 12.7614ZM8.67378 13.9983C9.7789 13.9931 10.6619 13.0993 10.6553 11.9919C10.6492 10.9013 9.75406 10.0183 8.66019 10.0235C7.55647 10.0286 6.66365 10.9303 6.67443 12.0289C6.68521 13.1186 7.58365 14.0034 8.67331 13.9983H8.67378Z" fill="white"/>
<path d="M12.3982 19.7804C12.8969 17.8992 14.4374 17.0509 15.7722 17.0354C16.5961 17.026 17.3399 17.2763 17.988 17.79C18.6343 18.3022 19.0425 18.9705 19.2431 19.7804C19.3472 19.7804 19.4404 19.7804 19.5332 19.7804C20.853 19.7804 22.1728 19.7781 23.4926 19.7832C23.8722 19.7846 24.1735 20.0461 24.2368 20.4028C24.2959 20.7365 24.1042 21.0955 23.7803 21.215C23.6524 21.2623 23.5061 21.2787 23.3684 21.2792C22.0875 21.2839 20.8066 21.282 19.5262 21.282C19.4404 21.282 19.3551 21.282 19.2666 21.282C18.6653 23.1173 17.4406 24.1456 15.4816 23.9839C13.8633 23.8508 12.8716 22.8478 12.3982 21.282H12.1133C8.45061 21.282 4.78796 21.282 1.12531 21.282C0.679605 21.282 0.397935 21.1016 0.285454 20.7496C0.140635 20.2964 0.45605 19.8226 0.929874 19.7856C1.03064 19.7776 1.13281 19.7809 1.23451 19.7809C4.85826 19.7809 8.48201 19.7809 12.1053 19.7809L12.3982 19.7804ZM15.8214 22.5137C16.9167 22.516 17.8099 21.6349 17.8188 20.5443C17.8277 19.45 16.9251 18.537 15.8317 18.5347C14.7341 18.5323 13.838 19.4312 13.8384 20.534C13.8389 21.627 14.7252 22.5113 15.8214 22.5137Z" fill="white"/>
<path d="M19.2664 4.23953C18.7068 5.98626 17.5656 6.98125 15.7078 6.97375C14.2849 6.96813 12.854 5.99329 12.4027 4.23953H12.1103C8.45558 4.23953 4.80043 4.2386 1.14574 4.24141C0.895474 4.24141 0.66442 4.21141 0.476015 4.02723C0.0635857 3.62276 0.238399 2.92585 0.796585 2.77588C0.915158 2.74401 1.04357 2.73979 1.1673 2.73979C4.81449 2.73792 8.46167 2.73839 12.1084 2.73839C12.2087 2.73839 12.3085 2.73839 12.4004 2.73839C13.0265 0.985093 14.2033 0.0510355 15.6853 0.00182521C17.2174 -0.0487911 18.8075 0.955567 19.2495 2.73839C19.3367 2.73839 19.429 2.73839 19.5218 2.73839C20.8261 2.73839 22.1304 2.73557 23.4343 2.73979C24.0196 2.74167 24.3955 3.26001 24.1926 3.76946C24.0726 4.06988 23.805 4.2386 23.4282 4.23906C22.1318 4.24094 20.8355 4.24 19.5391 4.24C19.4463 4.24 19.3531 4.24 19.2668 4.24L19.2664 4.23953ZM13.8387 3.49294C13.8397 4.58447 14.7245 5.47682 15.8156 5.48573C16.9062 5.49463 17.8205 4.58588 17.8196 3.49247C17.8187 2.40188 16.9291 1.51 15.8385 1.50625C14.7306 1.5025 13.8382 2.38876 13.8387 3.49294Z" fill="white"/>
</svg>
