<svg width="33" height="29" viewBox="0 0 33 29" fill="none" xmlns="http://www.w3.org/2000/svg">
<rect width="33" height="29" fill="#E0E2E9"/>
<g clip-path="url(#clip0_15_7)">
<rect width="1728" height="2304" transform="translate(-964 -626)" fill="white"/>
<path d="M16.2347 5.28303C16.566 4.79602 16.8736 4.30276 17.2218 3.84075C18.3678 2.32033 19.7951 1.16501 21.6606 0.6705C24.2132 -0.00593719 26.6026 0.431684 28.6938 2.03588C31.3445 4.06894 32.3379 6.88534 32.211 10.1444C32.116 12.58 31.0888 14.6594 29.6378 16.5568C28.1236 18.5367 26.3187 20.2353 24.447 21.8651C21.9882 24.0057 19.5144 26.1294 17.0449 28.2575C16.4466 28.7733 16.0203 28.7739 15.4195 28.2506C12.3105 25.5411 9.18462 22.8498 6.10564 20.1059C4.60335 18.7674 3.2561 17.2707 2.14017 15.5828C0.379057 12.9189 -0.242365 10.0312 0.580988 6.92036C1.36058 3.97642 3.11919 1.81332 6.05813 0.829294C9.00832 -0.158479 11.7103 0.396674 14.0372 2.50851C14.4742 2.90487 14.8649 3.35999 15.2313 3.8245C15.5914 4.27962 15.8934 4.78101 16.2347 5.28303Z" fill="#F53535"/>
</g>
<defs>
<clipPath id="clip0_15_7">
<rect width="1728" height="2304" fill="white" transform="translate(-964 -626)"/>
</clipPath>
</defs>
</svg>
