<svg width="28" height="32" viewBox="0 0 28 32" fill="none" xmlns="http://www.w3.org/2000/svg">
<path d="M26.0781 21.2407C26.0781 21.0827 26.0781 20.969 26.0781 20.8559C26.0781 14.4653 26.0781 8.0746 26.0781 1.68331C26.0781 1.26359 26.0781 1.26484 25.6533 1.28046C25.539 1.28483 25.4241 1.28233 25.3098 1.28233C19.5537 1.27796 13.7983 1.27296 8.04215 1.26921C7.95159 1.26921 7.8604 1.2842 7.74485 1.29482C7.74485 1.45097 7.74485 1.584 7.74485 1.71766C7.74423 6.80734 7.7436 11.897 7.74235 16.9867C7.74235 17.1222 7.74735 17.2578 7.73611 17.3927C7.70675 17.7406 7.4563 17.9791 7.12714 17.9816C6.783 17.9848 6.50819 17.7393 6.47696 17.3952C6.46759 17.2921 6.47071 17.1872 6.47071 17.0829C6.47071 11.9414 6.47071 6.79922 6.47071 1.6577C6.47071 1.53279 6.47009 1.40787 6.47821 1.28296C6.52942 0.492241 7.04907 -0.00492251 7.83542 -0.00492251C13.8307 -0.00617166 19.826 -0.00617166 25.8214 -0.00492251C26.6046 -0.00492251 27.1473 0.33797 27.3041 0.938189C27.3478 1.1062 27.3528 1.28795 27.3528 1.46346C27.3547 6.56375 27.3528 11.664 27.3528 16.7637C27.3528 18.575 27.3491 20.3856 27.3634 22.1969C27.3666 22.5735 27.2285 22.8571 26.9725 23.1094C25.742 24.3223 24.5204 25.544 23.2762 26.742C23.1051 26.9068 22.8296 26.9756 22.5904 27.0543C22.458 27.098 22.3019 27.0755 22.1563 27.0755C19.6999 27.0761 17.2434 27.0761 14.787 27.0755C14.6627 27.0755 14.5365 27.0749 14.4135 27.0555C14.0762 27.0037 13.8613 26.7551 13.867 26.439C13.8732 26.0999 14.1268 25.8251 14.4684 25.7939C14.5615 25.7857 14.6558 25.7901 14.7495 25.7901C16.873 25.7901 18.996 25.7901 21.1195 25.7901C21.2432 25.7901 21.3675 25.7901 21.5224 25.7901C21.5299 25.6846 21.5411 25.5965 21.5411 25.5078C21.5424 24.5609 21.5399 23.6135 21.5424 22.6666C21.5449 21.7172 21.9646 21.2632 22.9233 21.2419C23.7965 21.2226 24.6715 21.2557 25.5453 21.2619C25.7089 21.265 25.8732 21.2494 26.0781 21.2407ZM22.8309 25.2961C22.8552 25.3042 22.8802 25.3129 22.9046 25.321C23.3587 24.8657 23.8127 24.4104 24.2674 23.9563C24.7196 23.5048 25.1724 23.0538 25.6652 22.5635C24.6696 22.5635 23.744 22.5635 22.8309 22.5635C22.8309 23.4942 22.8309 24.3948 22.8309 25.2961Z" fill="#F6931E"/>
<path d="M6.89886 18.8772C10.5626 18.9116 13.4632 21.8402 13.4313 25.4728C13.3988 29.1297 10.4739 31.9933 6.80018 31.9634C3.19699 31.934 0.332057 28.9529 0.363911 25.2673C0.394515 21.8046 3.42184 18.8441 6.89886 18.8772ZM6.90198 30.6924C9.73756 30.7023 12.1553 28.3121 12.1684 25.4853C12.1822 22.5903 9.82313 20.1826 6.95695 20.1657C4.06328 20.1489 1.64117 22.5385 1.63555 25.4147C1.63055 28.2771 4.03018 30.6817 6.90198 30.6924Z" fill="#F6931E"/>
<path d="M16.7592 4.00088C14.3983 4.00088 12.0374 4.00213 9.67587 3.99963C9.12936 3.99901 8.81083 3.56992 9.04817 3.11648C9.13436 2.95159 9.35733 2.84604 9.53596 2.74548C9.61591 2.70051 9.73957 2.73049 9.84388 2.73049C14.3889 2.72987 18.9346 2.72924 23.4796 2.73299C23.7376 2.73299 23.9987 2.7561 24.2529 2.80044C24.5239 2.84729 24.7044 3.01093 24.7144 3.30698C24.725 3.61115 24.5564 3.87284 24.2722 3.94717C24.0948 3.99401 23.9031 4.00213 23.7182 4.00276C21.3986 4.0065 19.0795 4.00525 16.7598 4.00525C16.7592 4.00338 16.7592 4.00213 16.7592 4.00088Z" fill="#F6931E"/>
<path d="M16.1112 15.1769C13.9689 15.1769 11.8266 15.1782 9.6843 15.1757C9.14841 15.1751 8.85174 14.7866 9.02162 14.32C9.10719 14.0852 9.2702 13.939 9.52441 13.9153C9.64807 13.9041 9.77361 13.9028 9.8979 13.9028C14.037 13.9022 18.176 13.9022 22.3151 13.9028C22.4606 13.9028 22.6068 13.9028 22.7511 13.9184C23.0977 13.9565 23.3394 14.2163 23.3357 14.5343C23.3319 14.8459 23.0765 15.1301 22.7554 15.1701C22.653 15.1826 22.5475 15.1763 22.4438 15.1763C20.3333 15.1769 18.2223 15.1769 16.1112 15.1769Z" fill="#F6931E"/>
<path d="M15.1345 6.80079C13.3251 6.80079 11.5151 6.80204 9.70565 6.80017C9.27032 6.79954 9.01924 6.5978 8.98114 6.23118C8.94179 5.8558 9.15165 5.58224 9.52577 5.5279C9.60759 5.51604 9.69191 5.51604 9.77436 5.51604C13.3413 5.51541 16.9089 5.51541 20.4759 5.51666C20.6001 5.51666 20.7263 5.52166 20.8481 5.54477C21.1735 5.60597 21.3728 5.8583 21.3678 6.18558C21.3634 6.50037 21.1685 6.72896 20.8425 6.7858C20.7307 6.80516 20.6145 6.80079 20.5002 6.80079C18.7121 6.80141 16.9233 6.80079 15.1345 6.80079Z" fill="#F6931E"/>
<path d="M13.7629 11.1056C15.0845 11.1056 16.4061 11.0969 17.727 11.115C17.9275 11.1175 18.1717 11.1912 18.3166 11.3205C18.6689 11.6346 18.5203 12.2068 18.0681 12.3435C17.8826 12.3997 17.679 12.4172 17.4835 12.4166C14.9446 12.4091 12.4063 12.3948 9.86737 12.3835C9.25278 12.381 8.96923 12.1755 8.96985 11.7302C8.97047 11.3017 9.24654 11.1062 9.85987 11.1062C11.1615 11.105 12.4625 11.1056 13.7629 11.1056Z" fill="#F6931E"/>
<path d="M12.0157 8.30631C12.764 8.30631 13.5122 8.30069 14.2605 8.31068C14.4328 8.31318 14.614 8.34628 14.7732 8.40936C15.0287 8.50992 15.1648 8.71665 15.1349 9.00021C15.1043 9.28752 14.9487 9.48426 14.6602 9.54672C14.509 9.5792 14.3516 9.59543 14.1967 9.59606C12.7103 9.59981 11.2244 9.59981 9.73789 9.59731C9.27071 9.59668 9.00276 9.37808 8.97591 8.99459C8.94655 8.573 9.21887 8.31068 9.70854 8.30756C10.4774 8.30194 11.2469 8.30631 12.0157 8.30631Z" fill="#F6931E"/>
<path d="M6.20946 26.5496C7.03515 25.5147 7.83773 24.506 8.64469 23.501C8.82019 23.2824 8.9957 23.0601 9.20181 22.8721C9.476 22.6223 9.75643 22.631 10.015 22.8527C10.2648 23.067 10.3186 23.3199 10.1249 23.6328C9.94506 23.9232 9.72833 24.1918 9.51597 24.4598C8.65718 25.5446 7.79401 26.6252 6.93272 27.7082C6.47553 28.2834 6.14513 28.304 5.62985 27.7819C5.03026 27.1748 4.42504 26.5733 3.84231 25.9506C3.71178 25.8107 3.61184 25.5984 3.59123 25.4097C3.56438 25.1599 3.71428 24.9544 3.95536 24.8433C4.21269 24.7246 4.45128 24.7777 4.64552 24.9663C5.04088 25.3504 5.42374 25.7476 5.81098 26.1399C5.9359 26.2648 6.05769 26.3928 6.20946 26.5496Z" fill="#F6931E"/>
</svg>
