<svg width="28" height="27" viewBox="0 0 28 27" fill="none" xmlns="http://www.w3.org/2000/svg">
<path d="M0.277907 22.9159C0.283119 25.0343 1.78414 26.5614 3.9021 26.564C10.5434 26.5729 17.1841 26.5722 23.8254 26.564C25.9439 26.5614 27.4456 25.037 27.4521 22.9185C27.453 22.6272 27.4541 22.3358 27.4552 22.0444C27.4617 20.3404 27.4681 18.6349 27.4394 16.9304L27.4394 16.9303C27.4303 16.4224 27.3054 15.8983 27.1283 15.4257C26.854 14.693 26.3181 14.1671 25.6197 13.7658C26.2768 13.3705 26.7376 12.8813 27.0342 12.3054C27.3531 11.6863 27.4786 10.9739 27.4622 10.183L27.4622 10.183C27.4348 8.87077 27.4413 7.55826 27.4477 6.2442C27.4504 5.71065 27.453 5.17685 27.4534 4.6427C27.4534 4.64269 27.4534 4.64267 27.4534 4.64266L0.277907 22.9159ZM0.277907 22.9159L0.377907 22.9156L0.277907 22.9159L0.277907 22.9159ZM1.16794 4.55605V4.55606C1.16224 6.57288 1.15971 8.58937 1.17365 10.6058C1.17611 10.9281 1.22787 11.2635 1.3294 11.5663C1.70217 12.6748 2.68529 13.3243 3.98592 13.3249H3.98595C6.44843 13.3268 8.91125 13.3266 11.3739 13.3263C12.195 13.3262 13.0161 13.3262 13.8371 13.3262C14.8094 13.3262 15.7816 13.3264 16.7538 13.3267C19.0867 13.3274 21.4194 13.328 23.7523 13.3249C24.6045 13.3237 25.305 13.0419 25.7924 12.5573C26.2797 12.0728 26.5618 11.3775 26.5627 10.5341L26.563 10.2053C26.5649 8.34038 26.5667 6.47526 26.5589 4.61072C26.5577 4.33478 26.5297 4.05348 26.4603 3.79202C26.138 2.58344 25.1164 1.8443 23.76 1.8443C19.8478 1.84335 15.9354 1.84347 12.0231 1.84359C10.719 1.84363 9.41492 1.84367 8.11089 1.84367C7.67731 1.84367 7.24392 1.84278 6.81065 1.84189C5.82912 1.83987 4.84821 1.83785 3.86697 1.8462M1.16794 4.55605L3.86697 1.8462M1.16794 4.55605C1.17223 2.99575 2.29955 1.85967 3.86697 1.8462M1.16794 4.55605L3.86697 1.8462M2.20282 13.7115C2.17031 13.7298 2.13825 13.7484 2.10665 13.7672C2.11961 13.7759 2.13292 13.7849 2.14673 13.7943C2.16318 13.8054 2.18035 13.817 2.19852 13.8292C2.23052 13.8106 2.26299 13.7922 2.29595 13.774C2.2632 13.7523 2.23316 13.732 2.20481 13.7128C2.20414 13.7124 2.20348 13.7119 2.20282 13.7115ZM3.6745 0.97088L3.67438 0.970886L27.1151 2.99956C26.7712 2.31657 26.3161 1.80556 25.752 1.466C25.1882 1.12656 24.5217 0.962177 23.7606 0.9625C19.0472 0.963858 14.3338 0.9636 9.62055 0.963341C7.73532 0.963238 5.85012 0.963134 3.96496 0.963134C3.86814 0.963134 3.77132 0.965716 3.6745 0.97088ZM0.384877 4.4563C0.410223 2.58198 1.80931 1.17275 3.67982 1.07074L0.384877 4.4563ZM1.16731 22.8744L1.16731 22.8744C1.16604 20.9208 1.16541 18.9674 1.16668 17.0139C1.1673 16.1647 1.44686 15.4649 1.93065 14.9775C2.41436 14.4902 3.11022 14.2073 3.95869 14.2067C10.558 14.2023 17.158 14.2029 23.7574 14.2061C24.6158 14.2064 25.3151 14.4883 25.7997 14.9771C26.2845 15.466 26.563 16.1706 26.5633 17.0323C26.5646 18.975 26.5646 20.9183 26.5633 22.861C26.5627 23.727 26.2817 24.4312 25.7919 24.9188C25.302 25.4064 24.5942 25.6863 23.7232 25.6866C21.377 25.688 19.0312 25.6877 16.6851 25.6875C15.7472 25.6874 14.8093 25.6873 13.8713 25.6873C12.924 25.6873 11.9766 25.6876 11.0292 25.6879C8.6608 25.6887 6.29255 25.6895 3.92458 25.6854H3.92454C2.47416 25.6835 1.41165 24.785 1.19271 23.3955L1.19269 23.3955C1.16724 23.2346 1.16727 23.0683 1.16731 22.894L1.16731 22.8744Z" fill="#F6931E" stroke="#F6931E" stroke-width="0.2"/>
<path d="M9.51698 16.658C7.72236 16.6548 5.92714 16.6555 4.13259 16.658L4.13257 16.658C3.93953 16.6583 3.77956 16.6833 3.67482 16.7898C3.57065 16.8958 3.54673 17.0567 3.54609 17.25L3.54609 17.2501C3.54432 17.8788 3.54472 18.5073 3.54512 19.1355C3.54529 19.4046 3.54546 19.6737 3.54546 19.9427C3.54546 20.2117 3.54529 20.4808 3.54512 20.7499C3.54472 21.3781 3.54432 22.0066 3.54609 22.6353L3.54609 22.6354C3.54673 22.8298 3.57048 22.9913 3.67343 23.0978C3.7775 23.2055 3.93664 23.2309 4.12813 23.2312H4.12815C5.92273 23.2337 7.71794 23.2337 9.51251 23.2312H9.51253C9.70488 23.2309 9.86447 23.2038 9.96985 23.0972C10.0749 22.9909 10.1009 22.8308 10.1009 22.6389C10.1022 20.8444 10.1022 19.0492 10.1009 17.2547C10.1009 17.0612 10.0763 16.9001 9.97281 16.7931C9.86833 16.6851 9.70903 16.6583 9.51698 16.658ZM9.51698 16.658L9.5168 16.758M9.51698 16.658L9.5168 16.758M9.5168 16.758C9.89572 16.7586 10.0009 16.8708 10.0009 17.2548V22.6389C10.0009 23.0178 9.89129 23.1306 9.51237 23.1312C7.71789 23.1337 5.92278 23.1337 4.1283 23.1312C3.74874 23.1306 3.64736 23.0228 3.64609 22.635C3.64432 22.0065 3.64472 21.3783 3.64512 20.7502C3.64529 20.481 3.64546 20.2118 3.64546 19.9427C3.64546 19.6736 3.64529 19.4044 3.64512 19.1352C3.64472 18.5071 3.64432 17.8789 3.64609 17.2503C3.64736 16.8651 3.74938 16.7586 4.13273 16.758C5.92721 16.7555 7.72232 16.7548 9.5168 16.758ZM9.19376 17.5652H9.18703H9.17733H9.16763H9.15793H9.14823H9.13853H9.12883H9.11913H9.10943H9.09973H9.09004H9.08034H9.07064H9.06095H9.05125H9.04155H9.03186H9.02216H9.01247H9.00278H8.99308H8.98339H8.97369H8.964H8.95431H8.94462H8.93493H8.92523H8.91554H8.90585H8.89616H8.88647H8.87678H8.86709H8.8574H8.84771H8.83802H8.82834H8.81865H8.80896H8.79927H8.78959H8.7799H8.77021H8.76053H8.75084H8.74116H8.73147H8.72179H8.7121H8.70242H8.69273H8.68305H8.67337H8.66368H8.654H8.64432H8.63464H8.62495H8.61527H8.60559H8.59591H8.58623H8.57655H8.56687H8.55719H8.54751H8.53783H8.52815H8.51847H8.50879H8.49912H8.48944H8.47976H8.47008H8.46041H8.45073H8.44105H8.43138H8.4217H8.41202H8.40235H8.39267H8.383H8.37332H8.36365H8.35397H8.3443H8.33463H8.32495H8.31528H8.30561H8.29593H8.28626H8.27659H8.26692H8.25724H8.24757H8.2379H8.22823H8.21856H8.20889H8.19922H8.18955H8.17988H8.17021H8.16054H8.15087H8.1412H8.13153H8.12186H8.11219H8.10252H8.09286H8.08319H8.07352H8.06385H8.05418H8.04452H8.03485H8.02518H8.01552H8.00585H7.99618H7.98652H7.97685H7.96719H7.95752H7.94786H7.93819H7.92853H7.91886H7.9092H7.89953H7.88987H7.8802H7.87054H7.86088H7.85121H7.84155H7.83189H7.82222H7.81256H7.8029H7.79323H7.78357H7.77391H7.76425H7.75459H7.74492H7.73526H7.7256H7.71594H7.70628H7.69662H7.68696H7.6773H7.66763H7.65797H7.64831H7.63865H7.62899H7.61933H7.60967H7.60001H7.59036H7.5807H7.57104H7.56138H7.55172H7.54206H7.5324H7.52274H7.51308H7.50342H7.49377H7.48411H7.47445H7.46479H7.45513H7.44548H7.43582H7.42616H7.4165H7.40685H7.39719H7.38753H7.37787H7.36822H7.35856H7.3489H7.33925H7.32959H7.31993H7.31028H7.30062H7.29097H7.28131H7.27165H7.262H7.25234H7.24268H7.23303H7.22337H7.21372H7.20406H7.19441H7.18475H7.1751H7.16544H7.15578H7.14613H7.13647H7.12682H7.11716H7.10751H7.09785H7.0882H7.07854H7.06889H7.05923H7.04958H7.03993H7.03027H7.02062H7.01096H7.00131H6.99165H6.982H6.97234H6.96269H6.95303H6.94338H6.93373H6.92407H6.91442H6.90476H6.89511H6.88546H6.8758H6.86615H6.85649H6.84684H6.83718H6.82753H6.81788H6.80822H6.79857H6.78891H6.77926H6.76961H6.75995H6.7503H6.74064H6.73099H6.72134H6.71168H6.70203H6.69237H6.68272H6.67306H6.66341H6.65376H6.6441H6.63445H6.62479H6.61514H6.60549H6.59583H6.58618H6.57652H6.56687H6.55721H6.54756H6.5379H6.52825H6.5186H6.50894H6.49929H6.48963H6.47998H6.47032H6.46067H6.45101H6.44136H6.4317H6.42205H6.41239H6.40274H6.39308H6.38343H6.37377H6.36412H6.35446H6.3448H6.33515H6.32549H6.31584H6.30618H6.29653H6.28687H6.27721H6.26756H6.2579H6.24825H6.23859H6.22893H6.21928H6.20962H6.19996H6.19031H6.18065H6.17099H6.16134H6.15168H6.14202H6.13236H6.12271H6.11305H6.10339H6.09373H6.08408H6.07442H6.06476H6.0551H6.04544H6.03579H6.02613H6.01647H6.00681H5.99715H5.98749H5.97783H5.96817H5.95851H5.94885H5.9392H5.92954H5.91988H5.91022H5.90056H5.8909H5.88123H5.87157H5.86191H5.85225H5.84259H5.83293H5.82327H5.81361H5.80395H5.79428H5.78462H5.77496H5.7653H5.75564H5.74597H5.73631H5.72665H5.71699H5.70732H5.69766H5.688H5.67833H5.66867H5.659H5.64934H5.63968H5.63001H5.62035H5.61068H5.60102H5.59135H5.58169H5.57202H5.56236H5.55269H5.54302H5.53336H5.52369H5.51402H5.50436H5.49469H5.48502H5.47536H5.46569H5.45602H5.44635H5.43668H5.42701H5.41735H5.40768H5.39801H5.38834H5.37867H5.369H5.35933H5.34966H5.33999H5.33032H5.32065H5.31098H5.3013H5.29163H5.28196H5.27229H5.26262H5.25294H5.24327H5.2336H5.22393H5.21425H5.20458H5.1949H5.18523H5.17556H5.16588H5.15621H5.14653H5.13686H5.12718H5.1175H5.10783H5.09815H5.08847H5.0788H5.06912H5.05944H5.04976H5.04009H5.03041H5.02073H5.01105H5.00137H4.99169H4.98201H4.97233H4.96265H4.95297H4.94329H4.93361H4.92393H4.91425H4.90457H4.89488H4.8852H4.87552H4.86583H4.85615H4.84647H4.83678H4.8271H4.81741H4.80773H4.79804H4.78836H4.77867H4.76899H4.7593H4.74961H4.73993H4.73024H4.72055H4.71086H4.70118H4.69149H4.6818H4.67211H4.66242H4.65273H4.64304H4.63335H4.62366H4.61397H4.60427H4.59458H4.58489H4.5752H4.5655H4.55581H4.54612H4.53642H4.52673H4.51703H4.50734H4.49764H4.48795H4.47825H4.46856H4.45886H4.44916H4.44247V17.5722V17.5819V17.5917V17.6014V17.6111V17.6209V17.6306V17.6403V17.65V17.6598V17.6695V17.6792V17.6889V17.6987V17.7084V17.7181V17.7278V17.7376V17.7473V17.757V17.7667V17.7764V17.7862V17.7959V17.8056V17.8153V17.825V17.8348V17.8445V17.8542V17.8639V17.8736V17.8834V17.8931V17.9028V17.9125V17.9222V17.9319V17.9417V17.9514V17.9611V17.9708V17.9805V17.9902V17.9999V18.0096V18.0194V18.0291V18.0388V18.0485V18.0582V18.0679V18.0776V18.0873V18.097V18.1067V18.1165V18.1262V18.1359V18.1456V18.1553V18.165V18.1747V18.1844V18.1941V18.2038V18.2135V18.2232V18.2329V18.2426V18.2523V18.262V18.2717V18.2814V18.2912V18.3009V18.3106V18.3203V18.33V18.3397V18.3494V18.3591V18.3688V18.3785V18.3882V18.3979V18.4076V18.4173V18.427V18.4367V18.4463V18.456V18.4657V18.4754V18.4851V18.4948V18.5045V18.5142V18.5239V18.5336V18.5433V18.553V18.5627V18.5724V18.5821V18.5918V18.6015V18.6112V18.6209V18.6306V18.6402V18.6499V18.6596V18.6693V18.679V18.6887V18.6984V18.7081V18.7178V18.7275V18.7372V18.7468V18.7565V18.7662V18.7759V18.7856V18.7953V18.805V18.8147V18.8243V18.834V18.8437V18.8534V18.8631V18.8728V18.8825V18.8922V18.9018V18.9115V18.9212V18.9309V18.9406V18.9503V18.96V18.9696V18.9793V18.989V18.9987V19.0084V19.0181V19.0277V19.0374V19.0471V19.0568V19.0665V19.0762V19.0858V19.0955V19.1052V19.1149V19.1246V19.1342V19.1439V19.1536V19.1633V19.173V19.1826V19.1923V19.202V19.2117V19.2214V19.231V19.2407V19.2504V19.2601V19.2698V19.2794V19.2891V19.2988V19.3085V19.3181V19.3278V19.3375V19.3472V19.3569V19.3665V19.3762V19.3859V19.3956V19.4052V19.4149V19.4246V19.4343V19.4439V19.4536V19.4633V19.473V19.4827V19.4923V19.502V19.5117V19.5214V19.531V19.5407V19.5504V19.5601V19.5697V19.5794V19.5891V19.5988V19.6084V19.6181V19.6278V19.6374V19.6471V19.6568V19.6665V19.6761V19.6858V19.6955V19.7052V19.7148V19.7245V19.7342V19.7439V19.7535V19.7632V19.7729V19.7825V19.7922V19.8019V19.8116V19.8212V19.8309V19.8406V19.8503V19.8599V19.8696V19.8793V19.8889V19.8986V19.9083V19.918V19.9276V19.9373V19.947V19.9566V19.9663V19.976V19.9857V19.9953V20.005V20.0147V20.0243V20.034V20.0437V20.0534V20.063V20.0727V20.0824V20.092V20.1017V20.1114V20.1211V20.1307V20.1404V20.1501V20.1597V20.1694V20.1791V20.1888V20.1984V20.2081V20.2178V20.2274V20.2371V20.2468V20.2565V20.2661V20.2758V20.2855V20.2951V20.3048V20.3145V20.3242V20.3338V20.3435V20.3532V20.3628V20.3725V20.3822V20.3919V20.4015V20.4112V20.4209V20.4305V20.4402V20.4499V20.4596V20.4692V20.4789V20.4886V20.4982V20.5079V20.5176V20.5273V20.5369V20.5466V20.5563V20.5659V20.5756V20.5853V20.595V20.6046V20.6143V20.624V20.6337V20.6433V20.653V20.6627V20.6723V20.682V20.6917V20.7014V20.711V20.7207V20.7304V20.7401V20.7497V20.7594V20.7691V20.7788V20.7884V20.7981V20.8078V20.8174V20.8271V20.8368V20.8465V20.8561V20.8658V20.8755V20.8852V20.8948V20.9045V20.9142V20.9239V20.9335V20.9432V20.9529V20.9626V20.9722V20.9819V20.9916V21.0013V21.011V21.0206V21.0303V21.04V21.0497V21.0593V21.069V21.0787V21.0884V21.098V21.1077V21.1174V21.1271V21.1368V21.1464V21.1561V21.1658V21.1755V21.1852V21.1948V21.2045V21.2142V21.2239V21.2336V21.2432V21.2529V21.2626V21.2723V21.282V21.2916V21.3013V21.311V21.3207V21.3304V21.34V21.3497V21.3594V21.3691V21.3788V21.3885V21.3981V21.4078V21.4175V21.4272V21.4369V21.4466V21.4562V21.4659V21.4756V21.4853V21.495V21.5047V21.5143V21.524V21.5337V21.5434V21.5531V21.5628V21.5725V21.5822V21.5918V21.6015V21.6112V21.6209V21.6306V21.6403V21.65V21.6597V21.6693V21.679V21.6887V21.6984V21.7081V21.7178V21.7275V21.7372V21.7469V21.7566V21.7662V21.7759V21.7856V21.7953V21.805V21.8147V21.8244V21.8341V21.8438V21.8535V21.8632V21.8729V21.8826V21.8923V21.902V21.9117V21.9213V21.931V21.9407V21.9504V21.9601V21.9698V21.9795V21.9892V21.9989V22.0086V22.0183V22.028V22.0377V22.0474V22.0571V22.0668V22.0765V22.0862V22.0959V22.1056V22.1153V22.125V22.1347V22.1444V22.1541V22.1638V22.1735V22.1832V22.1929V22.2027V22.2124V22.2221V22.2318V22.2415V22.2512V22.2609V22.2706V22.2803V22.29V22.2997V22.3094V22.3191V22.3259L9.19376 17.5652ZM9.19376 17.5652V17.5719V17.5816V17.5913V17.601V17.6107V17.6204V17.6302V17.6399V17.6496V17.6593V17.669V17.6787V17.6884V17.6981V17.7078V17.7175V17.7272V17.7369V17.7466V17.7563V17.766V17.7757V17.7854V17.7951V17.8048V17.8144V17.8241V17.8338V17.8435V17.8532V17.8629V17.8726V17.8823V17.892V17.9017V17.9114V17.9211V17.9308V17.9405V17.9502V17.9599V17.9696V17.9793V17.9889V17.9986V18.0083V18.018V18.0277V18.0374V18.0471V18.0568V18.0665V18.0762V18.0858V18.0955V18.1052V18.1149V18.1246V18.1343V18.144V18.1537V18.1634V18.173V18.1827V18.1924V18.2021V18.2118V18.2215V18.2312V18.2408V18.2505V18.2602V18.2699V18.2796V18.2893V18.2989V18.3086V18.3183V18.328V18.3377V18.3474V18.357V18.3667V18.3764V18.3861V18.3958V18.4055V18.4151V18.4248V18.4345V18.4442V18.4539V18.4635V18.4732V18.4829V18.4926V18.5023V18.5119V18.5216V18.5313V18.541V18.5507V18.5603V18.57V18.5797V18.5894V18.5991V18.6087V18.6184V18.6281V18.6378V18.6474V18.6571V18.6668V18.6765V18.6861V18.6958V18.7055V18.7152V18.7249V18.7345V18.7442V18.7539V18.7636V18.7732V18.7829V18.7926V18.8023V18.8119V18.8216V18.8313V18.841V18.8506V18.8603V18.87V18.8796V18.8893V18.899V18.9087V18.9183V18.928V18.9377V18.9474V18.957V18.9667V18.9764V18.9861V18.9957V19.0054V19.0151V19.0247V19.0344V19.0441V19.0538V19.0634V19.0731V19.0828V19.0924V19.1021V19.1118V19.1215V19.1311V19.1408V19.1505V19.1601V19.1698V19.1795V19.1892V19.1988V19.2085V19.2182V19.2278V19.2375V19.2472V19.2568V19.2665V19.2762V19.2859V19.2955V19.3052V19.3149V19.3245V19.3342V19.3439V19.3536V19.3632V19.3729V19.3826V19.3922V19.4019V19.4116V19.4212V19.4309V19.4406V19.4502V19.4599V19.4696V19.4793V19.4889V19.4986V19.5083V19.5179V19.5276V19.5373V19.5469V19.5566V19.5663V19.576V19.5856V19.5953V19.605V19.6146V19.6243V19.634V19.6436V19.6533V19.663V19.6726V19.6823V19.692V19.7017V19.7113V19.721V19.7307V19.7403V19.75V19.7597V19.7693V19.779V19.7887V19.7984V19.808V19.8177V19.8274V19.837V19.8467V19.8564V19.866V19.8757V19.8854V19.8951V19.9047V19.9144V19.9241V19.9337V19.9434V19.9531V19.9628V19.9724V19.9821V19.9918V20.0014V20.0111V20.0208V20.0305V20.0401V20.0498V20.0595V20.0691V20.0788V20.0885V20.0982V20.1078V20.1175V20.1272V20.1368V20.1465V20.1562V20.1659V20.1755V20.1852V20.1949V20.2046V20.2142V20.2239V20.2336V20.2432V20.2529V20.2626V20.2723V20.2819V20.2916V20.3013V20.311V20.3206V20.3303V20.34V20.3497V20.3593V20.369V20.3787V20.3884V20.398V20.4077V20.4174V20.4271V20.4367V20.4464V20.4561V20.4658V20.4755V20.4851V20.4948V20.5045V20.5142V20.5238V20.5335V20.5432V20.5529V20.5625V20.5722V20.5819V20.5916V20.6013V20.6109V20.6206V20.6303V20.64V20.6497V20.6593V20.669V20.6787V20.6884V20.6981V20.7077V20.7174V20.7271V20.7368V20.7465V20.7562V20.7658V20.7755V20.7852V20.7949V20.8046V20.8143V20.8239V20.8336V20.8433V20.853V20.8627V20.8724V20.882V20.8917V20.9014V20.9111V20.9208V20.9305V20.9402V20.9498V20.9595V20.9692V20.9789V20.9886V20.9983V21.008V21.0177V21.0273V21.037V21.0467V21.0564V21.0661V21.0758V21.0855V21.0952V21.1049V21.1145V21.1242V21.1339V21.1436V21.1533V21.163V21.1727V21.1824V21.1921V21.2018V21.2115V21.2212V21.2309V21.2406V21.2502V21.2599V21.2696V21.2793V21.289V21.2987V21.3084V21.3181V21.3278V21.3375V21.3472V21.3569V21.3666V21.3763V21.386V21.3957V21.4054V21.4151V21.4248V21.4345V21.4442V21.4539V21.4636V21.4733V21.483V21.4927V21.5024V21.5121V21.5218V21.5315V21.5412V21.5509V21.5606V21.5703V21.5801V21.5898V21.5995V21.6092V21.6189V21.6286V21.6383V21.648V21.6577V21.6674V21.6771V21.6868V21.6965V21.7063V21.716V21.7257V21.7354V21.7451V21.7548V21.7645V21.7742V21.784V21.7937V21.8034V21.8131V21.8228V21.8325V21.8422V21.852V21.8617V21.8714V21.8811V21.8908V21.9005V21.9103V21.92V21.9297V21.9394V21.9491V21.9589V21.9686V21.9783V21.988V21.9977V22.0075V22.0172V22.0269V22.0366V22.0464V22.0561V22.0658V22.0755V22.0853V22.095V22.1047V22.1144V22.1242V22.1339V22.1436V22.1534V22.1631V22.1728V22.1825V22.1923V22.202V22.2117V22.2215V22.2312V22.2409V22.2507V22.2604V22.2701V22.2799V22.2896V22.2993V22.3091V22.3188V22.3259M9.19376 17.5652V22.3259M9.19376 22.3259H9.18628H9.17651H9.16674H9.15698H9.14722H9.13745H9.12769H9.11793H9.10817H9.09841H9.08865H9.07889H9.06913H9.05938H9.04962H9.03986H9.03011H9.02036H9.0106H9.00085H8.9911H8.98135H8.9716H8.96185H8.9521H8.94235H8.9326H8.92286H8.91311H8.90337H8.89362H8.88388H8.87414H8.8644H8.85465H8.84491H8.83517H8.82543H8.8157H8.80596H8.79622H8.78648H8.77675H8.76701H8.75728H8.74755H8.73781H8.72808H8.71835H8.70862H8.69889H8.68916H8.67943H8.6697H8.65998H8.65025H8.64052H8.6308H8.62107H8.61135H8.60162H8.5919H8.58218H8.57246H8.56274H8.55302H8.5433H8.53358H8.52386H8.51414H8.50443H8.49471H8.48499H8.47528H8.46556H8.45585H8.44614H8.43642H8.42671H8.417H8.40729H8.39758H8.38787H8.37816H8.36845H8.35874H8.34904H8.33933H8.32962H8.31992H8.31021H8.30051H8.29081H8.2811H8.2714H8.2617H8.252H8.2423H8.23259H8.2229H8.2132H8.2035H8.1938H8.1841H8.1744H8.16471H8.15501H8.14532H8.13562H8.12593H8.11623H8.10654H8.09685H8.08716H8.07746H8.06777H8.05808H8.04839H8.0387H8.02901H8.01933H8.00964H7.99995H7.99026H7.98058H7.97089H7.9612H7.95152H7.94183H7.93215H7.92247H7.91278H7.9031H7.89342H7.88374H7.87406H7.86438H7.8547H7.84502H7.83534H7.82566H7.81598H7.8063H7.79662H7.78695H7.77727H7.76759H7.75792H7.74824H7.73857H7.72889H7.71922H7.70955H7.69987H7.6902H7.68053H7.67086H7.66119H7.65151H7.64184H7.63217H7.6225H7.61283H7.60317H7.5935H7.58383H7.57416H7.56449H7.55483H7.54516H7.53549H7.52583H7.51616H7.5065H7.49683H7.48717H7.47751H7.46784H7.45818H7.44852H7.43885H7.42919H7.41953H7.40987H7.40021H7.39055H7.38089H7.37123H7.36157H7.35191H7.34225H7.33259H7.32293H7.31327H7.30362H7.29396H7.2843H7.27465H7.26499H7.25533H7.24568H7.23602H7.22637H7.21671H7.20706H7.1974H7.18775H7.1781H7.16844H7.15879H7.14914H7.13949H7.12983H7.12018H7.11053H7.10088H7.09123H7.08158H7.07193H7.06228H7.05263H7.04298H7.03333H7.02368H7.01403H7.00438H6.99473H6.98509H6.97544H6.96579H6.95614H6.9465H6.93685H6.9272H6.91756H6.90791H6.89826H6.88862H6.87897H6.86933H6.85968H6.85004H6.84039H6.83075H6.8211H6.81146H6.80182H6.79217H6.78253H6.77289H6.76324H6.7536H6.74396H6.73432H6.72467H6.71503H6.70539H6.69575H6.68611H6.67646H6.66682H6.65718H6.64754H6.6379H6.62826H6.61862H6.60898H6.59934H6.5897H6.58006H6.57042H6.56078H6.55114H6.5415H6.53186H6.52222H6.51259H6.50295H6.49331H6.48367H6.47403H6.46439H6.45476H6.44512H6.43548H6.42584H6.4162H6.40657H6.39693H6.38729H6.37765H6.36802H6.35838H6.34874H6.33911H6.32947H6.31983H6.3102H6.30056H6.29092H6.28129H6.27165H6.26201H6.25238H6.24274H6.23311H6.22347H6.21383H6.2042H6.19456H6.18493H6.17529H6.16565H6.15602H6.14638H6.13675H6.12711H6.11748H6.10784H6.0982H6.08857H6.07893H6.0693H6.05966H6.05003H6.04039H6.03076H6.02112H6.01149H6.00185H5.99221H5.98258H5.97294H5.96331H5.95367H5.94404H5.9344H5.92477H5.91513H5.9055H5.89586H5.88622H5.87659H5.86695H5.85732H5.84768H5.83805H5.82841H5.81877H5.80914H5.7995H5.78987H5.78023H5.77059H5.76096H5.75132H5.74168H5.73205H5.72241H5.71278H5.70314H5.6935H5.68387H5.67423H5.66459H5.65495H5.64532H5.63568H5.62604H5.61641H5.60677H5.59713H5.58749H5.57786H5.56822H5.55858H5.54894H5.5393H5.52966H5.52003H5.51039H5.50075H5.49111H5.48147H5.47183H5.46219H5.45255H5.44291H5.43327H5.42363H5.41399H5.40435H5.39471H5.38507H5.37543H5.36579H5.35615H5.34651H5.33687H5.32723H5.31759H5.30794H5.2983H5.28866H5.27902H5.26937H5.25973H9.19376Z" fill="#F6931E" stroke="#F6931E" stroke-width="0.2"/>
<path d="M12.9281 17.5166L12.928 17.5165C12.8677 17.4749 12.7958 17.4209 12.736 17.3595C12.6785 17.3006 12.619 17.2219 12.6063 17.1299L12.6063 17.1297C12.5996 17.0804 12.6123 17.0332 12.6286 16.9951C12.6454 16.9559 12.6695 16.918 12.6959 16.8837C12.7483 16.8159 12.8181 16.7519 12.8837 16.7116L12.884 16.7114L12.884 16.7114C12.9548 16.6683 13.0378 16.6586 13.1073 16.6566C13.1432 16.6556 13.1794 16.6565 13.2127 16.6577C13.2183 16.6578 13.2238 16.658 13.2292 16.6582C13.2569 16.6592 13.2822 16.6601 13.3067 16.6601L12.9281 17.5166ZM12.9281 17.5166C12.9907 17.5598 13.0677 17.5598 13.1183 17.5573C13.1412 17.5562 13.165 17.554 13.1862 17.552C13.1905 17.5516 13.1947 17.5512 13.1987 17.5509C13.2242 17.5485 13.2455 17.5469 13.2643 17.5469H13.2735H13.2827H13.2919H13.3011H13.3103H13.3195H13.3288H13.338H13.3472H13.3564H13.3656H13.3748H13.384H13.3933H13.4025H13.4117H13.4209H13.4301H13.4393H13.4486H13.4578H13.467H13.4762H13.4854H13.4946H13.5038H13.5131H13.5223H13.5315H13.5407H13.5499H13.5591H13.5683H13.5776H13.5868H13.596H13.6052H13.6144H13.6236H13.6329H13.6421H13.6513H13.6605H13.6697H13.6789H13.6881H13.6974H13.7066H13.7158H13.725H13.7342H13.7434H13.7526H13.7619H13.7711H13.7803H13.7895H13.7987H13.8079H13.8172H13.8264H13.8356H13.8448H13.854H13.8632H13.8724H13.8817H13.8909H13.9001H13.9093H13.9185H13.9277H13.9369H13.9462H13.9554H13.9646H13.9738H13.983H13.9922H14.0015H14.0107H14.0199H14.0291H14.0383H14.0475H14.0567H14.066H14.0752H14.0844H14.0936H14.1028H14.112H14.1213H14.1305H14.1397H14.1489H14.1581H14.1673H14.1765H14.1858H14.195H14.2042H14.2134H14.2226H14.2318H14.241H14.2503H14.2595H14.2687H14.2779H14.2871H14.2963H14.3056H14.3148H14.324H14.3332H14.3424H14.3516H14.3608H14.3701H14.3793H14.3885H14.3977H14.4069H14.4161H14.4253H14.4346H14.4438H14.453H14.4622H14.4714H14.4806H14.4899H14.4991H14.5083H14.5175H14.5267H14.5359H14.5451H14.5544H14.5636H14.5728H14.582H14.5912H14.6004H14.6096H14.6189H14.6281H14.6373H14.6465H14.6557H14.6649H14.6742H14.6834H14.6926H14.7018H14.711H14.7202H14.7294H14.7387H14.7479H14.7571H14.7663H14.7755H14.7847H14.794H14.8032H14.8124H14.8216H14.8308H14.84H14.8492H14.8585H14.8677H14.8769H14.8861H14.8953H14.9045H14.9137H14.923H14.9322H14.9414H14.9506H14.9598H14.969H14.9783H14.9875H14.9967H15.0059H15.0151H15.0243H15.0335H15.0428H15.052H15.0612H15.0704H15.0796H15.0888H15.098H15.1073H15.1165H15.1257H15.1349H15.1441H15.1533H15.1626H15.1718H15.181H15.1902H15.1994H15.2086H15.2178H15.2271H15.2363H15.2455H15.2547H15.2639H15.2731H15.2823H15.2916H15.3008H15.31H15.3192H15.3284H15.3376H15.3469H15.3561H15.3653H15.3745H15.3837H15.3929H15.4021H15.4114H15.4206H15.4298H15.439H15.4482H15.4574H15.4666H15.4759H15.4851H15.4943H15.5035H15.5127H15.5219H15.5312H15.5404H15.5496H15.5588H15.568H15.5772H15.5864H15.5957H15.6049H15.6141H15.6233H15.6325H15.6417H15.651H15.6602H15.6694H15.6786H15.6878H15.697H15.7062H15.7155H15.7247H15.7339H15.7431H15.7523H15.7615H15.7707H15.78H15.7892H15.7984H15.8076H15.8168H15.826H15.8353H15.8445H15.8537H15.8629H15.8721H15.8813H15.8905H15.8998H15.909H15.9182H15.9274H15.9366H15.9458H15.955H15.9643H15.9735H15.9827H15.9919H16.0011H16.0103H16.0196H16.0288H16.038H16.0472H16.0564H16.0656H16.0748H16.0841H16.0933H16.1025H16.1117H16.1209H16.1301H16.1393H16.1486H16.1578H16.167H16.1762H16.1854H16.1946H16.2039H16.2131H16.2223H16.2315H16.2407H16.2499H16.2591H16.2684H16.2776H16.2868H16.296H16.3052H16.3144H16.3237H16.3329H16.3421H16.3513H16.3605H16.3697H16.3789H16.3882H16.3974H16.4066H16.4158H16.425H16.4342H16.4434H16.4527H16.4619H16.4711H16.4803H16.4895H16.4987H16.508H16.5172H16.5264H16.5356H16.5448H16.554H16.5632H16.5725H16.5817H16.5909H16.6001H16.6093H16.6185H16.6277H16.637H16.6462H16.6554H16.6646H16.6738H16.683H16.6923H16.7015H16.7107H16.7199H16.7291H16.7383H16.7475H16.7568H16.766H16.7752H16.7844H16.7936H16.8028H16.812H16.8213H16.8305H16.8397H16.8489H16.8581H16.8673H16.8766H16.8858H16.895H16.9042H16.9134H16.9226H16.9318H16.9411H16.9503H16.9595H16.9687H16.9779H16.9871H16.9963H17.0056H17.0148H17.024H17.0332H17.0424H17.0516H17.0609H17.0701H17.0793H17.0885H17.0977H17.1069H17.1161H17.1254H17.1346H17.1438H17.153H17.1622H17.1714H17.1807H17.1899H17.1991H17.2083H17.2175H17.2267H17.2359H17.2452H17.2544H17.2636H17.2728H17.282H17.2912H17.3004H17.3097H17.3189H17.3281H17.3373H17.3465H17.3557H17.365H17.3742H17.3834H17.3926H17.4018H17.411H17.4202H17.4295H17.4387H17.4479H17.4571H17.4663H17.4755H17.4847H17.494H17.5032H17.5124H17.5216H17.5308H17.54H17.5493H17.5585H17.5677H17.5769H17.5861H17.5953H17.6045H17.6138H17.623H17.6322H17.6414H17.6506H17.6598H17.669H17.6783H17.6875H17.6967H17.7059H17.7151H17.7243H17.7336H17.7428H17.752H17.7612H17.7704H17.7796H17.7888H17.7981H17.8073H17.8165H17.8257H17.8349H17.8441H17.8534H17.8626H17.8718H17.881H17.8902H17.8994H17.9086H17.9179H17.9271H17.9363H17.9455H17.9547H17.9639H17.9731H17.9824H17.9916H18.0009H18.0102H18.0195H18.0288H18.038H18.0473H18.0566H18.0659H18.0751H18.0844H18.0937H18.103H18.1123H18.1215H18.1308H18.1401H18.1494H18.1586H18.1679H18.1772H18.1865H18.1958H18.205H18.2143H18.2236H18.2329H18.2421H18.2514H18.2607H18.27H18.2793H18.2885H18.2978H18.3071H18.3164H18.3257H18.3349H18.3442H18.3535H18.3628H18.372H18.3813H18.3906H18.3999H18.4092H18.4184H18.4277H18.437H18.4463H18.4555H18.4648H18.4741H18.4834H18.4927H18.5019H18.5112H18.5205H18.5298H18.5391H18.5483H18.5576H18.5669H18.5762H18.5854H18.5947H18.604H18.6133H18.6226H18.6318H18.6411H18.6504H18.6597H18.6689H18.6782H18.6875H18.6968H18.7061H18.7153H18.7246H18.7339H18.7432H18.7524H18.7617H18.771H18.7803H18.7896H18.7988H18.8081H18.8174H18.8267H18.8359H18.8452H18.8545H18.8638H18.8731H18.8823H18.8916H18.9009H18.9102H18.9195H18.9287H18.938H18.9473H18.9566H18.9658H18.9751H18.9844H18.9937H19.003H19.0122H19.0215H19.0308H19.0401H19.0493H19.0586H19.0679H19.0772H19.0865H19.0957H19.105H19.1143H19.1236H19.1328H19.1421H19.1514H19.1607H19.17H19.1792H19.1885H19.1978H19.2071H19.2163H19.2256H19.2349H19.2442H19.2535H19.2627H19.272H19.2813H19.2906H19.2998H19.3091H19.3184H19.3277H19.337H19.3462H19.3555H19.3648H19.3741H19.3833H19.3926H19.4019H19.4112H19.4205H19.4297H19.439H19.4483H19.4576H19.4668H19.4761H19.4854H19.4947H19.504H19.5132H19.5225H19.5318H19.5411H19.5503H19.5596H19.5689H19.5782H19.5875H19.5967H19.606H19.6153H19.6246H19.6338H19.6431H19.6524H19.6617H19.671H19.6802H19.6895H19.6988H19.7081H19.7173H19.7266H19.7359H19.7452H19.7545H19.7637H19.773H19.7823H19.7916H19.8008H19.8101H19.8194H19.8287H19.838H19.8472H19.8565H19.8658H19.8751H19.8843H19.8936H19.9029H19.9122H19.9215H19.9307H19.94H19.9493H19.9586H19.9678H19.9771H19.9864H19.9957H20.005H20.0142H20.0235H20.0328H20.0421H20.0513H20.0606H20.0699H20.0792H20.0885H20.0977H20.107H20.1163H20.1256H20.1348H20.1441H20.1534H20.1627H20.1719H20.1812H20.1905H20.1998H20.2091H20.2183H20.2276H20.2369H20.2462H20.2554H20.2647H20.274H20.2833H20.2926H20.3018H20.3111H20.3204H20.3297H20.3389H20.3482H20.3575H20.3668H20.376H20.3853H20.3946H20.4039H20.4132H20.4224H20.4317H20.441H20.4503H20.4595H20.4688H20.4781H20.4874H20.4967H20.5059H20.5152H20.5245H20.5338H20.543H20.5523H20.5616H20.5709H20.5801H20.5894H20.5987H20.608H20.6173H20.6265H20.6358H20.6451H20.6544H20.6636H20.6729H20.6822H20.6915H20.7007H20.71H20.7193H20.7286H20.7379H20.7471H20.7564H20.7657H20.775H20.7842H20.7935H20.8028H20.8121H20.8213H20.8306H20.8399H20.8492H20.8585H20.8677H20.877H20.8863H20.8956H20.9048H20.9141H20.9234H20.9327H20.9419H20.9512H20.9605H20.9698H20.9791H20.9883H20.9976H21.0069H21.0162H21.0254H21.0347H21.044H21.0533H21.0625H21.0718H21.0811H21.0904H21.0996H21.1089H21.1182H21.1275H21.1368H21.146H21.1553H21.1646H21.1739H21.1831H21.1924H21.2017H21.211H21.2202H21.2295H21.2388H21.2481H21.2573H21.2666H21.2759H21.2852H21.2945H21.3037H21.313H21.3223H21.3316H21.3408H21.3501H21.3594H21.3687H21.3779H21.3872H21.3965H21.4058H21.415H21.4243H21.4336H21.4429H21.4522H21.4614H21.4707H21.48H21.4893H21.4985H21.5078H21.5171H21.5264H21.5356H21.5449H21.5542H21.5635H21.5727H21.582H21.5913H21.6006H21.6098H21.6191H21.6284H21.6377H21.6469H21.6562H21.6655H21.6748H21.6841H21.6933H21.7026H21.7119H21.7212H21.7304H21.7397H21.749H21.7583H21.7675H21.7768H21.7861H21.7954H21.8046H21.8139H21.8232H21.8325H21.8417H21.851H21.8603H21.8696H21.8788H21.8881H21.8974H21.9067H21.9159H21.9252H21.9345H21.9438H21.953H21.9623H21.9716H21.9809H21.9902H21.9994H22.0087H22.018H22.0273H22.0365H22.0458H22.0551H22.0644H22.0736H22.0829H22.0922H22.1015H22.1107H22.12H22.1293H22.1386H22.1478H22.1571H22.1664H22.1757H22.1849H22.1942H22.2035H22.2128H22.222H22.2313H22.2406H22.2499H22.2591H22.2684H22.2777H22.287H22.2962H22.3055H22.3148H22.3241H22.3333H22.3426H22.3519H22.3612H22.3704H22.3797H22.389H22.3983H22.4075H22.4168H22.4261H22.4354H22.4446H22.4539H22.4632H22.4725H22.4817H22.491H22.5003H22.5096H22.5188H22.5281H22.5374H22.5467H22.5559H22.5652H22.5745H22.5838H22.593H22.6023H22.6116H22.6209H22.6301H22.6394H22.6487H22.658H22.6672H22.6765H22.6858H22.6951H22.7043H22.7136H22.7229H22.7322C22.751 17.5469 22.7723 17.5485 22.7979 17.5509C22.8018 17.5512 22.8059 17.5516 22.81 17.552C22.8314 17.5539 22.8555 17.5562 22.8788 17.5573C22.9291 17.5597 23.007 17.5596 23.0694 17.5152C23.1294 17.4727 23.2001 17.4176 23.2589 17.3551C23.3153 17.295 23.3729 17.2155 23.3845 17.1237L23.3846 17.1233C23.3907 17.074 23.3773 17.027 23.3605 16.9892C23.3432 16.9503 23.3186 16.9128 23.2918 16.879C23.2386 16.812 23.1681 16.7492 23.1023 16.7097L23.1022 16.7097M12.9281 17.5166L23.1022 16.7097M23.1022 16.7097C23.0312 16.6672 22.9484 16.658 22.879 16.6562C22.8432 16.6553 22.8071 16.6564 22.7739 16.6576C22.7691 16.6577 22.7643 16.6579 22.7597 16.6581C22.7312 16.6591 22.7052 16.6601 22.6802 16.6601C19.5557 16.6588 16.4312 16.6588 13.3067 16.6601L23.1022 16.7097Z" fill="#F6931E" stroke="#F6931E" stroke-width="0.2"/>
<path d="M20.206 19.3759C20.4354 19.3721 20.6198 19.4576 20.6248 19.7041M20.206 19.3759L20.205 19.2759C20.2049 19.2759 20.2048 19.2759 20.2047 19.2759C20.2046 19.2759 20.2045 19.2759 20.2043 19.2759L20.206 19.3759ZM20.206 19.3759C20.168 19.3763 20.13 19.3759 20.0919 19.3756C20.0666 19.3754 20.0413 19.3752 20.0159 19.3752H20.002C17.7686 19.3752 15.5352 19.3752 13.3018 19.3759C13.2813 19.3759 13.2607 19.3757 13.24 19.3754C13.1549 19.3745 13.0694 19.3736 12.9863 19.3879L20.6248 19.7041M20.6248 19.7041C20.6299 19.969 20.443 20.0564 20.1984 20.0558M20.6248 19.7041L20.1984 20.0558M13.1675 20.0482L13.1666 20.1482C13.0837 20.1474 12.9911 20.1296 12.9069 20.0982C12.824 20.0673 12.7396 20.0197 12.6817 19.9524L13.1675 20.0482ZM13.1675 20.0482C14.0456 20.0578 14.9238 20.0568 15.8019 20.0558C16.0745 20.0555 16.347 20.0551 16.6196 20.0551C16.9604 20.0551 17.3012 20.055 17.642 20.0549C18.4941 20.0547 19.3461 20.0544 20.1984 20.0558M13.1675 20.0482C13.0268 20.0469 12.8431 19.9867 12.7575 19.8872L20.1984 20.0558M12.6317 19.5423C12.6914 19.417 12.8143 19.3159 12.9693 19.2894L12.6317 19.5423ZM12.6317 19.5423C12.5712 19.6693 12.5741 19.8273 12.6817 19.9524L12.6317 19.5423ZM20.1984 20.0558L20.1982 20.1558C20.1982 20.1558 20.1982 20.1558 20.1982 20.1558L20.1984 20.0558Z" fill="#F6931E" stroke="#F6931E" stroke-width="0.2"/>
<path d="M4.15888 4.39768C5.93245 4.39578 7.70602 4.39642 9.47959 4.39768M4.15888 4.39768V4.29768L9.47959 4.39768M4.15888 4.39768C3.73877 4.39768 3.64563 4.49463 3.645 4.92551L3.54416 6.8035C3.54426 7.05386 3.54436 7.3042 3.54436 7.5545C3.54436 7.8535 3.54422 8.15255 3.54408 8.45161C3.5438 9.04976 3.54352 9.64792 3.54436 10.2457C3.54467 10.4563 3.56536 10.6281 3.67374 10.7383C3.78269 10.849 3.95336 10.8706 4.16253 10.8709H4.16258C5.93622 10.8728 7.70986 10.8728 9.4835 10.8709C9.69126 10.8709 9.86101 10.8474 9.96993 10.7352C10.0779 10.624 10.0998 10.4523 10.0998 10.2418M4.15888 4.39768L4.15877 4.29768C4.15879 4.29768 4.15881 4.29768 4.15883 4.29768C5.93247 4.29578 7.70609 4.29642 9.47966 4.29768L9.47974 4.29768C9.68841 4.298 9.85871 4.321 9.96824 4.43142C10.0775 4.54162 10.0998 4.7123 10.0998 4.92107M9.47959 4.39768C9.89969 4.39832 9.99981 4.50033 9.99981 4.92107M9.47959 4.39768L9.48339 10.7709C9.90096 10.7709 9.99981 10.6663 9.99981 10.2418M10.0998 4.92107H9.99981M10.0998 4.92107H9.99981M10.0998 4.92107C10.1004 6.69467 10.1004 8.46822 10.0998 10.2418M9.99981 4.92107C10.0004 6.69464 10.0004 8.46821 9.99981 10.2418M10.0998 10.2418L9.99981 10.2418M10.0998 10.2418L9.99981 10.2418M9.18379 5.20293H9.17691H9.16719H9.15748H9.14777H9.13806H9.12835H9.11864H9.10893H9.09922H9.08951H9.07981H9.0701H9.06039H9.05069H9.04098H9.03128H9.02157H9.01187H9.00217H8.99246H8.98276H8.97306H8.96336H8.95366H8.94396H8.93426H8.92456H8.91487H8.90517H8.89547H8.88578H8.87608H8.86638H8.85669H8.847H8.8373H8.82761H8.81792H8.80823H8.79854H8.78885H8.77915H8.76947H8.75978H8.75009H8.7404H8.73071H8.72103H8.71134H8.70165H8.69197H8.68228H8.6726H8.66292H8.65323H8.64355H8.63387H8.62419H8.6145H8.60482H8.59514H8.58546H8.57578H8.56611H8.55643H8.54675H8.53707H8.5274H8.51772H8.50804H8.49837H8.48869H8.47902H8.46935H8.45967H8.45H8.44033H8.43066H8.42098H8.41131H8.40164H8.39197H8.3823H8.37263H8.36297H8.3533H8.34363H8.33396H8.3243H8.31463H8.30497H8.2953H8.28563H8.27597H8.26631H8.25664H8.24698H8.23732H8.22765H8.21799H8.20833H8.19867H8.18901H8.17935H8.16969H8.16003H8.15037H8.14072H8.13106H8.1214H8.11174H8.10209H8.09243H8.08277H8.07312H8.06346H8.05381H8.04416H8.0345H8.02485H8.0152H8.00554H7.99589H7.98624H7.97659H7.96694H7.95729H7.94764H7.93799H7.92834H7.91869H7.90904H7.89939H7.88975H7.8801H7.87045H7.8608H7.85116H7.84151H7.83187H7.82222H7.81258H7.80293H7.79329H7.78365H7.774H7.76436H7.75472H7.74507H7.73543H7.72579H7.71615H7.70651H7.69687H7.68723H7.67759H7.66795H7.65831H7.64867H7.63903H7.6294H7.61976H7.61012H7.60048H7.59085H7.58121H7.57158H7.56194H7.5523H7.54267H7.53304H7.5234H7.51377H7.50413H7.4945H7.48487H7.47523H7.4656H7.45597H7.44634H7.43671H7.42707H7.41744H7.40781H7.39818H7.38855H7.37892H7.36929H7.35966H7.35004H7.34041H7.33078H7.32115H7.31152H7.3019H7.29227H7.28264H7.27302H7.26339H7.25376H7.24414H7.23451H7.22489H7.21526H7.20564H7.19601H7.18639H7.17676H7.16714H7.15752H7.14789H7.13827H7.12865H7.11903H7.1094H7.09978H7.09016H7.08054H7.07092H7.0613H7.05168H7.04206H7.03244H7.02282H7.0132H7.00358H6.99396H6.98434H6.97472H6.9651H6.95548H6.94587H6.93625H6.92663H6.91701H6.90739H6.89778H6.88816H6.87854H6.86893H6.85931H6.8497H6.84008H6.83046H6.82085H6.81123H6.80162H6.792H6.78239H6.77277H6.76316H6.75355H6.74393H6.73432H6.72471H6.71509H6.70548H6.69587H6.68625H6.67664H6.66703H6.65742H6.6478H6.63819H6.62858H6.61897H6.60936H6.59975H6.59013H6.58052H6.57091H6.5613H6.55169H6.54208H6.53247H6.52286H6.51325H6.50364H6.49403H6.48442H6.47481H6.4652H6.45559H6.44599H6.43638H6.42677H6.41716H6.40755H6.39794H6.38833H6.37873H6.36912H6.35951H6.3499H6.3403H6.33069H6.32108H6.31147H6.30187H6.29226H6.28265H6.27305H6.26344H6.25383H6.24423H6.23462H6.22501H6.21541H6.2058H6.19619H6.18659H6.17698H6.16738H6.15777H6.14817H6.13856H6.12895H6.11935H6.10974H6.10014H6.09053H6.08093H6.07132H6.06172H6.05211H6.04251H6.0329H6.0233H6.0137H6.00409H5.99449H5.98488H5.97528H5.96567H5.95607H5.94646H5.93686H5.92726H5.91765H5.90805H5.89844H5.88884H5.87924H5.86963H5.86003H5.85042H5.84082H5.83122H5.82161H5.81201H5.8024H5.7928H5.7832H5.77359H5.76399H5.75439H5.74478H5.73518H5.72557H5.71597H5.70637H5.69676H5.68716H5.67756H5.66795H5.65835H5.64875H5.63914H5.62954H5.61993H5.61033H5.60073H5.59112H5.58152H5.57192H5.56231H5.55271H5.5431H5.5335H5.5239H5.51429H5.50469H5.49509H5.48548H5.47588H5.46627H5.45667H5.44706H5.43746H5.42786H5.41825H5.40865H5.39904H5.38944H5.37983H5.37023H5.36063H5.35102H5.34142H5.33181H5.32221H5.3126H5.303H5.29339H5.28379H5.27418H5.26458H5.25497H5.24537H5.23576H5.22615H5.21655H5.20694H5.19734H5.18773H5.17813H5.16852H5.15891H5.14931H5.1397H5.1301H5.12049H5.11088H5.10128H5.09167H5.08206H5.07245H5.06285H5.05324H5.04363H5.03403H5.02442H5.01481H5.0052H4.99559H4.98599H4.97638H4.96677H4.95716H4.94755H4.93794H4.92834H4.91873H4.90912H4.89951H4.8899H4.88029H4.87068H4.86107H4.85146H4.84185H4.83224H4.82263H4.81302H4.80341H4.7938H4.78419H4.77458H4.76497H4.75535H4.74574H4.73613H4.72652H4.71691H4.70729H4.69768H4.68807H4.67846H4.66884H4.65923H4.64962H4.64H4.63039H4.62078H4.61116H4.60155H4.59193H4.58232H4.5727H4.56309H4.55347H4.54386H4.53424H4.52463H4.51501H4.5054H4.49578H4.48616H4.47655H4.46693H4.45731H4.45151V5.21024V5.21999V5.22974V5.23949V5.24924V5.259V5.26875V5.2785V5.28825V5.298V5.30775V5.3175V5.32724V5.33699V5.34674V5.35649V5.36624V5.37598V5.38573V5.39548V5.40522V5.41497V5.42471V5.43446V5.4442V5.45395V5.46369V5.47343V5.48318V5.49292V5.50266V5.51241V5.52215V5.53189V5.54163V5.55137V5.56111V5.57085V5.58059V5.59033V5.60007V5.60981V5.61955V5.62928V5.63902V5.64876V5.6585V5.66823V5.67797V5.6877V5.69744V5.70718V5.71691V5.72665V5.73638V5.74611V5.75585V5.76558V5.77531V5.78505V5.79478V5.80451V5.81424V5.82397V5.8337V5.84344V5.85317V5.8629V5.87263V5.88236V5.89208V5.90181V5.91154V5.92127V5.931V5.94073V5.95045V5.96018V5.96991V5.97963V5.98936V5.99908V6.00881V6.01854V6.02826V6.03798V6.04771V6.05743V6.06716V6.07688V6.0866V6.09632V6.10605V6.11577V6.12549V6.13521V6.14493V6.15465V6.16437V6.1741V6.18382V6.19353V6.20325V6.21297V6.22269V6.23241V6.24213V6.25185V6.26156V6.27128V6.281V6.29072V6.30043V6.31015V6.31986V6.32958V6.33929V6.34901V6.35872V6.36844V6.37815V6.38787V6.39758V6.40729V6.41701V6.42672V6.43643V6.44614V6.45586V6.46557V6.47528V6.48499V6.4947V6.50441V6.51412V6.52383V6.53354V6.54325V6.55296V6.56267V6.57238V6.58209V6.5918V6.6015V6.61121V6.62092V6.63063V6.64033V6.65004V6.65975V6.66945V6.67916V6.68886V6.69857V6.70827V6.71798V6.72768V6.73739V6.74709V6.75679V6.7665V6.7762V6.7859V6.79561V6.80531V6.81501V6.82471V6.83442V6.84412V6.85382V6.86352V6.87322V6.88292V6.89262V6.90232V6.91202V6.92172V6.93142V6.94112V6.95082V6.96052V6.97022V6.97991V6.98961V6.99931V7.00901V7.0187V7.0284V7.0381V7.04779V7.05749V7.06719V7.07688V7.08658V7.09627V7.10597V7.11566V7.12536V7.13505V7.14475V7.15444V7.16414V7.17383V7.18352V7.19322V7.20291V7.2126V7.22229V7.23199V7.24168V7.25137V7.26106V7.27075V7.28044V7.29014V7.29983V7.30952V7.31921V7.3289V7.33859V7.34828V7.35797V7.36766V7.37735V7.38703V7.39672V7.40641V7.4161V7.42579V7.43548V7.44516V7.45485V7.46454V7.47423V7.48391V7.4936V7.50329V7.51297V7.52266V7.53234V7.54203V7.55172V7.5614V7.57109V7.58077V7.59046V7.60014V7.60983V7.61951V7.62919V7.63888V7.64856V7.65825V7.66793V7.67761V7.68729V7.69698V7.70666V7.71634V7.72602V7.73571V7.74539V7.75507V7.76475V7.77443V7.78411V7.7938V7.80348V7.81316V7.82284V7.83252V7.8422V7.85188V7.86156V7.87124V7.88092V7.8906V7.90028V7.90995V7.91963V7.92931V7.93899V7.94867V7.95835V7.96802V7.9777V7.98738V7.99706V8.00674V8.01641V8.02609V8.03577V8.04544V8.05512V8.0648V8.07447V8.08415V8.09382V8.1035V8.11318V8.12285V8.13253V8.1422V8.15188V8.16155V8.17123V8.1809V8.19058V8.20025V8.20993V8.2196V8.22927V8.23895V8.24862V8.25829V8.26797V8.27764V8.28731V8.29699V8.30666V8.31633V8.32601V8.33568V8.34535V8.35502V8.36469V8.37437V8.38404V8.39371V8.40338V8.41305V8.42272V8.43239V8.44207V8.45174V8.46141V8.47108V8.48075V8.49042V8.50009V8.50976V8.51943V8.5291V8.53877V8.54844V8.55811V8.56778V8.57745V8.58712V8.59679V8.60646V8.61612V8.62579V8.63546V8.64513V8.6548V8.66447V8.67414V8.6838V8.69347V8.70314V8.71281V8.72248V8.73214V8.74181V8.75148V8.76115V8.77081V8.78048V8.79015V8.79981V8.80948V8.81915V8.82881V8.83848V8.84815V8.85781V8.86748V8.87715V8.88681V8.89648V8.90614V8.91581V8.92548V8.93514V8.94481V8.95447V8.96414V8.9738V8.98347V8.99313V9.0028V9.01246V9.02213V9.03179V9.04146V9.05112V9.06079V9.07045V9.08012V9.08978V9.09945V9.10911V9.11877V9.12844V9.1381V9.14777V9.15743V9.16709V9.17676V9.18642V9.19608V9.20575V9.21541V9.22508V9.23474V9.2444V9.25407V9.26373V9.27339V9.28305V9.29272V9.30238V9.31204V9.32171V9.33137V9.34103V9.35069V9.36036V9.37002V9.37968V9.38934V9.39901V9.40867V9.41833V9.42799V9.43766V9.44732V9.45698V9.46664V9.4763V9.48597V9.49563V9.50529V9.51495V9.52461V9.53427V9.54394V9.5536V9.56326V9.57292V9.58258V9.59224V9.60191V9.61157V9.62123V9.63089V9.64055V9.65021V9.65987V9.66953V9.6792V9.68886V9.69852V9.70818V9.71784V9.7275V9.73716V9.74682V9.75648V9.76615V9.77581V9.78547V9.79513V9.80479V9.81445V9.82411V9.83377V9.84343V9.85309V9.86275V9.87241V9.88208V9.89174V9.9014V9.91106V9.92072V9.93038V9.94004V9.9497V9.95936V9.96563L9.18379 5.20293ZM9.18379 5.20293V5.20916V5.21881V5.22847V5.23813V5.24778V5.25744V5.2671V5.27676V5.28641V5.29607V5.30573V5.31539V5.32504V5.3347V5.34436V5.35402V5.36367V5.37333V5.38299V5.39265V5.4023V5.41196V5.42162V5.43128V5.44093V5.45059V5.46025V5.46991V5.47957V5.48922V5.49888V5.50854V5.5182V5.52786V5.53751V5.54717V5.55683V5.56649V5.57615V5.58581V5.59547V5.60512V5.61478V5.62444V5.6341V5.64376V5.65342V5.66308V5.67274V5.68239V5.69205V5.70171V5.71137V5.72103V5.73069V5.74035V5.75001V5.75967V5.76933V5.77899V5.78865V5.79831V5.80797V5.81763V5.82729V5.83695V5.84661V5.85627V5.86593V5.87559V5.88525V5.89491V5.90457V5.91423V5.92389V5.93355V5.94321V5.95287V5.96254V5.9722V5.98186V5.99152V6.00118V6.01084V6.0205V6.03017V6.03983V6.04949V6.05915V6.06881V6.07847V6.08814V6.0978V6.10746V6.11712V6.12679V6.13645V6.14611V6.15577V6.16544V6.1751V6.18476V6.19443V6.20409V6.21375V6.22342V6.23308V6.24274V6.25241V6.26207V6.27174V6.2814V6.29106V6.30073V6.31039V6.32006V6.32972V6.33939V6.34905V6.35872V6.36838V6.37805V6.38771V6.39738V6.40704V6.41671V6.42637V6.43604V6.44571V6.45537V6.46504V6.4747V6.48437V6.49404V6.5037V6.51337V6.52304V6.5327V6.54237V6.55204V6.56171V6.57137V6.58104V6.59071V6.60038V6.61005V6.61971V6.62938V6.63905V6.64872V6.65839V6.66806V6.67773V6.68739V6.69706V6.70673V6.7164V6.72607V6.73574V6.74541V6.75508V6.76475V6.77442V6.78409V6.79376V6.80343V6.8131V6.82278V6.83245V6.84212V6.85179V6.86146V6.87113V6.88081V6.89048V6.90015V6.90982V6.91949V6.92917V6.93884V6.94851V6.95819V6.96786V6.97753V6.98721V6.99688V7.00655V7.01623V7.0259V7.03558V7.04525V7.05493V7.0646V7.07428V7.08395V7.09363V7.1033V7.11298V7.12265V7.13233V7.14201V7.15168V7.16136V7.17104V7.18071V7.19039V7.20007V7.20975V7.21942V7.2291V7.23878V7.24846V7.25814V7.26781V7.27749V7.28717V7.29685V7.30653V7.31621V7.32589V7.33557V7.34525V7.35493V7.36461V7.37429V7.38397V7.39365V7.40333V7.41301V7.4227V7.43238V7.44206V7.45174V7.46142V7.47111V7.48079V7.49047V7.50015V7.50984V7.51952V7.5292V7.53889V7.54857V7.55826V7.56794V7.57763V7.58731V7.597V7.60668V7.61637V7.62605V7.63574V7.64542V7.65511V7.6648V7.67448V7.68417V7.69386V7.70354V7.71323V7.72292V7.73261V7.7423V7.75198V7.76167V7.77136V7.78105V7.79074V7.80043V7.81012V7.81981V7.8295V7.83919V7.84888V7.85857V7.86826V7.87795V7.88764V7.89734V7.90703V7.91672V7.92641V7.93611V7.9458V7.95549V7.96518V7.97488V7.98457V7.99427V8.00396V8.01365V8.02335V8.03304V8.04274V8.05243V8.06213V8.07183V8.08152V8.09122V8.10092V8.11061V8.12031V8.13001V8.1397V8.1494V8.1591V8.1688V8.1785V8.1882V8.1979V8.2076V8.21729V8.22699V8.23669V8.2464V8.2561V8.2658V8.2755V8.2852V8.2949V8.3046V8.3143V8.32401V8.33371V8.34341V8.35312V8.36282V8.37252V8.38223V8.39193V8.40164V8.41134V8.42105V8.43075V8.44046V8.45016V8.45987V8.46957V8.47928V8.48899V8.4987V8.5084V8.51811V8.52782V8.53753V8.54724V8.55694V8.56665V8.57636V8.58607V8.59578V8.60549V8.6152V8.62491V8.63463V8.64434V8.65405V8.66376V8.67347V8.68319V8.6929V8.70261V8.71232V8.72204V8.73175V8.74147V8.75118V8.7609V8.77061V8.78033V8.79004V8.79976V8.80947V8.81919V8.82891V8.83862V8.84834V8.85806V8.86778V8.8775V8.88722V8.89693V8.90665V8.91637V8.92609V8.93581V8.94553V8.95526V8.96498V8.9747V8.98442V8.99414V9.00386V9.01359V9.02331V9.03303V9.04276V9.05248V9.0622V9.07193V9.08165V9.09138V9.1011V9.11083V9.12056V9.13028V9.14001V9.14974V9.15946V9.16919V9.17892V9.18865V9.19838V9.20811V9.21784V9.22757V9.2373V9.24703V9.25676V9.26649V9.27622V9.28595V9.29568V9.30542V9.31515V9.32488V9.33461V9.34435V9.35408V9.36382V9.37355V9.38329V9.39302V9.40276V9.41249V9.42223V9.43197V9.4417V9.45144V9.46118V9.47092V9.48066V9.49039V9.50013V9.50987V9.51961V9.52935V9.53909V9.54883V9.55858V9.56832V9.57806V9.5878V9.59755V9.60729V9.61703V9.62678V9.63652V9.64626V9.65601V9.66575V9.6755V9.68525V9.69499V9.70474V9.71449V9.72423V9.73398V9.74373V9.75348V9.76323V9.77298V9.78272V9.79248V9.80223V9.81198V9.82173V9.83148V9.84123V9.85098V9.86074V9.87049V9.88024V9.89V9.89975V9.9095V9.91926V9.92901V9.93877V9.94853V9.95828V9.96563M9.18379 5.20293V9.96563M9.18379 9.96563H9.17814H9.16854H9.15894H9.14934H9.13973H9.13013H9.12053H9.11092H9.10132H9.09172H9.08212H9.07252H9.06291H9.05331H9.04371H9.03411H9.02451H9.0149H9.0053H8.9957H8.9861H8.9765H8.9669H8.9573H8.9477H8.9381H8.9285H8.9189H8.9093H8.89969H8.89009H8.88049H8.87089H8.86129H8.85169H8.84209H8.83249H8.82289H8.8133H8.8037H8.7941H8.7845H8.7749H8.7653H8.7557H8.7461H8.7365H8.7269H8.7173H8.7077H8.6981H8.68851H8.67891H8.66931H8.65971H8.65011H8.64051H8.63091H8.62132H8.61172H8.60212H8.59252H8.58292H8.57332H8.56373H8.55413H8.54453H8.53493H8.52533H8.51573H8.50614H8.49654H8.48694H8.47734H8.46774H8.45815H8.44855H8.43895H8.42935H8.41975H8.41016H8.40056H8.39096H8.38136H8.37177H8.36217H8.35257H8.34297H8.33337H8.32378H8.31418H8.30458H8.29498H8.28538H8.27579H8.26619H8.25659H8.24699H8.23739H8.2278H8.2182H8.2086H8.199H8.1894H8.17981H8.17021H8.16061H8.15101H8.14141H8.13181H8.12222H8.11262H8.10302H8.09342H8.08382H8.07422H8.06463H8.05503H8.04543H8.03583H8.02623H8.01663H8.00703H7.99743H7.98783H7.97824H7.96864H7.95904H7.94944H7.93984H7.93024H7.92064H7.91104H7.90144H7.89184H7.88224H7.87264H7.86304H7.85344H7.84384H7.83424H7.82464H7.81504H7.80544H7.79584H7.78624H7.77664H7.76704H7.75744H7.74784H7.73824H7.72864H7.71904H7.70943H7.69983H7.69023H7.68063H7.67103H7.66143H7.65182H7.64222H7.63262H7.62302H7.61342H7.60381H7.59421H7.58461H7.575H7.5654H7.5558H7.5462H7.53659H7.52699H7.51739H7.50778H7.49818H7.48857H7.47897H7.46937H7.45976H7.45016H7.44055H7.43095H7.42134H7.41174H7.40213H7.39253H7.38292H7.37332H7.36371H7.3541H7.3445H7.33489H7.32528H7.31568H7.30607H7.29646H7.28686H7.27725H7.26764H7.25803H7.24843H7.23882H7.22921H7.2196H7.20999H7.20039H7.19078H7.18117H7.17156H7.16195H7.15234H7.14273H7.13312H7.12351H7.1139H7.10429H7.09468H7.08507H7.07546H7.06584H7.05623H7.04662H7.03701H7.0274H7.01778H7.00817H6.99856H6.98895H6.97933H6.96972H6.96011H6.95049H6.94088H6.93126H6.92165H6.91203H6.90242H6.8928H6.88319H6.87357H6.86396H6.85434H6.84472H6.83511H6.82549H6.81587H6.80626H6.79664H6.78702H6.7774H6.76778H6.75817H6.74855H6.73893H6.72931H6.71969H6.71007H6.70045H6.69083H6.68121H6.67159H6.66197H6.65235H6.64272H6.6331H6.62348H6.61386H6.60423H6.59461H6.58499H6.57536H6.56574H6.55612H6.54649H6.53687H6.52724H6.51762H6.50799H6.49837H6.48874H6.47911H6.46949H6.45986H6.45023H6.4406H6.43098H6.42135H6.41172H6.40209H6.39246H6.38283H6.3732H6.36357H6.35394H6.34431H6.33468H6.32505H6.31542H6.30579H6.29615H6.28652H6.27689H6.26726H6.25762H6.24799H6.23835H6.22872H6.21908H6.20945H6.19981H6.19018H6.18054H6.17091H6.16127H6.15163H6.14199H6.13236H6.12272H6.11308H6.10344H6.0938H6.08416H6.07452H6.06488H6.05524H6.0456H6.03596H6.02632H6.01667H6.00703H5.99739H5.98774H5.9781H5.96846H5.95881H5.94917H5.93952H5.92988H5.92023H5.91058H5.90094H5.89129H5.88164H5.872H5.86235H5.8527H5.84305H5.8334H5.82375H5.8141H5.80445H5.7948H5.78515H5.7755H5.76584H5.75619H5.74654H5.73689H5.72723H5.71758H5.70792H5.69827H5.68861H5.67896H5.6693H5.65964H5.64999H5.64033H5.63067H5.62101H5.61135H5.60169H5.59203H5.58237H5.57271H5.56305H5.55339H5.54373H5.53407H5.5244H5.51474H5.50508H5.49541H5.48575H5.47608H5.46642H5.45675H5.44709H5.43742H5.42775H5.41808H5.40842H5.39875H5.38908H5.37941H5.36974H5.36007H5.3504H5.34073H5.33105H5.32138H5.31171H5.30204H5.29236H5.28269H5.27301H9.18379Z" fill="#F6931E" stroke="#F6931E" stroke-width="0.2"/>
<path d="M12.8959 5.15028L12.8955 5.15003C12.8375 5.10828 12.772 5.05387 12.718 4.99216C12.6657 4.93241 12.6147 4.85524 12.6032 4.76824L12.8959 5.15028ZM12.8959 5.15028C12.9572 5.194 13.0337 5.19593 13.0846 5.19447C13.1095 5.19376 13.1351 5.19178 13.1578 5.19002C13.1604 5.18981 13.1631 5.18961 13.1657 5.18941C13.1915 5.18743 13.2133 5.18596 13.2327 5.18596M12.8959 5.15028L13.2327 5.08596M12.8516 4.36051L12.8517 4.36045C12.9205 4.31759 13.0012 4.30442 13.071 4.29978C13.1208 4.29648 13.175 4.29726 13.2222 4.29795C13.2402 4.29821 13.2573 4.29846 13.2727 4.29846C16.4185 4.29655 19.5638 4.29655 22.7097 4.29655H22.7101C22.7254 4.29655 22.7401 4.29663 22.7544 4.2967C22.7818 4.29684 22.808 4.29697 22.8354 4.29657L22.8358 4.29656C22.9643 4.29524 23.104 4.31061 23.2135 4.378C23.3325 4.45124 23.3998 4.57546 23.3975 4.75017C23.3964 4.83512 23.3795 4.90948 23.3451 4.97232C23.3104 5.03584 23.2609 5.08205 23.2034 5.11449C23.0932 5.17677 22.9538 5.18818 22.8277 5.18786M12.8516 4.36051L22.828 5.08786M12.8516 4.36051C12.7881 4.40013 12.7249 4.46401 12.679 4.53075M12.8516 4.36051L12.679 4.53075M22.8277 5.18786L22.828 5.08786M22.8277 5.18786C22.8278 5.18786 22.8278 5.18786 22.8278 5.18786L22.828 5.08786M22.8277 5.18786C21.6615 5.18556 20.4947 5.18593 19.3277 5.18631C18.8901 5.18645 18.4525 5.18659 18.0148 5.18659H18.0139C16.42 5.18659 14.8267 5.18659 13.2327 5.18596M22.828 5.08786C21.6616 5.08556 20.4946 5.08593 19.3276 5.08631C18.89 5.08645 18.4524 5.08659 18.0148 5.08659H18.0139C16.42 5.08659 14.8267 5.08659 13.2327 5.08596M13.2327 5.18596V5.08596M13.2327 5.18596C13.2327 5.18596 13.2327 5.18596 13.2327 5.18596L13.2327 5.08596M12.679 4.53075C12.6362 4.59291 12.5918 4.68151 12.6032 4.7682L12.679 4.53075Z" fill="#F6931E" stroke="#F6931E" stroke-width="0.2"/>
<path d="M12.691 10.4287C12.6898 10.1417 12.8989 10.079 13.1517 10.0821H16.5727C16.8167 10.079 17.0093 10.1537 17.015 10.4173C17.0207 10.6828 16.823 10.7715 16.5848 10.7722C15.7628 10.7735 14.9408 10.7733 14.1188 10.773C13.7901 10.7729 13.4614 10.7728 13.1327 10.7728C12.8963 10.7728 12.6929 10.6949 12.691 10.4287ZM16.5715 9.98215C16.1617 9.98716 15.7526 9.98627 15.3424 9.98537C15.1826 9.98503 15.0227 9.98468 14.8625 9.98468C14.6993 9.98468 14.5362 9.98509 14.3732 9.98551C13.9663 9.98654 13.56 9.98757 13.153 9.98215L13.153 9.98215C13.0221 9.98051 12.8827 9.99482 12.7739 10.0613C12.6553 10.1338 12.5903 10.2571 12.591 10.4292L12.591 10.4295C12.5922 10.5923 12.6576 10.7112 12.7692 10.7843C12.8737 10.8526 13.0066 10.8728 13.1327 10.8728C13.4613 10.8728 13.79 10.8729 14.1187 10.873C14.9407 10.8733 15.7628 10.8735 16.585 10.8722L16.5851 10.8722C16.7136 10.8718 16.8465 10.8482 16.9491 10.7758C17.0581 10.6988 17.1185 10.5768 17.115 10.4152L17.115 10.4152C17.1116 10.2555 17.0489 10.1376 16.9375 10.0657C16.8335 9.99859 16.7007 9.98048 16.5715 9.98215Z" fill="#F6931E" stroke="#F6931E" stroke-width="0.2"/>
<path d="M17.0989 7.36428L17.0989 7.36431C17.0951 7.51236 17.0406 7.62779 16.9382 7.70185C16.841 7.77213 16.715 7.7945 16.5872 7.79312L16.5883 7.69313L16.5874 7.79313C16.1817 7.78958 15.7763 7.79038 15.3702 7.79118C15.196 7.79152 15.0216 7.79186 14.8471 7.79186C14.6792 7.79186 14.5114 7.79159 14.3437 7.79131C13.9416 7.79066 13.5399 7.79 13.1383 7.79313L17.0989 7.36428ZM17.0989 7.36428C17.1027 7.2135 17.0505 7.09346 16.9509 7.01397M17.0989 7.36428L16.9509 7.01397M16.9509 7.01397C16.8555 6.93782 16.7295 6.90916 16.6026 6.9088L16.9509 7.01397ZM12.6117 7.3473L12.6117 7.34734L16.6025 6.9088C15.4415 6.90499 14.2805 6.90499 13.1195 6.90816L13.1195 6.90816C12.9994 6.90851 12.8736 6.92998 12.7752 6.99967C12.6708 7.07366 12.6124 7.19101 12.6117 7.3473Z" fill="#F6931E" stroke="#F6931E" stroke-width="0.2"/>
</svg>
