<svg width="28" height="30" viewBox="0 0 28 30" fill="none" xmlns="http://www.w3.org/2000/svg">
<path d="M8.58007 25.7739C8.46682 25.7739 8.34553 25.7739 8.2249 25.7739C6.35993 25.7739 4.49428 25.772 2.6293 25.7746C1.70787 25.7759 0.996861 25.4074 0.592771 24.5902C0.190022 23.7757 0.336781 23.0138 0.887629 22.2859C1.5457 21.4162 2.16155 20.5157 2.78544 19.6217C3.04478 19.2505 3.14061 18.8281 3.13927 18.3775C3.13525 15.9471 3.087 13.5154 3.14865 11.0869C3.26258 6.60898 5.3936 3.33184 9.54305 1.45844C15.6124 -1.28204 22.8613 2.30777 24.3 8.71032C24.481 9.51565 24.5594 10.3564 24.5714 11.1821C24.6069 13.5574 24.5895 15.9333 24.5795 18.3092C24.5775 18.8682 24.7323 19.3596 25.0613 19.8128C25.6966 20.6858 26.3238 21.564 26.9471 22.4449C27.4342 23.134 27.4986 23.8743 27.1166 24.6191C26.7339 25.366 26.0826 25.7634 25.2295 25.77C23.3196 25.7851 21.4097 25.7752 19.4999 25.7752C19.3786 25.7752 19.2573 25.7752 19.1226 25.7752C18.7996 27.1494 18.0785 28.2497 16.9118 29.0458C15.979 29.6823 14.9363 29.9852 13.795 29.9838C11.9006 29.9806 9.36279 28.8133 8.58007 25.7739ZM25.1772 23.6549C24.5225 22.73 23.9046 21.8465 23.2754 20.9709C22.7038 20.1754 22.431 19.2978 22.4344 18.3237C22.4438 15.9589 22.4458 13.5942 22.431 11.2294C22.4277 10.6737 22.3841 10.1127 22.2943 9.56426C21.5726 5.16846 17.0425 1.9951 12.5801 2.7446C8.23093 3.47438 5.28705 6.89407 5.28503 11.2209C5.28369 13.2132 5.20797 15.2094 5.30782 17.1971C5.39762 18.9865 4.96538 20.538 3.79131 21.9135C3.33763 22.4449 2.97442 23.0499 2.54688 23.6542C10.1046 23.6549 17.6141 23.6549 25.1772 23.6549ZM10.8753 25.7812C11.2325 27.0312 12.625 27.9403 14.0403 27.8687C15.3189 27.8043 16.6491 26.8111 16.8301 25.7812C14.8532 25.7812 12.8776 25.7812 10.8753 25.7812Z" fill="#F6931E"/>
</svg>
