<svg width="30" height="34" viewBox="0 0 30 34" fill="none" xmlns="http://www.w3.org/2000/svg">
<path d="M5.86663 33.6257C4.93329 33.6257 4.13885 33.2979 3.48329 32.6423C2.82774 31.9868 2.49996 31.193 2.49996 30.2611V4.45898H0.416626V2.37565H8.74996V0.771484H21.25V2.37565H29.5833V4.45898H27.5V30.2611C27.5 31.2194 27.1791 32.0201 26.5375 32.6632C25.8958 33.3062 25.0944 33.627 24.1333 33.6257H5.86663ZM25.4166 4.45898H4.58329V30.2611C4.58329 30.6347 4.70343 30.9416 4.94371 31.1819C5.18399 31.4222 5.49163 31.5423 5.86663 31.5423H24.1354C24.4548 31.5423 24.7486 31.409 25.0166 31.1423C25.2847 30.8757 25.418 30.5812 25.4166 30.259V4.45898ZM10.4333 27.3757H12.5166V8.62565H10.4333V27.3757ZM17.4833 27.3757H19.5666V8.62565H17.4833V27.3757Z" fill="#F53535"/>
</svg>
