<svg width="28" height="31" viewBox="0 0 28 31" fill="none" xmlns="http://www.w3.org/2000/svg">
<path d="M13.863 23.1502C12.4862 23.1502 11.1094 23.1519 9.73321 23.1496C8.27035 23.1473 7.26029 22.1447 7.25685 20.6853C7.25283 18.9263 7.25743 17.1673 7.25513 15.4083C7.25398 14.4907 7.64308 13.7865 8.42129 13.3096C8.57911 13.2132 8.59059 13.1047 8.58599 12.9578C8.55959 12.1096 8.65371 11.282 8.97682 10.4866C9.84857 8.34139 12.1246 6.94969 14.3462 7.21368C16.8174 7.50752 18.717 9.28946 19.0682 11.6671C19.1319 12.0993 19.1061 12.5446 19.144 12.9819C19.1531 13.0921 19.2197 13.2379 19.3069 13.2953C20.0817 13.802 20.4708 14.5062 20.4685 15.4342C20.4639 17.1834 20.4702 18.9332 20.4662 20.6824C20.4628 22.1447 19.4556 23.1468 17.9927 23.1491C16.6159 23.1519 15.2392 23.1502 13.863 23.1502ZM13.875 14.7036C12.4977 14.7036 11.1203 14.7019 9.74297 14.7042C9.20006 14.7053 8.97854 14.9291 8.97797 15.4738C8.97624 17.1955 8.97682 18.9171 8.97797 20.6388C8.97854 21.1955 9.20638 21.4256 9.75846 21.4256C12.4942 21.4268 15.2294 21.4268 17.9652 21.4256C18.5155 21.4256 18.7445 21.1938 18.7451 20.6377C18.7462 18.9257 18.7462 17.2132 18.7451 15.5013C18.7445 14.9194 18.531 14.7042 17.9497 14.7036C16.5913 14.7025 15.2334 14.7036 13.875 14.7036ZM17.4091 12.9624C17.4911 11.398 16.9586 10.1595 15.5996 9.3876C14.3422 8.6731 13.0572 8.73508 11.8624 9.55001C10.6773 10.3586 10.2227 11.534 10.3192 12.963C12.6848 12.9624 15.032 12.9624 17.4091 12.9624Z" fill="#F6931E"/>
<path d="M18.2288 28.3664C18.436 28.4967 18.5944 28.5862 18.7419 28.6907C19.1304 28.9655 19.2349 29.4683 18.9915 29.8585C18.7545 30.2385 18.2621 30.3877 17.8615 30.1564C17.0753 29.7024 16.2988 29.2324 15.5292 28.7503C15.151 28.5133 15.0334 28.0295 15.248 27.6353C15.6733 26.8553 16.1089 26.0806 16.5548 25.3121C16.8044 24.8817 17.3106 24.7537 17.7227 24.9879C18.1295 25.2197 18.269 25.7167 18.0463 26.1592C17.9666 26.317 17.877 26.4697 17.7921 26.6252C17.8099 26.6505 17.8283 26.6751 17.846 26.7004C18.4268 26.422 19.0311 26.1839 19.5849 25.8596C23.1603 23.7678 25.2034 20.6567 25.5707 16.5281C26.1073 10.4941 21.9081 5.05131 15.9596 3.97755C15.3938 3.87539 15.0661 3.45301 15.1631 2.95142C15.2601 2.45041 15.7054 2.15945 16.2454 2.27537C21.6223 3.43005 25.2229 6.60484 26.8097 11.8709C28.823 18.5539 25.177 25.7357 18.6432 28.2046C18.5221 28.2499 18.4016 28.2987 18.2288 28.3664Z" fill="#F6931E"/>
<path d="M9.50333 2.78031C9.30476 2.65922 9.15784 2.57486 9.01666 2.48189C8.60346 2.21044 8.47835 1.70713 8.71939 1.30368C8.961 0.899658 9.46947 0.757332 9.89415 1.00583C10.6609 1.45462 11.4213 1.91431 12.1748 2.3849C12.5668 2.62938 12.6913 3.11145 12.4686 3.51949C12.0434 4.29942 11.6084 5.07418 11.1607 5.8409C10.9117 6.26788 10.398 6.39127 9.99056 6.15425C9.59515 5.92412 9.45397 5.43573 9.66459 5.00646C9.74379 4.84462 9.83676 4.68909 9.96244 4.45953C9.79142 4.52094 9.68066 4.55365 9.57449 4.59899C5.17041 6.49629 2.61543 9.81628 2.15918 14.5934C1.59676 20.4787 5.56411 25.7981 11.3369 27.0883C11.5137 27.1278 11.6945 27.1508 11.8706 27.1938C12.3728 27.3161 12.654 27.7442 12.5524 28.2205C12.452 28.6917 12.0135 28.9913 11.5079 28.8736C10.7653 28.7015 10.0078 28.55 9.30017 28.2774C4.73138 26.5166 1.81542 23.2546 0.703207 18.4821C-0.817617 11.9575 2.90352 5.18953 9.19687 2.89624C9.27664 2.86697 9.35583 2.83598 9.50333 2.78031Z" fill="#F6931E"/>
<path d="M13.0009 18.0671C13.0009 17.857 12.9917 17.647 13.0027 17.4375C13.0268 16.9698 13.4038 16.6099 13.8589 16.6094C14.3152 16.6088 14.6991 16.9658 14.7163 17.4346C14.7318 17.8536 14.7318 18.2742 14.7163 18.6932C14.6997 19.158 14.31 19.5248 13.8612 19.5259C13.413 19.5271 13.0273 19.1592 13.0027 18.6961C12.9917 18.4872 13.0015 18.2765 13.0009 18.0671Z" fill="#F6931E"/>
</svg>
