<svg width="30" height="31" viewBox="0 0 30 31" fill="none" xmlns="http://www.w3.org/2000/svg">
<path d="M26.7159 8.34828C26.7159 10.1456 26.7159 11.9191 26.7159 13.6932C26.7159 14.0798 26.7171 14.4664 26.7159 14.853C26.7135 15.5554 26.3371 15.9289 25.6258 15.9289C22.5331 15.9301 19.4398 15.9295 16.3472 15.9295C16.2288 15.9295 16.1105 15.9295 15.9677 15.9295C15.9677 17.8321 15.9677 19.7192 15.9677 21.6319C16.0331 21.6539 16.114 21.6848 16.1967 21.7086C18.1278 22.27 19.4535 24.2535 19.1954 26.1959C18.9075 28.3626 17.2339 29.9333 15.1666 29.9779C13.013 30.0243 11.2157 28.588 10.8476 26.5266C10.4652 24.3849 11.7373 22.3247 13.8261 21.7056C13.9504 21.6687 14.0616 21.6527 14.0604 21.4677C14.0521 19.6537 14.0532 17.8398 14.0509 16.0252C14.0509 16.0068 14.0396 15.9889 14.0271 15.9503C11.0944 15.9503 8.15577 15.9503 5.18086 15.9503C5.17611 16.0407 5.16659 16.1347 5.16659 16.2292C5.16599 17.954 5.17016 19.6793 5.16124 21.4041C5.16005 21.62 5.22666 21.7068 5.43482 21.7681C7.29755 22.3111 8.5941 24.1702 8.43708 26.0532C8.26163 28.1574 6.78786 29.7335 4.75681 29.9904C2.55388 30.2687 0.556139 28.8479 0.0916443 26.6735C-0.365119 24.5342 0.927259 22.3777 3.0386 21.7562C3.11354 21.7342 3.18669 21.708 3.27114 21.6806C3.27114 17.2379 3.27114 12.7987 3.27114 8.33757C2.61633 8.16688 2.01921 7.87427 1.49464 7.43534C0.0738019 6.24645 -0.394261 4.17318 0.3795 2.46091C1.17289 0.705823 3.01362 -0.255877 4.97806 0.0593372C6.77299 0.347193 8.21167 1.88223 8.40794 3.71641C8.63097 5.80753 7.41888 7.64053 5.39378 8.27096C5.26889 8.30962 5.16183 8.334 5.16243 8.5154C5.17016 10.3198 5.16837 12.1237 5.17075 13.9282C5.17075 13.9555 5.18503 13.9829 5.19752 14.0275C8.13674 14.0275 11.076 14.0275 14.0419 14.0275C14.0473 13.9288 14.0568 13.8336 14.0568 13.7384C14.0574 12.0333 14.0544 10.3282 14.0616 8.62305C14.0628 8.41608 14.017 8.31913 13.7963 8.25669C11.936 7.72974 10.6608 5.89139 10.7869 3.94658C10.916 1.96073 12.3957 0.337677 14.3411 0.0486318C16.5672 -0.28264 18.6304 1.1049 19.108 3.25489C19.6016 5.47448 18.3455 7.61555 16.1652 8.27334C16.0992 8.29356 16.0343 8.31913 15.9588 8.3453C15.9588 10.2336 15.9588 12.1225 15.9588 14.0293C18.9129 14.0293 21.8521 14.0293 24.8157 14.0293C24.8223 13.9276 24.833 13.8318 24.833 13.7366C24.8342 12.0315 24.83 10.3264 24.8383 8.62126C24.8395 8.40894 24.783 8.31854 24.5665 8.25669C22.727 7.72915 21.4316 5.88485 21.5595 4.00011C21.6987 1.94943 23.1498 0.340056 25.122 0.0480371C27.3808 -0.286803 29.4274 1.12452 29.9067 3.34708C30.3694 5.49172 29.0687 7.64767 26.9348 8.27512C26.8688 8.29356 26.8039 8.31854 26.7159 8.34828ZM6.55888 4.21719C6.56007 2.90102 5.54306 1.87568 4.22987 1.87152C2.92143 1.86676 1.89134 2.89151 1.8842 4.2047C1.87706 5.51076 2.90597 6.54382 4.21738 6.5468C5.53474 6.54918 6.5571 5.53217 6.55888 4.21719ZM23.4413 4.1708C23.427 5.49529 24.4285 6.53252 25.7358 6.5462C27.0686 6.56048 28.1076 5.54584 28.1154 4.22135C28.1231 2.91351 27.1001 1.88104 25.7869 1.87152C24.491 1.862 23.4549 2.87783 23.4413 4.1708ZM6.55888 25.7748C6.56364 24.4557 5.5502 23.4322 4.23522 23.428C2.91905 23.4244 1.89193 24.4396 1.8842 25.7517C1.87647 27.0589 2.89943 28.092 4.21203 28.1033C5.51749 28.1146 6.55413 27.0857 6.55888 25.7748ZM17.3338 4.21481C17.3344 2.89745 16.318 1.87509 15.0042 1.87093C13.694 1.86736 12.6693 2.89032 12.6657 4.20589C12.6621 5.52205 13.6803 6.54442 14.9953 6.5462C16.3127 6.54799 17.3333 5.53038 17.3338 4.21481ZM17.3338 25.7701C17.3386 24.4527 16.3228 23.4304 15.0066 23.428C13.6881 23.4256 12.6681 24.4408 12.6663 25.757C12.6645 27.0732 13.6803 28.0973 14.9935 28.1033C16.302 28.1098 17.3291 27.0863 17.3338 25.7701Z" fill="#262465"/>
</svg>
