<svg width="42" height="29" viewBox="0 0 42 29" fill="none" xmlns="http://www.w3.org/2000/svg">
<mask id="path-1-outside-1_333_1477" maskUnits="userSpaceOnUse" x="0" y="-0.000976562" width="42" height="29" fill="black">
<rect fill="white" y="-0.000976562" width="42" height="29"/>
<path d="M23.6711 4.95432C23.6711 5.63422 23.6711 6.25077 23.6711 6.93453C23.8694 6.93453 24.0584 6.93453 24.2466 6.93453C24.9236 6.93453 25.6007 6.92526 26.2769 6.93762C27.4998 6.95926 28.3197 7.78441 28.333 8.99509C28.3369 9.3559 28.3314 9.71594 28.3345 10.0768C28.3392 10.6601 28.5703 10.8872 29.1701 10.8911C29.7299 10.8949 30.2891 10.8903 30.8489 10.8926C32.1663 10.898 32.9886 11.7054 32.9979 13.0142C33.0057 14.0433 32.9995 15.0732 32.9995 16.1309C33.443 16.1309 33.8631 16.1309 34.3356 16.1309C34.3356 15.8798 34.3254 15.638 34.3371 15.3977C34.3871 14.3663 35.2156 13.5458 36.2565 13.5342C36.9445 13.5265 37.6449 13.5002 38.3181 13.6107C39.8275 13.8587 40.9637 15.1907 40.9809 16.7073C41.0059 18.9734 41.0066 21.241 40.9816 23.5071C40.9621 25.2462 39.5948 26.5914 37.7629 26.7049C37.2061 26.7397 36.6407 26.7412 36.0871 26.6848C35.0719 26.5813 34.3715 25.7948 34.334 24.785C34.3262 24.5687 34.3332 24.3516 34.3332 24.1051C33.8874 24.1051 33.4774 24.1051 33.0229 24.1051C33.0151 24.2395 33.0011 24.3747 33.0011 24.5099C32.9987 25.2053 33.0073 25.9006 32.9979 26.596C32.9808 27.8809 32.1577 28.6851 30.856 28.6859C26.248 28.6882 21.6408 28.6828 17.0328 28.6913C16.366 28.6929 15.8233 28.475 15.3579 28.0068C14.427 27.0704 13.4697 26.1587 12.5498 25.2122C12.2172 24.87 11.8736 24.7039 11.3863 24.727C10.646 24.7626 9.90263 24.7379 9.16079 24.7363C7.83642 24.7325 7.01259 23.9258 7.00791 22.6248C7.004 21.5956 7.00712 20.5665 7.00712 19.5034C6.34416 19.5034 5.70149 19.5034 4.9987 19.5034C4.9987 19.6162 4.9987 19.7391 4.9987 19.8619C4.99792 20.6214 5.00885 21.3816 4.99402 22.1411C4.97215 23.2274 4.10381 24.0649 3.01527 24.0711C1.91501 24.078 1.01387 23.2266 1.00841 22.1264C0.99513 19.4995 1.00372 16.8719 1.00372 14.245C1.00372 13.3302 0.992788 12.4162 1.00841 11.5022C1.02558 10.511 1.79944 9.67808 2.75836 9.58691C3.82426 9.4857 4.74179 10.1223 4.95497 11.1352C5.00729 11.384 4.99558 11.6475 4.99714 11.904C5.00182 12.6472 4.9987 13.3905 4.9987 14.1561C5.67729 14.1561 6.31058 14.1561 7.00634 14.1561C7.00634 14.0132 7.00634 13.878 7.00634 13.7428C7.00712 12.9957 6.99619 12.2486 7.01103 11.5022C7.03211 10.4283 7.86063 9.607 8.94995 9.57919C9.56138 9.56374 10.1736 9.5761 10.785 9.57301C11.4027 9.56992 11.6081 9.38835 11.676 8.79653C11.808 7.63607 12.5725 6.94844 13.7641 6.93608C14.6879 6.92681 15.6124 6.93376 16.5362 6.93376C16.676 6.93376 16.8158 6.93376 16.979 6.93376C16.979 6.2639 16.979 5.63886 16.979 4.95355C16.8431 4.95355 16.7064 4.95355 16.5698 4.95355C15.6194 4.95355 14.6691 4.95896 13.7196 4.95201C12.5459 4.94351 11.669 4.08745 11.6721 2.96716C11.676 1.86233 12.542 1.0055 13.6954 1.00395C18.1206 0.997772 22.5459 0.997 26.9711 1.00395C28.126 1.0055 28.9858 1.8631 28.9865 2.97257C28.9873 4.0805 28.1221 4.93887 26.975 4.95123C26.0247 4.96128 25.0743 4.95355 24.1248 4.95355C23.985 4.95432 23.8445 4.95432 23.6711 4.95432ZM23.9171 27.3671C26.1676 27.3671 28.4189 27.3671 30.6693 27.3671C31.483 27.3671 31.6595 27.1955 31.6595 26.3982C31.6603 23.8239 31.6595 21.2487 31.6595 18.6744C31.6595 16.8078 31.6618 14.9411 31.6579 13.0745C31.6564 12.4255 31.4409 12.2153 30.7951 12.213C30.1836 12.2107 29.5714 12.2254 28.9608 12.2076C27.8566 12.1752 27.0265 11.3407 27.0016 10.2545C26.993 9.88128 27.0008 9.50811 26.9984 9.13416C26.9953 8.47126 26.7821 8.25956 26.1082 8.25956C22.0359 8.25879 17.9636 8.25879 13.8914 8.25956C13.23 8.25956 13.0777 8.39709 12.9941 9.05227C12.8497 10.1787 12.061 10.881 10.9154 10.8942C10.3173 10.9011 9.71834 10.8919 9.12018 10.8965C8.57279 10.9011 8.34321 11.1298 8.34243 11.6784C8.34009 15.3212 8.34009 18.9649 8.34243 22.6078C8.34243 23.1895 8.57826 23.4144 9.18031 23.4167C9.98696 23.4198 10.7944 23.4329 11.6003 23.4128C12.2968 23.3958 12.8551 23.6408 13.3393 24.1306C14.3037 25.1064 15.2915 26.059 16.2582 27.0317C16.494 27.2689 16.7478 27.374 17.0867 27.3725C19.363 27.3624 21.64 27.3671 23.9171 27.3671ZM35.667 20.0991C35.667 21.6049 35.6639 23.1115 35.6685 24.6173C35.6701 25.1481 35.8911 25.3799 36.4197 25.3899C36.9008 25.3992 37.3841 25.4093 37.862 25.3675C38.86 25.281 39.637 24.4899 39.6471 23.4963C39.6706 21.2441 39.6721 18.9912 39.6463 16.739C39.6346 15.6913 38.7632 14.8793 37.7059 14.8484C37.3162 14.8368 36.9258 14.8445 36.5353 14.8453C35.8825 14.8469 35.6678 15.0555 35.667 15.6967C35.6654 17.1647 35.667 18.6319 35.667 20.0991ZM20.3485 2.32126C18.2276 2.32126 16.1059 2.32126 13.9851 2.32126C13.8679 2.32126 13.75 2.31585 13.6337 2.32589C13.2682 2.3568 13.0269 2.60172 13.0144 2.94785C13.0019 3.29398 13.2245 3.56748 13.579 3.62311C13.7063 3.6432 13.8383 3.6347 13.9687 3.6347C18.2112 3.63547 22.4529 3.63547 26.6954 3.6347C26.8251 3.6347 26.9578 3.64243 27.0851 3.62234C27.4365 3.56594 27.6606 3.2878 27.6466 2.94399C27.6325 2.5994 27.3897 2.35525 27.0242 2.32589C26.9078 2.31662 26.7899 2.32126 26.6728 2.32126C24.5652 2.32126 22.4568 2.32126 20.3485 2.32126ZM3.66496 16.8155C3.66496 15.6187 3.66496 14.4227 3.66496 13.2259C3.66496 12.6727 3.67277 12.1195 3.66105 11.5663C3.65168 11.1592 3.3854 10.9004 3.00746 10.8988C2.63576 10.8965 2.3687 11.1592 2.33981 11.5602C2.33278 11.6629 2.33746 11.7657 2.33746 11.8692C2.33746 15.176 2.33746 18.482 2.33746 21.7888C2.33746 21.917 2.32887 22.0476 2.34761 22.1743C2.39915 22.5251 2.67246 22.7515 3.02073 22.7437C3.37135 22.736 3.62435 22.5011 3.66027 22.1427C3.67121 22.0275 3.66574 21.9116 3.66574 21.7958C3.66496 20.1346 3.66496 18.4751 3.66496 16.8155ZM22.31 4.98677C20.9607 4.98677 19.6558 4.98677 18.3619 4.98677C18.3619 5.64504 18.3619 6.27009 18.3619 6.90595C19.6917 6.90595 20.9974 6.90595 22.31 6.90595C22.31 6.25077 22.31 5.62495 22.31 4.98677ZM33.0237 17.4915C33.0237 19.2515 33.0237 20.9783 33.0237 22.7159C33.4649 22.7159 33.8819 22.7159 34.3004 22.7159C34.3004 20.9559 34.3004 19.2299 34.3004 17.4915C33.871 17.4915 33.4711 17.4915 33.0237 17.4915ZM5.019 18.1212C5.67963 18.1212 6.32073 18.1212 6.97979 18.1212C6.97979 17.2489 6.97979 16.3975 6.97979 15.5407C6.31214 15.5407 5.6726 15.5407 5.019 15.5407C5.019 16.4137 5.019 17.2543 5.019 18.1212Z"/>
</mask>
<path d="M23.6711 4.95432C23.6711 5.63422 23.6711 6.25077 23.6711 6.93453C23.8694 6.93453 24.0584 6.93453 24.2466 6.93453C24.9236 6.93453 25.6007 6.92526 26.2769 6.93762C27.4998 6.95926 28.3197 7.78441 28.333 8.99509C28.3369 9.3559 28.3314 9.71594 28.3345 10.0768C28.3392 10.6601 28.5703 10.8872 29.1701 10.8911C29.7299 10.8949 30.2891 10.8903 30.8489 10.8926C32.1663 10.898 32.9886 11.7054 32.9979 13.0142C33.0057 14.0433 32.9995 15.0732 32.9995 16.1309C33.443 16.1309 33.8631 16.1309 34.3356 16.1309C34.3356 15.8798 34.3254 15.638 34.3371 15.3977C34.3871 14.3663 35.2156 13.5458 36.2565 13.5342C36.9445 13.5265 37.6449 13.5002 38.3181 13.6107C39.8275 13.8587 40.9637 15.1907 40.9809 16.7073C41.0059 18.9734 41.0066 21.241 40.9816 23.5071C40.9621 25.2462 39.5948 26.5914 37.7629 26.7049C37.2061 26.7397 36.6407 26.7412 36.0871 26.6848C35.0719 26.5813 34.3715 25.7948 34.334 24.785C34.3262 24.5687 34.3332 24.3516 34.3332 24.1051C33.8874 24.1051 33.4774 24.1051 33.0229 24.1051C33.0151 24.2395 33.0011 24.3747 33.0011 24.5099C32.9987 25.2053 33.0073 25.9006 32.9979 26.596C32.9808 27.8809 32.1577 28.6851 30.856 28.6859C26.248 28.6882 21.6408 28.6828 17.0328 28.6913C16.366 28.6929 15.8233 28.475 15.3579 28.0068C14.427 27.0704 13.4697 26.1587 12.5498 25.2122C12.2172 24.87 11.8736 24.7039 11.3863 24.727C10.646 24.7626 9.90263 24.7379 9.16079 24.7363C7.83642 24.7325 7.01259 23.9258 7.00791 22.6248C7.004 21.5956 7.00712 20.5665 7.00712 19.5034C6.34416 19.5034 5.70149 19.5034 4.9987 19.5034C4.9987 19.6162 4.9987 19.7391 4.9987 19.8619C4.99792 20.6214 5.00885 21.3816 4.99402 22.1411C4.97215 23.2274 4.10381 24.0649 3.01527 24.0711C1.91501 24.078 1.01387 23.2266 1.00841 22.1264C0.99513 19.4995 1.00372 16.8719 1.00372 14.245C1.00372 13.3302 0.992788 12.4162 1.00841 11.5022C1.02558 10.511 1.79944 9.67808 2.75836 9.58691C3.82426 9.4857 4.74179 10.1223 4.95497 11.1352C5.00729 11.384 4.99558 11.6475 4.99714 11.904C5.00182 12.6472 4.9987 13.3905 4.9987 14.1561C5.67729 14.1561 6.31058 14.1561 7.00634 14.1561C7.00634 14.0132 7.00634 13.878 7.00634 13.7428C7.00712 12.9957 6.99619 12.2486 7.01103 11.5022C7.03211 10.4283 7.86063 9.607 8.94995 9.57919C9.56138 9.56374 10.1736 9.5761 10.785 9.57301C11.4027 9.56992 11.6081 9.38835 11.676 8.79653C11.808 7.63607 12.5725 6.94844 13.7641 6.93608C14.6879 6.92681 15.6124 6.93376 16.5362 6.93376C16.676 6.93376 16.8158 6.93376 16.979 6.93376C16.979 6.2639 16.979 5.63886 16.979 4.95355C16.8431 4.95355 16.7064 4.95355 16.5698 4.95355C15.6194 4.95355 14.6691 4.95896 13.7196 4.95201C12.5459 4.94351 11.669 4.08745 11.6721 2.96716C11.676 1.86233 12.542 1.0055 13.6954 1.00395C18.1206 0.997772 22.5459 0.997 26.9711 1.00395C28.126 1.0055 28.9858 1.8631 28.9865 2.97257C28.9873 4.0805 28.1221 4.93887 26.975 4.95123C26.0247 4.96128 25.0743 4.95355 24.1248 4.95355C23.985 4.95432 23.8445 4.95432 23.6711 4.95432ZM23.9171 27.3671C26.1676 27.3671 28.4189 27.3671 30.6693 27.3671C31.483 27.3671 31.6595 27.1955 31.6595 26.3982C31.6603 23.8239 31.6595 21.2487 31.6595 18.6744C31.6595 16.8078 31.6618 14.9411 31.6579 13.0745C31.6564 12.4255 31.4409 12.2153 30.7951 12.213C30.1836 12.2107 29.5714 12.2254 28.9608 12.2076C27.8566 12.1752 27.0265 11.3407 27.0016 10.2545C26.993 9.88128 27.0008 9.50811 26.9984 9.13416C26.9953 8.47126 26.7821 8.25956 26.1082 8.25956C22.0359 8.25879 17.9636 8.25879 13.8914 8.25956C13.23 8.25956 13.0777 8.39709 12.9941 9.05227C12.8497 10.1787 12.061 10.881 10.9154 10.8942C10.3173 10.9011 9.71834 10.8919 9.12018 10.8965C8.57279 10.9011 8.34321 11.1298 8.34243 11.6784C8.34009 15.3212 8.34009 18.9649 8.34243 22.6078C8.34243 23.1895 8.57826 23.4144 9.18031 23.4167C9.98696 23.4198 10.7944 23.4329 11.6003 23.4128C12.2968 23.3958 12.8551 23.6408 13.3393 24.1306C14.3037 25.1064 15.2915 26.059 16.2582 27.0317C16.494 27.2689 16.7478 27.374 17.0867 27.3725C19.363 27.3624 21.64 27.3671 23.9171 27.3671ZM35.667 20.0991C35.667 21.6049 35.6639 23.1115 35.6685 24.6173C35.6701 25.1481 35.8911 25.3799 36.4197 25.3899C36.9008 25.3992 37.3841 25.4093 37.862 25.3675C38.86 25.281 39.637 24.4899 39.6471 23.4963C39.6706 21.2441 39.6721 18.9912 39.6463 16.739C39.6346 15.6913 38.7632 14.8793 37.7059 14.8484C37.3162 14.8368 36.9258 14.8445 36.5353 14.8453C35.8825 14.8469 35.6678 15.0555 35.667 15.6967C35.6654 17.1647 35.667 18.6319 35.667 20.0991ZM20.3485 2.32126C18.2276 2.32126 16.1059 2.32126 13.9851 2.32126C13.8679 2.32126 13.75 2.31585 13.6337 2.32589C13.2682 2.3568 13.0269 2.60172 13.0144 2.94785C13.0019 3.29398 13.2245 3.56748 13.579 3.62311C13.7063 3.6432 13.8383 3.6347 13.9687 3.6347C18.2112 3.63547 22.4529 3.63547 26.6954 3.6347C26.8251 3.6347 26.9578 3.64243 27.0851 3.62234C27.4365 3.56594 27.6606 3.2878 27.6466 2.94399C27.6325 2.5994 27.3897 2.35525 27.0242 2.32589C26.9078 2.31662 26.7899 2.32126 26.6728 2.32126C24.5652 2.32126 22.4568 2.32126 20.3485 2.32126ZM3.66496 16.8155C3.66496 15.6187 3.66496 14.4227 3.66496 13.2259C3.66496 12.6727 3.67277 12.1195 3.66105 11.5663C3.65168 11.1592 3.3854 10.9004 3.00746 10.8988C2.63576 10.8965 2.3687 11.1592 2.33981 11.5602C2.33278 11.6629 2.33746 11.7657 2.33746 11.8692C2.33746 15.176 2.33746 18.482 2.33746 21.7888C2.33746 21.917 2.32887 22.0476 2.34761 22.1743C2.39915 22.5251 2.67246 22.7515 3.02073 22.7437C3.37135 22.736 3.62435 22.5011 3.66027 22.1427C3.67121 22.0275 3.66574 21.9116 3.66574 21.7958C3.66496 20.1346 3.66496 18.4751 3.66496 16.8155ZM22.31 4.98677C20.9607 4.98677 19.6558 4.98677 18.3619 4.98677C18.3619 5.64504 18.3619 6.27009 18.3619 6.90595C19.6917 6.90595 20.9974 6.90595 22.31 6.90595C22.31 6.25077 22.31 5.62495 22.31 4.98677ZM33.0237 17.4915C33.0237 19.2515 33.0237 20.9783 33.0237 22.7159C33.4649 22.7159 33.8819 22.7159 34.3004 22.7159C34.3004 20.9559 34.3004 19.2299 34.3004 17.4915C33.871 17.4915 33.4711 17.4915 33.0237 17.4915ZM5.019 18.1212C5.67963 18.1212 6.32073 18.1212 6.97979 18.1212C6.97979 17.2489 6.97979 16.3975 6.97979 15.5407C6.31214 15.5407 5.6726 15.5407 5.019 15.5407C5.019 16.4137 5.019 17.2543 5.019 18.1212Z" fill="#262465"/>
<path d="M23.6711 4.95432C23.6711 5.63422 23.6711 6.25077 23.6711 6.93453C23.8694 6.93453 24.0584 6.93453 24.2466 6.93453C24.9236 6.93453 25.6007 6.92526 26.2769 6.93762C27.4998 6.95926 28.3197 7.78441 28.333 8.99509C28.3369 9.3559 28.3314 9.71594 28.3345 10.0768C28.3392 10.6601 28.5703 10.8872 29.1701 10.8911C29.7299 10.8949 30.2891 10.8903 30.8489 10.8926C32.1663 10.898 32.9886 11.7054 32.9979 13.0142C33.0057 14.0433 32.9995 15.0732 32.9995 16.1309C33.443 16.1309 33.8631 16.1309 34.3356 16.1309C34.3356 15.8798 34.3254 15.638 34.3371 15.3977C34.3871 14.3663 35.2156 13.5458 36.2565 13.5342C36.9445 13.5265 37.6449 13.5002 38.3181 13.6107C39.8275 13.8587 40.9637 15.1907 40.9809 16.7073C41.0059 18.9734 41.0066 21.241 40.9816 23.5071C40.9621 25.2462 39.5948 26.5914 37.7629 26.7049C37.2061 26.7397 36.6407 26.7412 36.0871 26.6848C35.0719 26.5813 34.3715 25.7948 34.334 24.785C34.3262 24.5687 34.3332 24.3516 34.3332 24.1051C33.8874 24.1051 33.4774 24.1051 33.0229 24.1051C33.0151 24.2395 33.0011 24.3747 33.0011 24.5099C32.9987 25.2053 33.0073 25.9006 32.9979 26.596C32.9808 27.8809 32.1577 28.6851 30.856 28.6859C26.248 28.6882 21.6408 28.6828 17.0328 28.6913C16.366 28.6929 15.8233 28.475 15.3579 28.0068C14.427 27.0704 13.4697 26.1587 12.5498 25.2122C12.2172 24.87 11.8736 24.7039 11.3863 24.727C10.646 24.7626 9.90263 24.7379 9.16079 24.7363C7.83642 24.7325 7.01259 23.9258 7.00791 22.6248C7.004 21.5956 7.00712 20.5665 7.00712 19.5034C6.34416 19.5034 5.70149 19.5034 4.9987 19.5034C4.9987 19.6162 4.9987 19.7391 4.9987 19.8619C4.99792 20.6214 5.00885 21.3816 4.99402 22.1411C4.97215 23.2274 4.10381 24.0649 3.01527 24.0711C1.91501 24.078 1.01387 23.2266 1.00841 22.1264C0.99513 19.4995 1.00372 16.8719 1.00372 14.245C1.00372 13.3302 0.992788 12.4162 1.00841 11.5022C1.02558 10.511 1.79944 9.67808 2.75836 9.58691C3.82426 9.4857 4.74179 10.1223 4.95497 11.1352C5.00729 11.384 4.99558 11.6475 4.99714 11.904C5.00182 12.6472 4.9987 13.3905 4.9987 14.1561C5.67729 14.1561 6.31058 14.1561 7.00634 14.1561C7.00634 14.0132 7.00634 13.878 7.00634 13.7428C7.00712 12.9957 6.99619 12.2486 7.01103 11.5022C7.03211 10.4283 7.86063 9.607 8.94995 9.57919C9.56138 9.56374 10.1736 9.5761 10.785 9.57301C11.4027 9.56992 11.6081 9.38835 11.676 8.79653C11.808 7.63607 12.5725 6.94844 13.7641 6.93608C14.6879 6.92681 15.6124 6.93376 16.5362 6.93376C16.676 6.93376 16.8158 6.93376 16.979 6.93376C16.979 6.2639 16.979 5.63886 16.979 4.95355C16.8431 4.95355 16.7064 4.95355 16.5698 4.95355C15.6194 4.95355 14.6691 4.95896 13.7196 4.95201C12.5459 4.94351 11.669 4.08745 11.6721 2.96716C11.676 1.86233 12.542 1.0055 13.6954 1.00395C18.1206 0.997772 22.5459 0.997 26.9711 1.00395C28.126 1.0055 28.9858 1.8631 28.9865 2.97257C28.9873 4.0805 28.1221 4.93887 26.975 4.95123C26.0247 4.96128 25.0743 4.95355 24.1248 4.95355C23.985 4.95432 23.8445 4.95432 23.6711 4.95432ZM23.9171 27.3671C26.1676 27.3671 28.4189 27.3671 30.6693 27.3671C31.483 27.3671 31.6595 27.1955 31.6595 26.3982C31.6603 23.8239 31.6595 21.2487 31.6595 18.6744C31.6595 16.8078 31.6618 14.9411 31.6579 13.0745C31.6564 12.4255 31.4409 12.2153 30.7951 12.213C30.1836 12.2107 29.5714 12.2254 28.9608 12.2076C27.8566 12.1752 27.0265 11.3407 27.0016 10.2545C26.993 9.88128 27.0008 9.50811 26.9984 9.13416C26.9953 8.47126 26.7821 8.25956 26.1082 8.25956C22.0359 8.25879 17.9636 8.25879 13.8914 8.25956C13.23 8.25956 13.0777 8.39709 12.9941 9.05227C12.8497 10.1787 12.061 10.881 10.9154 10.8942C10.3173 10.9011 9.71834 10.8919 9.12018 10.8965C8.57279 10.9011 8.34321 11.1298 8.34243 11.6784C8.34009 15.3212 8.34009 18.9649 8.34243 22.6078C8.34243 23.1895 8.57826 23.4144 9.18031 23.4167C9.98696 23.4198 10.7944 23.4329 11.6003 23.4128C12.2968 23.3958 12.8551 23.6408 13.3393 24.1306C14.3037 25.1064 15.2915 26.059 16.2582 27.0317C16.494 27.2689 16.7478 27.374 17.0867 27.3725C19.363 27.3624 21.64 27.3671 23.9171 27.3671ZM35.667 20.0991C35.667 21.6049 35.6639 23.1115 35.6685 24.6173C35.6701 25.1481 35.8911 25.3799 36.4197 25.3899C36.9008 25.3992 37.3841 25.4093 37.862 25.3675C38.86 25.281 39.637 24.4899 39.6471 23.4963C39.6706 21.2441 39.6721 18.9912 39.6463 16.739C39.6346 15.6913 38.7632 14.8793 37.7059 14.8484C37.3162 14.8368 36.9258 14.8445 36.5353 14.8453C35.8825 14.8469 35.6678 15.0555 35.667 15.6967C35.6654 17.1647 35.667 18.6319 35.667 20.0991ZM20.3485 2.32126C18.2276 2.32126 16.1059 2.32126 13.9851 2.32126C13.8679 2.32126 13.75 2.31585 13.6337 2.32589C13.2682 2.3568 13.0269 2.60172 13.0144 2.94785C13.0019 3.29398 13.2245 3.56748 13.579 3.62311C13.7063 3.6432 13.8383 3.6347 13.9687 3.6347C18.2112 3.63547 22.4529 3.63547 26.6954 3.6347C26.8251 3.6347 26.9578 3.64243 27.0851 3.62234C27.4365 3.56594 27.6606 3.2878 27.6466 2.94399C27.6325 2.5994 27.3897 2.35525 27.0242 2.32589C26.9078 2.31662 26.7899 2.32126 26.6728 2.32126C24.5652 2.32126 22.4568 2.32126 20.3485 2.32126ZM3.66496 16.8155C3.66496 15.6187 3.66496 14.4227 3.66496 13.2259C3.66496 12.6727 3.67277 12.1195 3.66105 11.5663C3.65168 11.1592 3.3854 10.9004 3.00746 10.8988C2.63576 10.8965 2.3687 11.1592 2.33981 11.5602C2.33278 11.6629 2.33746 11.7657 2.33746 11.8692C2.33746 15.176 2.33746 18.482 2.33746 21.7888C2.33746 21.917 2.32887 22.0476 2.34761 22.1743C2.39915 22.5251 2.67246 22.7515 3.02073 22.7437C3.37135 22.736 3.62435 22.5011 3.66027 22.1427C3.67121 22.0275 3.66574 21.9116 3.66574 21.7958C3.66496 20.1346 3.66496 18.4751 3.66496 16.8155ZM22.31 4.98677C20.9607 4.98677 19.6558 4.98677 18.3619 4.98677C18.3619 5.64504 18.3619 6.27009 18.3619 6.90595C19.6917 6.90595 20.9974 6.90595 22.31 6.90595C22.31 6.25077 22.31 5.62495 22.31 4.98677ZM33.0237 17.4915C33.0237 19.2515 33.0237 20.9783 33.0237 22.7159C33.4649 22.7159 33.8819 22.7159 34.3004 22.7159C34.3004 20.9559 34.3004 19.2299 34.3004 17.4915C33.871 17.4915 33.4711 17.4915 33.0237 17.4915ZM5.019 18.1212C5.67963 18.1212 6.32073 18.1212 6.97979 18.1212C6.97979 17.2489 6.97979 16.3975 6.97979 15.5407C6.31214 15.5407 5.6726 15.5407 5.019 15.5407C5.019 16.4137 5.019 17.2543 5.019 18.1212Z" stroke="#262465" stroke-width="0.470219" mask="url(#path-1-outside-1_333_1477)"/>
</svg>
