<svg width="32" height="33" viewBox="0 0 32 33" fill="none" xmlns="http://www.w3.org/2000/svg">
<path d="M0 17.4029C0 16.5437 0 15.7474 0 14.8968C0.266625 14.8968 0.523243 14.8968 0.780575 14.8968C1.47108 14.8968 2.16231 14.8853 2.85282 14.9025C3.11372 14.9089 3.19664 14.8203 3.22881 14.5658C3.58121 11.758 4.73778 9.32481 6.68635 7.27545C8.49197 5.37619 10.6829 4.14671 13.239 3.57272C13.6215 3.48694 14.0103 3.41761 14.4006 3.37972C14.6708 3.35327 14.7609 3.25677 14.7552 2.98229C14.738 2.1724 14.7494 1.36252 14.7494 0.552639C14.7494 0.423972 14.7494 0.295306 14.7494 0.152344C15.5965 0.152344 16.4035 0.152344 17.2556 0.152344C17.2556 0.287443 17.2556 0.415395 17.2556 0.543346C17.2556 1.35323 17.2649 2.16311 17.2506 2.97299C17.2463 3.23533 17.3135 3.34541 17.5951 3.37829C19.222 3.56557 20.751 4.06809 22.1856 4.85867C24.0348 5.87799 25.5467 7.26544 26.7197 9.0203C27.8434 10.7023 28.536 12.5472 28.7741 14.5565C28.8076 14.8374 28.9163 14.9061 29.1786 14.9011C29.9885 14.8868 30.7984 14.8961 31.6083 14.8961C31.7362 14.8961 31.8642 14.8961 32 14.8961C32 15.7481 32 16.5544 32 17.4022C31.2616 17.4022 30.5375 17.3979 29.8134 17.4043C29.4953 17.4072 29.0886 17.32 28.8848 17.4801C28.7047 17.6216 28.754 18.0512 28.6983 18.3529C28.2494 20.7883 27.2172 22.9398 25.5517 24.7762C23.651 26.872 21.3028 28.1923 18.5408 28.7813C18.227 28.8485 17.9068 28.8985 17.5872 28.9221C17.3306 28.9414 17.2456 29.0372 17.2506 29.2981C17.2663 30.1437 17.257 30.9893 17.2556 31.835C17.2556 31.9286 17.2463 32.0222 17.2398 32.138C16.4207 32.138 15.6172 32.138 14.7702 32.138C14.7637 32.0215 14.7509 31.8972 14.7509 31.7728C14.7487 30.9507 14.7416 30.1287 14.7552 29.3074C14.7594 29.0572 14.693 28.9536 14.4285 28.9235C12.7894 28.7348 11.2483 28.2302 9.80436 27.4317C7.96801 26.416 6.46405 25.0364 5.29604 23.2937C4.16307 21.6031 3.46755 19.7468 3.22881 17.7246C3.19735 17.4608 3.09585 17.3929 2.84495 17.3972C2.03507 17.4108 1.22519 17.4022 0.415306 17.4022C0.285925 17.4029 0.157259 17.4029 0 17.4029ZM5.72636 17.4029C6.26962 22.4752 10.6514 26.1057 14.753 26.3995C14.753 25.3688 14.753 24.3402 14.753 23.3065C15.6072 23.3065 16.4128 23.3065 17.2663 23.3065C17.2663 24.3552 17.2663 25.3852 17.2663 26.4181C22.0705 25.9435 25.8984 21.7697 26.2601 17.4058C25.2272 17.4058 24.1978 17.4058 23.1563 17.4058C23.1563 16.5516 23.1563 15.7453 23.1563 14.8911C24.2014 14.8911 25.2314 14.8911 26.2643 14.8911C25.8655 10.377 21.9204 6.32046 17.2649 5.88514C17.2649 6.91804 17.2649 7.94737 17.2649 8.98456C16.4042 8.98456 15.5915 8.98456 14.7273 8.98456C14.7273 7.93022 14.7273 6.90446 14.7273 5.8737C9.49414 6.45627 5.99513 11.0125 5.76067 14.9075C6.79 14.9075 7.81719 14.9075 8.84223 14.9075C8.84223 15.7617 8.84223 16.5659 8.84223 17.4029C8.30826 17.4029 7.79789 17.4029 7.28751 17.4029C6.77713 17.4029 6.26747 17.4029 5.72636 17.4029Z" fill="#262465"/>
<path d="M15.9997 14.1504C17.0926 14.1475 18.0004 15.0518 18.0033 16.1462C18.0061 17.2391 17.1019 18.1469 16.0075 18.1498C14.9146 18.1526 14.0068 17.2484 14.0039 16.154C14.0011 15.0611 14.9053 14.1533 15.9997 14.1504Z" fill="#262465"/>
</svg>
