<svg width="65" height="66" viewBox="0 0 65 66" fill="none" xmlns="http://www.w3.org/2000/svg">
<rect x="0.199951" y="0.317627" width="64.8" height="64.7925" rx="32.3962" fill="white"/>
<path d="M23.2298 49.6714H16.1965V27.0261H23.2298V49.6714ZM19.7093 23.9354C17.4629 23.9354 15.6386 22.0734 15.6386 19.827C15.6386 17.5805 17.4629 15.7562 19.7093 15.7562C21.9558 15.7562 23.7801 17.5805 23.7801 19.827C23.7876 22.0734 21.9633 23.9354 19.7093 23.9354ZM49.5538 49.6714H42.5356V38.6428C42.5356 36.0119 42.4828 32.6422 38.8795 32.6422C35.2233 32.6422 34.6655 35.4993 34.6655 38.4468V49.6714H27.6397V27.0261H34.3866V30.1169H34.4846C35.4269 28.3378 37.7186 26.4607 41.141 26.4607C48.2497 26.4532 49.5614 31.1421 49.5614 37.2331V49.6714H49.5538Z" fill="#262465"/>
</svg>
