<svg width="118" height="118" viewBox="0 0 118 118" fill="none" xmlns="http://www.w3.org/2000/svg">
<rect width="118" height="118" fill="#E0E2E9"/>
<rect x="-207" y="-20" width="531.379" height="529.138" rx="20" fill="white"/>
<path d="M46.3789 6.38137C52.382 -2.12712 65 -2.12712 71.0031 6.38137L71.3888 6.92806C74.7423 11.6812 80.5323 14.0794 86.2645 13.0898L86.9238 12.9759C97.185 11.2044 106.107 20.1266 104.336 30.3879L104.222 31.0472C103.232 36.7794 105.631 42.5694 110.384 45.9229L110.93 46.3086C119.439 52.3117 119.439 64.9297 110.93 70.9328L110.384 71.3185C105.631 74.672 103.232 80.4619 104.222 86.1942L104.336 86.8535C106.107 97.1147 97.185 106.037 86.9238 104.265L86.2645 104.152C80.5323 103.162 74.7423 105.56 71.3888 110.313L71.0031 110.86C65 119.368 52.382 119.368 46.3789 110.86L45.9932 110.313C42.6397 105.56 36.8497 103.162 31.1175 104.152L30.4582 104.265C20.197 106.037 11.2747 97.1147 13.0462 86.8535L13.1601 86.1942C14.1497 80.4619 11.7515 74.672 6.99837 71.3185L6.45168 70.9328C-2.05681 64.9297 -2.05681 52.3117 6.45168 46.3086L6.99837 45.9229C11.7515 42.5694 14.1497 36.7794 13.1601 31.0472L13.0462 30.3879C11.2747 20.1266 20.197 11.2044 30.4582 12.9759L31.1175 13.0898C36.8497 14.0794 42.6397 11.6812 45.9932 6.92806L46.3789 6.38137Z" fill="#FF690B" fill-opacity="0.2"/>
<mask id="path-3-outside-1_15_7" maskUnits="userSpaceOnUse" x="28.4297" y="35.1367" width="60" height="47" fill="black">
<rect fill="white" x="28.4297" y="35.1367" width="60" height="47"/>
<path d="M48.5254 78.1016C48.522 78.1016 48.5186 78.1016 48.5152 78.1016C47.8376 78.0982 47.1905 77.8271 46.7128 77.3426L33.1607 63.5804C32.1748 62.581 32.1884 60.9718 33.1878 59.9858C34.1873 59.0033 35.8 59.0135 36.7825 60.0129L48.5356 71.9523L80.6066 39.8812C81.5993 38.8885 83.2086 38.8885 84.2013 39.8812C85.194 40.8739 85.194 42.4834 84.2013 43.476L50.3211 77.3563C49.8468 77.834 49.1996 78.1016 48.5254 78.1016Z"/>
</mask>
<path d="M48.5254 78.1016C48.522 78.1016 48.5186 78.1016 48.5152 78.1016C47.8376 78.0982 47.1905 77.8271 46.7128 77.3426L33.1607 63.5804C32.1748 62.581 32.1884 60.9718 33.1878 59.9858C34.1873 59.0033 35.8 59.0135 36.7825 60.0129L48.5356 71.9523L80.6066 39.8812C81.5993 38.8885 83.2086 38.8885 84.2013 39.8812C85.194 40.8739 85.194 42.4834 84.2013 43.476L50.3211 77.3563C49.8468 77.834 49.1996 78.1016 48.5254 78.1016Z" fill="#F6931E"/>
<path d="M48.5254 78.1016C48.522 78.1016 48.5186 78.1016 48.5152 78.1016C47.8376 78.0982 47.1905 77.8271 46.7128 77.3426L33.1607 63.5804C32.1748 62.581 32.1884 60.9718 33.1878 59.9858C34.1873 59.0033 35.8 59.0135 36.7825 60.0129L48.5356 71.9523L80.6066 39.8812C81.5993 38.8885 83.2086 38.8885 84.2013 39.8812C85.194 40.8739 85.194 42.4834 84.2013 43.476L50.3211 77.3563C49.8468 77.834 49.1996 78.1016 48.5254 78.1016Z" stroke="#F6931E" stroke-width="6.89655" mask="url(#path-3-outside-1_15_7)"/>
</svg>
