<svg width="36" height="44" viewBox="0 0 36 44" fill="none" xmlns="http://www.w3.org/2000/svg">
<path d="M34.778 14.8785C34.5739 15.0043 30.0834 17.6187 30.1344 23.0577C30.1908 29.5633 35.8374 31.7297 35.9022 31.7543C35.8516 31.9091 34.9995 34.8398 32.9258 37.8666C31.1337 40.4887 29.2773 43.0959 26.3473 43.1504C23.4688 43.2031 22.541 41.4424 19.2526 41.4424C15.9621 41.4424 14.9322 43.0959 12.2101 43.2031C9.38205 43.3101 7.22895 40.3715 5.42365 37.7638C1.73311 32.4272 -1.08859 22.682 2.7003 16.1054C4.58131 12.8392 7.94341 10.77 11.5914 10.7166C14.3696 10.6641 16.9896 12.5842 18.689 12.5842C20.3641 12.5842 23.3662 10.3458 26.9049 10.6076C28.2919 10.7104 32.229 11.1244 34.778 14.8785ZM24.7214 7.0847C26.2243 5.26832 27.2355 2.7387 26.9571 0.222656C24.794 0.308438 22.1779 1.6635 20.6264 3.47873C19.237 5.08674 18.0168 7.66214 18.3481 10.1268C20.7591 10.3131 23.2198 8.9022 24.7214 7.0847Z" fill="black"/>
</svg>
