<svg width="11" height="24" viewBox="0 0 11 24" fill="none" xmlns="http://www.w3.org/2000/svg">
<rect width="11" height="24" fill="#E0E2E9"/>
<g clip-path="url(#clip0_15_7)">
<rect width="1728" height="1277" transform="translate(-692 -283)" fill="white"/>
<rect x="-512.635" y="-21.1348" width="550.27" height="67.4859" rx="7.78683" fill="#FBFBFB" stroke="#CFCFCF" stroke-width="1.73041"/>
<mask id="path-2-outside-1_15_7" maskUnits="userSpaceOnUse" x="-0.570314" y="-0.00976611" width="12" height="24" fill="black">
<rect fill="white" x="-0.570314" y="-0.00976611" width="12" height="24"/>
<path d="M8.78144 11.7569C8.6286 11.6061 8.54003 11.5307 8.46388 11.4406C5.89753 8.40779 3.3328 5.37304 0.764821 2.34212C0.494792 2.02331 0.354917 1.67064 0.47049 1.2215C0.648168 0.53149 1.34322 0.270821 1.82441 0.712936C1.9092 0.790882 1.98319 0.886078 2.05934 0.976162C4.84172 4.26647 7.62355 7.55614 10.4054 10.8464C10.9503 11.4911 10.9476 11.9971 10.3978 12.6475C7.59709 15.9602 4.79473 19.2709 1.99669 22.5868C1.75907 22.8685 1.4966 23.0404 1.15528 22.9772C0.512615 22.857 0.212343 21.9613 0.608745 21.3486C0.674092 21.2477 0.754561 21.1601 0.830709 21.07C3.38302 18.0506 5.93533 15.0319 8.48981 12.0144C8.55893 11.9326 8.6475 11.8738 8.78144 11.7569Z"/>
</mask>
<path d="M8.78144 11.7569C8.6286 11.6061 8.54003 11.5307 8.46388 11.4406C5.89753 8.40779 3.3328 5.37304 0.764821 2.34212C0.494792 2.02331 0.354917 1.67064 0.47049 1.2215C0.648168 0.53149 1.34322 0.270821 1.82441 0.712936C1.9092 0.790882 1.98319 0.886078 2.05934 0.976162C4.84172 4.26647 7.62355 7.55614 10.4054 10.8464C10.9503 11.4911 10.9476 11.9971 10.3978 12.6475C7.59709 15.9602 4.79473 19.2709 1.99669 22.5868C1.75907 22.8685 1.4966 23.0404 1.15528 22.9772C0.512615 22.857 0.212343 21.9613 0.608745 21.3486C0.674092 21.2477 0.754561 21.1601 0.830709 21.07C3.38302 18.0506 5.93533 15.0319 8.48981 12.0144C8.55893 11.9326 8.6475 11.8738 8.78144 11.7569Z" fill="#F6931E"/>
<path d="M8.78144 11.7569C8.6286 11.6061 8.54003 11.5307 8.46388 11.4406C5.89753 8.40779 3.3328 5.37304 0.764821 2.34212C0.494792 2.02331 0.354917 1.67064 0.47049 1.2215C0.648168 0.53149 1.34322 0.270821 1.82441 0.712936C1.9092 0.790882 1.98319 0.886078 2.05934 0.976162C4.84172 4.26647 7.62355 7.55614 10.4054 10.8464C10.9503 11.4911 10.9476 11.9971 10.3978 12.6475C7.59709 15.9602 4.79473 19.2709 1.99669 22.5868C1.75907 22.8685 1.4966 23.0404 1.15528 22.9772C0.512615 22.857 0.212343 21.9613 0.608745 21.3486C0.674092 21.2477 0.754561 21.1601 0.830709 21.07C3.38302 18.0506 5.93533 15.0319 8.48981 12.0144C8.55893 11.9326 8.6475 11.8738 8.78144 11.7569Z" stroke="#F6931E" stroke-width="0.346081" mask="url(#path-2-outside-1_15_7)"/>
</g>
<defs>
<clipPath id="clip0_15_7">
<rect width="1728" height="1277" fill="white" transform="translate(-692 -283)"/>
</clipPath>
</defs>
</svg>
