<svg width="24" height="29" viewBox="0 0 24 29" fill="none" xmlns="http://www.w3.org/2000/svg">
<path d="M6.9078 24.7842C6.81259 24.7842 6.71061 24.7842 6.6092 24.7842C5.04126 24.7842 3.47275 24.7825 1.90481 24.7847C1.13013 24.7858 0.532362 24.4698 0.192631 23.7689C-0.145973 23.0703 -0.0225878 22.4167 0.440527 21.7925C0.993787 21.0466 1.51155 20.2741 2.03608 19.5073C2.25411 19.189 2.33468 18.8268 2.33355 18.4403C2.33017 16.3557 2.28961 14.27 2.34144 12.1871C2.43722 8.34638 4.22883 5.53558 7.71741 3.92876C12.8201 1.57825 18.9144 4.65724 20.1241 10.1487C20.2762 10.8394 20.3421 11.5606 20.3522 12.2688C20.3821 14.306 20.3674 16.3439 20.359 18.3817C20.3573 18.8611 20.4874 19.2825 20.7641 19.6713C21.2982 20.4201 21.8255 21.1733 22.3495 21.9288C22.7591 22.5198 22.8132 23.1548 22.492 23.7937C22.1703 24.4343 21.6227 24.7751 20.9055 24.7808C19.2998 24.7937 17.6941 24.7853 16.0884 24.7853C15.9864 24.7853 15.8845 24.7853 15.7712 24.7853C15.4997 25.9639 14.8934 26.9076 13.9126 27.5905C13.1283 28.1364 12.2517 28.3961 11.2922 28.395C9.69945 28.3922 7.56585 27.391 6.9078 24.7842ZM20.8615 22.9666C20.3111 22.1734 19.7916 21.4156 19.2626 20.6646C18.782 19.9823 18.5527 19.2296 18.5555 18.3941C18.5634 16.3658 18.5651 14.3376 18.5527 12.3093C18.5499 11.8327 18.5133 11.3516 18.4378 10.8811C17.831 7.11084 14.0224 4.38906 10.2707 5.0319C6.61427 5.65783 4.13925 8.5909 4.13756 12.302C4.13644 14.0108 4.07277 15.723 4.15672 17.4278C4.23221 18.9625 3.86882 20.2933 2.88174 21.4731C2.50032 21.9288 2.19496 22.4477 1.83551 22.9661C8.18954 22.9666 14.503 22.9666 20.8615 22.9666ZM8.83745 24.7904C9.13774 25.8625 10.3085 26.6423 11.4984 26.5808C12.5734 26.5256 13.6917 25.6738 13.8438 24.7904C12.1818 24.7904 10.5209 24.7904 8.83745 24.7904Z" fill="#5D5D5D"/>
<ellipse cx="18.316" cy="6.28968" rx="5.68421" ry="5.68421" fill="#F6931E"/>
</svg>
