<svg width="12" height="12" viewBox="0 0 12 12" fill="none" xmlns="http://www.w3.org/2000/svg">
<path fill-rule="evenodd" clip-rule="evenodd" d="M0.818516 0.887852C0.92881 0.777694 1.07832 0.71582 1.2342 0.71582C1.39008 0.71582 1.53959 0.777694 1.64989 0.887852L11.0617 10.2996C11.1194 10.3535 11.1658 10.4184 11.198 10.4906C11.2301 10.5627 11.2474 10.6406 11.2488 10.7196C11.2502 10.7986 11.2356 10.877 11.2061 10.9503C11.1765 11.0235 11.1324 11.0901 11.0766 11.1459C11.0207 11.2018 10.9542 11.2458 10.8809 11.2754C10.8077 11.305 10.7292 11.3195 10.6503 11.3181C10.5713 11.3167 10.4934 11.2994 10.4212 11.2673C10.3491 11.2351 10.2841 11.1888 10.2303 11.131L0.818516 1.71922C0.708358 1.60893 0.646484 1.45942 0.646484 1.30354C0.646484 1.14766 0.708358 0.998146 0.818516 0.887852Z" fill="#262465"/>
<path fill-rule="evenodd" clip-rule="evenodd" d="M11.0612 0.887852C11.1713 0.998146 11.2332 1.14766 11.2332 1.30354C11.2332 1.45942 11.1713 1.60893 11.0612 1.71922L1.6494 11.131C1.5379 11.2349 1.39041 11.2915 1.23801 11.2888C1.08562 11.2861 0.940221 11.2243 0.832446 11.1166C0.724671 11.0088 0.662937 10.8634 0.660248 10.711C0.657559 10.5586 0.714126 10.4111 0.818032 10.2996L10.2298 0.887852C10.3401 0.777694 10.4896 0.71582 10.6455 0.71582C10.8014 0.71582 10.9509 0.777694 11.0612 0.887852Z" fill="#262465"/>
</svg>
