<svg width="36" height="37" viewBox="0 0 36 37" fill="none" xmlns="http://www.w3.org/2000/svg">
<path d="M35.098 19.1117C35.098 17.6435 34.9789 16.572 34.721 15.4609H17.9552V22.0878H27.7964C27.598 23.7347 26.5266 26.2149 24.1456 27.8814L24.1122 28.1033L29.4133 32.2099L29.7805 32.2466C33.1535 29.1315 35.098 24.5482 35.098 19.1117Z" fill="#4285F4"/>
<path d="M17.9554 36.5714C22.7768 36.5714 26.8243 34.9841 29.7808 32.2461L24.1458 27.8809C22.6379 28.9325 20.6141 29.6666 17.9554 29.6666C13.2333 29.6666 9.22536 26.5516 7.79665 22.2461L7.58724 22.2639L2.07514 26.5297L2.00305 26.7301C4.93952 32.5634 10.9713 36.5714 17.9554 36.5714Z" fill="#34A853"/>
<path d="M7.79621 22.2459C7.41924 21.1348 7.20107 19.9442 7.20107 18.7141C7.20107 17.4839 7.41924 16.2935 7.77638 15.1824L7.76639 14.9457L2.18522 10.6113L2.00261 10.6982C0.79235 13.1188 0.0979004 15.8371 0.0979004 18.7141C0.0979004 21.5911 0.79235 24.3092 2.00261 26.7299L7.79621 22.2459Z" fill="#FBBC05"/>
<path d="M17.9554 7.76212C21.3085 7.76212 23.5704 9.21052 24.8601 10.4209L29.8998 5.50026C26.8046 2.6233 22.7768 0.857422 17.9554 0.857422C10.9713 0.857422 4.93952 4.86532 2.00305 10.6986L7.77682 15.1828C9.22536 10.8772 13.2333 7.76212 17.9554 7.76212Z" fill="#EB4335"/>
</svg>
