<svg width="35" height="32" viewBox="0 0 35 32" fill="none" xmlns="http://www.w3.org/2000/svg">
<g filter="url(#filter0_b_6_36)">
<path d="M24.5487 0.814148C29.5477 0.814148 33.6001 4.89137 33.6001 10.5995C33.6001 22.0157 21.2573 28.5392 17.143 30.9856C13.0287 28.5392 0.685852 22.0157 0.685852 10.5995C0.685852 4.89137 4.80014 0.814148 9.73728 0.814148C12.7983 0.814148 15.4973 2.44504 17.143 4.07592C18.7887 2.44504 21.4877 0.814148 24.5487 0.814148ZM18.6799 26.2622C20.1308 25.3566 21.4383 24.4547 22.6642 23.4882C27.5665 19.6232 30.3087 15.4 30.3087 10.5995C30.3087 6.75182 27.7792 4.07592 24.5487 4.07592C22.7781 4.07592 20.8612 5.00408 19.4704 6.38234L17.143 8.68878L14.8156 6.38234C13.4248 5.00408 11.5079 4.07592 9.73728 4.07592C6.54305 4.07592 3.97728 6.77749 3.97728 10.5995C3.97728 15.4 6.71948 19.6232 11.6219 23.4882C12.8477 24.4547 14.1552 25.3566 15.6061 26.2622C16.0973 26.569 16.5853 26.8642 17.143 27.1941C17.7007 26.8642 18.1887 26.569 18.6799 26.2622Z" fill="#7C7C7C"/>
<path d="M24.5487 0.814148C29.5477 0.814148 33.6001 4.89137 33.6001 10.5995C33.6001 22.0157 21.2573 28.5392 17.143 30.9856C13.0287 28.5392 0.685852 22.0157 0.685852 10.5995C0.685852 4.89137 4.80014 0.814148 9.73728 0.814148C12.7983 0.814148 15.4973 2.44504 17.143 4.07592C18.7887 2.44504 21.4877 0.814148 24.5487 0.814148ZM18.6799 26.2622C20.1308 25.3566 21.4383 24.4547 22.6642 23.4882C27.5665 19.6232 30.3087 15.4 30.3087 10.5995C30.3087 6.75182 27.7792 4.07592 24.5487 4.07592C22.7781 4.07592 20.8612 5.00408 19.4704 6.38234L17.143 8.68878L14.8156 6.38234C13.4248 5.00408 11.5079 4.07592 9.73728 4.07592C6.54305 4.07592 3.97728 6.77749 3.97728 10.5995C3.97728 15.4 6.71948 19.6232 11.6219 23.4882C12.8477 24.4547 14.1552 25.3566 15.6061 26.2622C16.0973 26.569 16.5853 26.8642 17.143 27.1941C17.7007 26.8642 18.1887 26.569 18.6799 26.2622Z" stroke="white"/>
</g>
<defs>
<filter id="filter0_b_6_36" x="-3.81415" y="-3.68585" width="41.9143" height="39.2531" filterUnits="userSpaceOnUse" color-interpolation-filters="sRGB">
<feFlood flood-opacity="0" result="BackgroundImageFix"/>
<feGaussianBlur in="BackgroundImageFix" stdDeviation="2"/>
<feComposite in2="SourceAlpha" operator="in" result="effect1_backgroundBlur_6_36"/>
<feBlend mode="normal" in="SourceGraphic" in2="effect1_backgroundBlur_6_36" result="shape"/>
</filter>
</defs>
</svg>
