<svg width="28" height="28" viewBox="0 0 28 28" fill="none" xmlns="http://www.w3.org/2000/svg">
<rect width="28" height="28" fill="#E0E2E9"/>
<g clip-path="url(#clip0_15_7)">
<rect width="1728" height="2404" transform="translate(-109 -443)" fill="white"/>
<mask id="path-1-inside-1_15_7" fill="white">
<path d="M-11 -174.889H429V1369.96H-11V-174.889Z"/>
</mask>
<path d="M428 -174.889V1369.96H430V-174.889H428Z" fill="#E0E2E9" mask="url(#path-1-inside-1_15_7)"/>
<mask id="path-3-outside-2_15_7" maskUnits="userSpaceOnUse" x="8.27576" y="0.0175781" width="11" height="11" fill="black">
<rect fill="white" x="8.27576" y="0.0175781" width="11" height="11"/>
<path d="M10.8413 8.30934C11.1105 7.39408 10.8593 6.64034 10.1953 5.98531C9.90813 5.70714 9.6838 5.35719 9.4505 5.03416C9.12747 4.59448 9.26207 4.19069 9.77353 4.03815C10.4465 3.84074 11.1285 3.67025 11.7925 3.4549C11.9719 3.40106 12.1604 3.26646 12.268 3.11392C12.6718 2.55759 13.0397 1.97434 13.4256 1.40904C13.7755 0.888597 14.1973 0.888597 14.5472 1.40006C14.9331 1.96537 15.301 2.54862 15.7047 3.10495C15.8124 3.25749 16.0008 3.39209 16.1803 3.4549C16.8443 3.67025 17.5263 3.84074 18.1993 4.04712C18.7466 4.20864 18.8812 4.61243 18.5313 5.07005C18.1185 5.59947 17.6788 6.11093 17.284 6.65829C17.1494 6.84672 17.0597 7.10694 17.0507 7.34024C17.0417 8.01322 17.0956 8.6862 17.1135 9.35919C17.1315 9.96038 16.7905 10.2116 16.2162 10.0232C15.5701 9.79887 14.9331 9.53865 14.278 9.33227C14.0806 9.26945 13.8383 9.27843 13.6409 9.33227C13.0038 9.53865 12.3757 9.78092 11.7476 10.0052C11.1464 10.2116 10.8144 9.97833 10.8234 9.35021C10.8413 8.98232 10.8413 8.64134 10.8413 8.30934ZM17.1584 4.93546C16.5841 4.77394 16.0726 4.65729 15.5881 4.47783C15.3368 4.3881 15.0946 4.20864 14.9241 4.00226C14.5921 3.58949 14.3229 3.12289 13.9909 2.62938C13.6858 3.087 13.3897 3.48182 13.1384 3.90355C12.941 4.22658 12.6898 4.42399 12.3039 4.51372C11.8194 4.6214 11.3528 4.78291 10.8324 4.93546C11.1733 5.37514 11.4515 5.76098 11.7656 6.1199C12.0258 6.42499 12.1424 6.74802 12.1065 7.14284C12.0617 7.62738 12.0437 8.11193 12.0168 8.65929C12.5552 8.46188 13.0397 8.30036 13.5063 8.10295C13.8473 7.95939 14.1524 7.96836 14.4934 8.10295C14.96 8.29139 15.4355 8.4529 15.965 8.65031C15.938 8.20166 15.9291 7.81582 15.8842 7.43895C15.8124 6.8557 15.938 6.36218 16.3598 5.93147C16.6379 5.6533 16.8623 5.30335 17.1584 4.93546Z"/>
</mask>
<path d="M10.8413 8.30934C11.1105 7.39408 10.8593 6.64034 10.1953 5.98531C9.90813 5.70714 9.6838 5.35719 9.4505 5.03416C9.12747 4.59448 9.26207 4.19069 9.77353 4.03815C10.4465 3.84074 11.1285 3.67025 11.7925 3.4549C11.9719 3.40106 12.1604 3.26646 12.268 3.11392C12.6718 2.55759 13.0397 1.97434 13.4256 1.40904C13.7755 0.888597 14.1973 0.888597 14.5472 1.40006C14.9331 1.96537 15.301 2.54862 15.7047 3.10495C15.8124 3.25749 16.0008 3.39209 16.1803 3.4549C16.8443 3.67025 17.5263 3.84074 18.1993 4.04712C18.7466 4.20864 18.8812 4.61243 18.5313 5.07005C18.1185 5.59947 17.6788 6.11093 17.284 6.65829C17.1494 6.84672 17.0597 7.10694 17.0507 7.34024C17.0417 8.01322 17.0956 8.6862 17.1135 9.35919C17.1315 9.96038 16.7905 10.2116 16.2162 10.0232C15.5701 9.79887 14.9331 9.53865 14.278 9.33227C14.0806 9.26945 13.8383 9.27843 13.6409 9.33227C13.0038 9.53865 12.3757 9.78092 11.7476 10.0052C11.1464 10.2116 10.8144 9.97833 10.8234 9.35021C10.8413 8.98232 10.8413 8.64134 10.8413 8.30934ZM17.1584 4.93546C16.5841 4.77394 16.0726 4.65729 15.5881 4.47783C15.3368 4.3881 15.0946 4.20864 14.9241 4.00226C14.5921 3.58949 14.3229 3.12289 13.9909 2.62938C13.6858 3.087 13.3897 3.48182 13.1384 3.90355C12.941 4.22658 12.6898 4.42399 12.3039 4.51372C11.8194 4.6214 11.3528 4.78291 10.8324 4.93546C11.1733 5.37514 11.4515 5.76098 11.7656 6.1199C12.0258 6.42499 12.1424 6.74802 12.1065 7.14284C12.0617 7.62738 12.0437 8.11193 12.0168 8.65929C12.5552 8.46188 13.0397 8.30036 13.5063 8.10295C13.8473 7.95939 14.1524 7.96836 14.4934 8.10295C14.96 8.29139 15.4355 8.4529 15.965 8.65031C15.938 8.20166 15.9291 7.81582 15.8842 7.43895C15.8124 6.8557 15.938 6.36218 16.3598 5.93147C16.6379 5.6533 16.8623 5.30335 17.1584 4.93546Z" fill="#F6931E"/>
<path d="M10.8413 8.30934C11.1105 7.39408 10.8593 6.64034 10.1953 5.98531C9.90813 5.70714 9.6838 5.35719 9.4505 5.03416C9.12747 4.59448 9.26207 4.19069 9.77353 4.03815C10.4465 3.84074 11.1285 3.67025 11.7925 3.4549C11.9719 3.40106 12.1604 3.26646 12.268 3.11392C12.6718 2.55759 13.0397 1.97434 13.4256 1.40904C13.7755 0.888597 14.1973 0.888597 14.5472 1.40006C14.9331 1.96537 15.301 2.54862 15.7047 3.10495C15.8124 3.25749 16.0008 3.39209 16.1803 3.4549C16.8443 3.67025 17.5263 3.84074 18.1993 4.04712C18.7466 4.20864 18.8812 4.61243 18.5313 5.07005C18.1185 5.59947 17.6788 6.11093 17.284 6.65829C17.1494 6.84672 17.0597 7.10694 17.0507 7.34024C17.0417 8.01322 17.0956 8.6862 17.1135 9.35919C17.1315 9.96038 16.7905 10.2116 16.2162 10.0232C15.5701 9.79887 14.9331 9.53865 14.278 9.33227C14.0806 9.26945 13.8383 9.27843 13.6409 9.33227C13.0038 9.53865 12.3757 9.78092 11.7476 10.0052C11.1464 10.2116 10.8144 9.97833 10.8234 9.35021C10.8413 8.98232 10.8413 8.64134 10.8413 8.30934ZM17.1584 4.93546C16.5841 4.77394 16.0726 4.65729 15.5881 4.47783C15.3368 4.3881 15.0946 4.20864 14.9241 4.00226C14.5921 3.58949 14.3229 3.12289 13.9909 2.62938C13.6858 3.087 13.3897 3.48182 13.1384 3.90355C12.941 4.22658 12.6898 4.42399 12.3039 4.51372C11.8194 4.6214 11.3528 4.78291 10.8324 4.93546C11.1733 5.37514 11.4515 5.76098 11.7656 6.1199C12.0258 6.42499 12.1424 6.74802 12.1065 7.14284C12.0617 7.62738 12.0437 8.11193 12.0168 8.65929C12.5552 8.46188 13.0397 8.30036 13.5063 8.10295C13.8473 7.95939 14.1524 7.96836 14.4934 8.10295C14.96 8.29139 15.4355 8.4529 15.965 8.65031C15.938 8.20166 15.9291 7.81582 15.8842 7.43895C15.8124 6.8557 15.938 6.36218 16.3598 5.93147C16.6379 5.6533 16.8623 5.30335 17.1584 4.93546Z" stroke="#F6931E" stroke-width="0.447703" mask="url(#path-3-outside-2_15_7)"/>
<mask id="path-4-outside-3_15_7" maskUnits="userSpaceOnUse" x="-0.5" y="9.08398" width="29" height="19" fill="black">
<rect fill="white" x="-0.5" y="9.08398" width="29" height="19"/>
<path d="M18.8679 16.41C19.1012 16.41 19.2807 16.41 19.4511 16.41C21.829 16.41 24.2069 16.41 26.5847 16.41C27.3475 16.41 27.5 16.5536 27.5 17.3342C27.5 20.3223 27.5 23.3193 27.5 26.3073C27.5 27.0521 27.3475 27.2046 26.6117 27.2046C18.2039 27.2046 9.80508 27.2046 1.39731 27.2046C0.652542 27.2046 0.5 27.0521 0.5 26.3073C0.5 22.5207 0.5 18.734 0.5 14.9564C0.5 14.2295 0.643569 14.086 1.36142 14.086C3.75723 14.086 6.14407 14.086 8.53988 14.086C8.71934 14.086 8.88983 14.086 9.1321 14.086C9.1321 13.3053 9.1321 12.5785 9.1321 11.8517C9.1321 11.4928 9.12313 11.1338 9.1321 10.7749C9.14108 10.2545 9.31157 10.084 9.84098 10.084C12.0663 10.084 14.3006 10.084 16.5259 10.084C17.0643 10.084 17.6027 10.084 18.1411 10.084C18.6974 10.084 18.8679 10.2455 18.8679 10.8018C18.8679 12.4888 18.8679 14.1847 18.8679 15.8716C18.8679 16.0421 18.8679 16.2036 18.8679 16.41ZM17.7104 26.0471C17.7104 21.1029 17.7104 16.1947 17.7104 11.2684C15.2248 11.2684 12.7662 11.2684 10.2986 11.2684C10.2986 16.2036 10.2986 21.1209 10.2986 26.0471C12.7662 26.0471 15.2159 26.0471 17.7104 26.0471ZM1.68445 26.0381C4.16999 26.0381 6.62861 26.0381 9.09621 26.0381C9.09621 22.422 9.09621 18.8327 9.09621 15.2345C6.61067 15.2345 4.16102 15.2345 1.68445 15.2345C1.68445 18.8417 1.68445 22.422 1.68445 26.0381ZM26.3156 26.0561C26.3156 23.2116 26.3156 20.412 26.3156 17.6034C23.821 17.6034 21.3714 17.6034 18.9038 17.6034C18.9038 20.4389 18.9038 23.2385 18.9038 26.0561C21.3804 26.0561 23.83 26.0561 26.3156 26.0561Z"/>
</mask>
<path d="M18.8679 16.41C19.1012 16.41 19.2807 16.41 19.4511 16.41C21.829 16.41 24.2069 16.41 26.5847 16.41C27.3475 16.41 27.5 16.5536 27.5 17.3342C27.5 20.3223 27.5 23.3193 27.5 26.3073C27.5 27.0521 27.3475 27.2046 26.6117 27.2046C18.2039 27.2046 9.80508 27.2046 1.39731 27.2046C0.652542 27.2046 0.5 27.0521 0.5 26.3073C0.5 22.5207 0.5 18.734 0.5 14.9564C0.5 14.2295 0.643569 14.086 1.36142 14.086C3.75723 14.086 6.14407 14.086 8.53988 14.086C8.71934 14.086 8.88983 14.086 9.1321 14.086C9.1321 13.3053 9.1321 12.5785 9.1321 11.8517C9.1321 11.4928 9.12313 11.1338 9.1321 10.7749C9.14108 10.2545 9.31157 10.084 9.84098 10.084C12.0663 10.084 14.3006 10.084 16.5259 10.084C17.0643 10.084 17.6027 10.084 18.1411 10.084C18.6974 10.084 18.8679 10.2455 18.8679 10.8018C18.8679 12.4888 18.8679 14.1847 18.8679 15.8716C18.8679 16.0421 18.8679 16.2036 18.8679 16.41ZM17.7104 26.0471C17.7104 21.1029 17.7104 16.1947 17.7104 11.2684C15.2248 11.2684 12.7662 11.2684 10.2986 11.2684C10.2986 16.2036 10.2986 21.1209 10.2986 26.0471C12.7662 26.0471 15.2159 26.0471 17.7104 26.0471ZM1.68445 26.0381C4.16999 26.0381 6.62861 26.0381 9.09621 26.0381C9.09621 22.422 9.09621 18.8327 9.09621 15.2345C6.61067 15.2345 4.16102 15.2345 1.68445 15.2345C1.68445 18.8417 1.68445 22.422 1.68445 26.0381ZM26.3156 26.0561C26.3156 23.2116 26.3156 20.412 26.3156 17.6034C23.821 17.6034 21.3714 17.6034 18.9038 17.6034C18.9038 20.4389 18.9038 23.2385 18.9038 26.0561C21.3804 26.0561 23.83 26.0561 26.3156 26.0561Z" fill="#F6931E"/>
<path d="M18.8679 16.41C19.1012 16.41 19.2807 16.41 19.4511 16.41C21.829 16.41 24.2069 16.41 26.5847 16.41C27.3475 16.41 27.5 16.5536 27.5 17.3342C27.5 20.3223 27.5 23.3193 27.5 26.3073C27.5 27.0521 27.3475 27.2046 26.6117 27.2046C18.2039 27.2046 9.80508 27.2046 1.39731 27.2046C0.652542 27.2046 0.5 27.0521 0.5 26.3073C0.5 22.5207 0.5 18.734 0.5 14.9564C0.5 14.2295 0.643569 14.086 1.36142 14.086C3.75723 14.086 6.14407 14.086 8.53988 14.086C8.71934 14.086 8.88983 14.086 9.1321 14.086C9.1321 13.3053 9.1321 12.5785 9.1321 11.8517C9.1321 11.4928 9.12313 11.1338 9.1321 10.7749C9.14108 10.2545 9.31157 10.084 9.84098 10.084C12.0663 10.084 14.3006 10.084 16.5259 10.084C17.0643 10.084 17.6027 10.084 18.1411 10.084C18.6974 10.084 18.8679 10.2455 18.8679 10.8018C18.8679 12.4888 18.8679 14.1847 18.8679 15.8716C18.8679 16.0421 18.8679 16.2036 18.8679 16.41ZM17.7104 26.0471C17.7104 21.1029 17.7104 16.1947 17.7104 11.2684C15.2248 11.2684 12.7662 11.2684 10.2986 11.2684C10.2986 16.2036 10.2986 21.1209 10.2986 26.0471C12.7662 26.0471 15.2159 26.0471 17.7104 26.0471ZM1.68445 26.0381C4.16999 26.0381 6.62861 26.0381 9.09621 26.0381C9.09621 22.422 9.09621 18.8327 9.09621 15.2345C6.61067 15.2345 4.16102 15.2345 1.68445 15.2345C1.68445 18.8417 1.68445 22.422 1.68445 26.0381ZM26.3156 26.0561C26.3156 23.2116 26.3156 20.412 26.3156 17.6034C23.821 17.6034 21.3714 17.6034 18.9038 17.6034C18.9038 20.4389 18.9038 23.2385 18.9038 26.0561C21.3804 26.0561 23.83 26.0561 26.3156 26.0561Z" stroke="#F6931E" stroke-width="0.447703" mask="url(#path-4-outside-3_15_7)"/>
</g>
<defs>
<clipPath id="clip0_15_7">
<rect width="1728" height="2404" fill="white" transform="translate(-109 -443)"/>
</clipPath>
</defs>
</svg>
