<svg width="28" height="28" viewBox="0 0 28 28" fill="none" xmlns="http://www.w3.org/2000/svg">
<path d="M0.363647 14.1667C0.363647 10.8359 0.363647 7.50521 0.363647 4.17448C0.363647 2.48803 1.35022 1.21476 2.97764 0.801584C3.26433 0.725694 3.56789 0.717262 3.86302 0.717262C7.1263 0.708829 10.3811 0.708829 13.6444 0.717262C13.8468 0.717262 14.0745 0.734126 14.26 0.810016C14.7406 0.995525 15.002 1.49303 14.9261 1.99896C14.8418 2.50489 14.4455 2.88434 13.9311 2.93494C13.7793 2.9518 13.6191 2.94337 13.4673 2.94337C10.3052 2.94337 7.14316 2.94337 3.98107 2.94337C3.03666 2.94337 2.62348 3.34812 2.62348 4.30096C2.62348 10.8612 2.62348 17.4215 2.62348 23.9818C2.62348 24.9599 3.02823 25.3478 4.0148 25.3478C7.20219 25.3478 10.3896 25.3478 13.5854 25.3562C13.8299 25.3562 14.0913 25.39 14.319 25.4827C14.7659 25.6682 15.0104 26.1826 14.9261 26.6632C14.8418 27.1607 14.4539 27.5233 13.9564 27.5739C13.8299 27.5823 13.7034 27.5908 13.577 27.5908C10.3558 27.5908 7.14316 27.5992 3.92205 27.5908C2.21874 27.5908 0.9792 26.7223 0.52386 25.1876C0.414241 24.8166 0.380512 24.4118 0.380512 24.0239C0.363647 20.7354 0.363647 17.4468 0.363647 14.1667Z" fill="#F53535"/>
<path d="M23.3332 13.0467C22.0768 11.7481 20.8288 10.458 19.5724 9.16787C19.2773 8.86431 18.9653 8.57761 18.6786 8.27405C18.198 7.77655 18.1811 7.10197 18.6196 6.65507C19.0665 6.19973 19.7495 6.19129 20.2386 6.67193C22.49 8.88961 24.7414 11.1073 26.9843 13.3334C27.4903 13.8309 27.4903 14.4802 26.9843 14.9777C24.7414 17.2038 22.49 19.4215 20.2386 21.6391C19.7495 22.1198 19.058 22.1113 18.6196 21.656C18.1811 21.2007 18.1895 20.5261 18.687 20.037C20.1458 18.5782 21.6214 17.1279 23.0971 15.686C23.2067 15.5764 23.3416 15.5005 23.4681 15.4077C23.4512 15.3656 23.4259 15.315 23.4091 15.2728C23.2657 15.2728 23.1224 15.2728 22.979 15.2728C18.8725 15.2728 14.7745 15.2728 10.668 15.2728C9.92594 15.2728 9.54649 15.0198 9.38628 14.4296C9.21764 13.8056 9.64768 13.1479 10.2885 13.072C10.4656 13.0467 10.6511 13.0551 10.8366 13.0551C14.8672 13.0551 18.9063 13.0551 22.9369 13.0551C23.0718 13.0467 23.2236 13.0467 23.3332 13.0467Z" fill="#F53535"/>
</svg>
