<svg width="28" height="28" viewBox="0 0 28 28" fill="none" xmlns="http://www.w3.org/2000/svg">
<rect width="28" height="28" fill="#E0E2E9"/>
<g clip-path="url(#clip0_15_7)">
<rect width="1728" height="2404" transform="translate(-109 -343)" fill="white"/>
<mask id="path-1-inside-1_15_7" fill="white">
<path d="M-11 -74.8887H429V1469.96H-11V-74.8887Z"/>
</mask>
<path d="M428 -74.8887V1469.96H430V-74.8887H428Z" fill="#E0E2E9" mask="url(#path-1-inside-1_15_7)"/>
<path d="M10.5739 27.7473C10.8118 26.5572 11.0399 25.4133 11.2686 24.2693C11.3853 23.6862 11.4902 23.1006 11.6252 22.5221C11.6638 22.3559 11.7576 22.178 11.8782 22.0572C13.3534 20.5815 14.8385 19.1142 16.323 17.6468C16.4075 17.5631 16.5098 17.4969 16.6015 17.4241C15.1282 15.7776 12.196 14.5947 9.22383 15.168C5.6985 15.8478 2.4681 18.9979 2.43205 23.3129C1.75962 23.3129 1.08654 23.3129 0.363647 23.3129C0.375444 21.2496 0.947598 19.3596 2.09518 17.6416C3.24473 15.9205 4.78817 14.6531 6.72615 13.7903C4.50504 12.1431 3.37188 9.98301 3.53179 7.24834C3.64517 5.30641 4.46703 3.656 5.9351 2.36073C8.97675 -0.323945 13.4773 -0.109691 16.224 2.79314C19.1398 5.87451 18.8626 11.164 14.9873 13.7954C16.1454 14.3064 17.1835 14.9726 18.1142 15.8523C18.2072 15.7666 18.2944 15.6906 18.3763 15.6095C19.651 14.348 20.9186 13.078 22.2012 11.8243C23.8232 10.2395 26.4605 10.6803 27.342 12.6969C27.8703 13.9058 27.6815 15.0427 26.8243 16.0588C26.7266 16.175 26.6159 16.2802 26.5077 16.3873C23.1331 19.731 19.7598 23.0759 16.3774 26.4112C16.2201 26.5663 15.9874 26.6903 15.7698 26.7358C14.1156 27.0805 12.4569 27.4026 10.7994 27.7298C10.7391 27.7428 10.6749 27.7402 10.5739 27.7473ZM10.8341 12.9391C13.7453 12.9449 16.089 10.6329 16.0916 7.75346C16.0943 4.88375 13.7709 2.5646 10.882 2.55356C7.96745 2.54253 5.61658 4.84609 5.60806 7.7223C5.59954 10.6076 7.92944 12.9332 10.8341 12.9391ZM13.2132 25.1419C13.8109 25.0192 14.3562 24.9166 14.8962 24.7906C15.024 24.7608 15.1531 24.6744 15.2482 24.5803C18.5559 21.3106 21.8604 18.037 25.1629 14.7622C25.6452 14.2843 25.6688 13.6656 25.2349 13.2384C24.8096 12.8203 24.1549 12.8456 23.6882 13.3072C20.3831 16.5795 17.0787 19.853 13.7775 23.1292C13.6896 23.2162 13.6051 23.3324 13.5776 23.4486C13.4485 23.9933 13.3397 24.5433 13.2132 25.1419Z" fill="#F6931E"/>
</g>
<defs>
<clipPath id="clip0_15_7">
<rect width="1728" height="2404" fill="white" transform="translate(-109 -343)"/>
</clipPath>
</defs>
</svg>
