<svg width="28" height="26" viewBox="0 0 28 26" fill="none" xmlns="http://www.w3.org/2000/svg">
<rect width="28" height="26" fill="#E0E2E9"/>
<g clip-path="url(#clip0_15_7)">
<rect width="1728" height="2404" transform="translate(-109 -543)" fill="white"/>
<mask id="path-1-inside-1_15_7" fill="white">
<path d="M-11 -274.889H429V1269.96H-11V-274.889Z"/>
</mask>
<path d="M428 -274.889V1269.96H430V-274.889H428Z" fill="#E0E2E9" mask="url(#path-1-inside-1_15_7)"/>
<mask id="path-3-inside-2_15_7" fill="white">
<path d="M19.9386 0.474609C24.0394 0.474609 27.3636 3.84259 27.3636 8.55777C27.3636 17.9881 17.2386 23.3769 13.8636 25.3977C10.4886 23.3769 0.363647 17.9881 0.363647 8.55777C0.363647 3.84259 3.73865 0.474609 7.78865 0.474609C10.2996 0.474609 12.5136 1.8218 13.8636 3.169C15.2136 1.8218 17.4276 0.474609 19.9386 0.474609ZM15.1244 21.4959C16.3146 20.7478 17.3871 20.0029 18.3928 19.2045C22.4141 16.0118 24.6636 12.5232 24.6636 8.55777C24.6636 5.37942 22.5887 3.169 19.9386 3.169C18.4862 3.169 16.9137 3.9357 15.7728 5.07421L13.8636 6.97944L11.9545 5.07421C10.8136 3.9357 9.24111 3.169 7.78865 3.169C5.16838 3.169 3.06365 5.40062 3.06365 8.55777C3.06365 12.5232 5.31311 16.0118 9.33459 19.2045C10.3401 20.0029 11.4127 20.7478 12.6029 21.4959C13.0059 21.7494 13.4061 21.9932 13.8636 22.2657C14.3212 21.9932 14.7214 21.7494 15.1244 21.4959Z"/>
</mask>
<path d="M19.9386 0.474609C24.0394 0.474609 27.3636 3.84259 27.3636 8.55777C27.3636 17.9881 17.2386 23.3769 13.8636 25.3977C10.4886 23.3769 0.363647 17.9881 0.363647 8.55777C0.363647 3.84259 3.73865 0.474609 7.78865 0.474609C10.2996 0.474609 12.5136 1.8218 13.8636 3.169C15.2136 1.8218 17.4276 0.474609 19.9386 0.474609ZM15.1244 21.4959C16.3146 20.7478 17.3871 20.0029 18.3928 19.2045C22.4141 16.0118 24.6636 12.5232 24.6636 8.55777C24.6636 5.37942 22.5887 3.169 19.9386 3.169C18.4862 3.169 16.9137 3.9357 15.7728 5.07421L13.8636 6.97944L11.9545 5.07421C10.8136 3.9357 9.24111 3.169 7.78865 3.169C5.16838 3.169 3.06365 5.40062 3.06365 8.55777C3.06365 12.5232 5.31311 16.0118 9.33459 19.2045C10.3401 20.0029 11.4127 20.7478 12.6029 21.4959C13.0059 21.7494 13.4061 21.9932 13.8636 22.2657C14.3212 21.9932 14.7214 21.7494 15.1244 21.4959Z" fill="#F6931E" stroke="white" stroke-width="0.4" mask="url(#path-3-inside-2_15_7)"/>
</g>
<defs>
<clipPath id="clip0_15_7">
<rect width="1728" height="2404" fill="white" transform="translate(-109 -543)"/>
</clipPath>
</defs>
</svg>
