<svg width="28" height="28" viewBox="0 0 28 28" fill="none" xmlns="http://www.w3.org/2000/svg">
<path d="M22.5784 13.3105C22 11.8484 21.4377 10.4184 20.8753 8.98843C20.6986 8.53855 20.5299 8.10474 20.1362 7.76733C20.0238 7.67093 20.0157 7.33352 20.0961 7.17285C20.2166 6.93184 20.5379 6.86757 20.7147 7.06038C21.0521 7.42189 21.4055 7.81553 21.6064 8.25738C22.0161 9.14107 22.3294 10.073 22.6829 10.9808C22.7391 11.1254 22.8034 11.278 22.8837 11.4467C23.7513 11.0691 24.6511 11.1896 25.5348 11.1977C26.306 11.2057 26.8764 11.8002 26.8603 12.5232C26.8443 13.2542 26.2739 13.8005 25.4946 13.8086C25.0447 13.8166 24.5949 13.8086 24.0164 13.8086C24.6672 14.387 25.2215 14.8851 25.7758 15.3751C26.0168 15.584 26.2658 15.7929 26.5149 16.0017C27.0853 16.4757 27.3584 17.0943 27.3584 17.8334C27.3584 19.3758 27.3745 20.9102 27.3504 22.4527C27.3423 22.8142 27.1977 23.1757 27.1094 23.5372C27.0371 23.8505 26.9085 24.1638 26.8844 24.4852C26.8523 25.0877 26.8844 25.6902 26.8684 26.2927C26.8523 27.1764 26.2578 27.7789 25.3741 27.795C24.4342 27.803 23.5023 27.803 22.5624 27.795C21.6867 27.7869 21.0922 27.1764 21.0762 26.2847C21.0681 25.8428 21.0762 25.401 21.0762 24.935C16.256 24.935 11.46 24.935 6.61576 24.935C6.61576 25.3688 6.61576 25.8107 6.61576 26.2445C6.60773 27.2005 6.02128 27.7869 5.04922 27.795C4.14946 27.803 3.25774 27.803 2.35798 27.795C1.45019 27.795 0.863736 27.2005 0.847669 26.2606C0.839636 25.8589 0.847669 25.4572 0.847669 25.0555C0.847669 24.4771 0.903904 23.8987 0.550428 23.3524C0.39779 23.1195 0.381723 22.7579 0.373689 22.4607C0.357622 20.9263 0.365656 19.3839 0.365656 17.8494C0.365656 17.1104 0.64683 16.4998 1.20918 16.0178C1.9081 15.4153 2.59898 14.8047 3.2979 14.1942C3.40234 14.0978 3.53088 14.0255 3.64335 13.9371C3.61925 13.8969 3.59514 13.8648 3.57908 13.8246C3.14527 13.8246 2.71145 13.8246 2.26961 13.8246C1.45019 13.8166 0.855703 13.2542 0.863736 12.4991C0.87177 11.752 1.45019 11.2137 2.26157 11.2057C2.72752 11.1977 3.2015 11.1736 3.66745 11.2057C4.05306 11.2298 4.4226 11.3262 4.87248 11.4065C5.16169 10.6755 5.45893 9.88016 5.78831 9.09287C6.00521 8.56265 6.24622 8.04047 6.51133 7.53436C6.61576 7.33352 6.82463 7.14071 7.03351 7.06038C7.19418 6.99611 7.47535 7.04431 7.59586 7.15678C7.70029 7.24515 7.74046 7.59863 7.65209 7.67093C6.90497 8.36985 6.75233 9.35798 6.37476 10.2336C5.94898 11.2378 5.55533 12.2661 5.13759 13.3185C10.9699 13.3105 16.7541 13.3105 22.5784 13.3105ZM13.8781 14.3066C10.8896 14.3066 7.90916 14.3066 4.92068 14.3147C4.75198 14.3147 4.5431 14.3629 4.41457 14.4673C3.56301 15.2064 2.74359 15.9696 1.89203 16.7087C1.50642 17.0381 1.32968 17.4317 1.32968 17.9378C1.33772 19.408 1.32968 20.8861 1.33772 22.3563C1.33772 23.3765 1.91613 23.9469 2.93639 23.9549C3.98076 23.9549 5.02512 23.9549 6.06948 23.9549C6.43099 23.9549 6.88087 24.0674 7.12991 23.8987C7.37895 23.73 7.41912 23.2721 7.55569 22.9427C7.61192 22.7901 7.67619 22.6455 7.72439 22.4928C7.8208 22.1635 8.02967 22.0269 8.37511 22.0269C12.0705 22.0349 15.766 22.0349 19.4614 22.0269C19.831 22.0269 20.0318 22.1715 20.1362 22.5169C20.2567 22.9025 20.4094 23.2721 20.5138 23.6577C20.5781 23.8907 20.6825 23.971 20.9316 23.963C22.2169 23.9469 23.5023 23.963 24.7877 23.9549C25.832 23.9549 26.3944 23.3846 26.4024 22.3322C26.4024 20.8861 26.3944 19.4401 26.4104 17.994C26.4185 17.4397 26.2257 17.022 25.7999 16.6685C25.0206 16.0098 24.2574 15.343 23.5184 14.6441C23.2613 14.403 23.0203 14.3066 22.6748 14.3147C19.7426 14.3147 16.8103 14.3066 13.8781 14.3066ZM19.5498 23.9308C19.4052 23.007 19.3811 22.9909 18.5295 22.9909C18.3849 22.9909 18.2323 22.9909 18.0877 22.9909C15.0349 22.9909 11.9822 22.9909 8.92943 22.9989C8.78482 22.9989 8.57595 23.0713 8.51168 23.1757C8.38314 23.4006 8.32691 23.6657 8.23854 23.9308C12.0304 23.9308 15.7901 23.9308 19.5498 23.9308ZM1.81973 24.8627C1.81973 25.3046 1.8117 25.8187 1.81973 26.3409C1.82776 26.6542 2.02057 26.839 2.33388 26.839C3.2738 26.847 4.2057 26.847 5.14562 26.839C5.45893 26.839 5.65174 26.6623 5.6678 26.3489C5.68387 25.883 5.67584 25.4171 5.67584 24.8627C4.3744 24.8627 3.11313 24.8627 1.81973 24.8627ZM22.0643 24.8547C22.0643 25.4171 22.0563 25.8589 22.0643 26.3007C22.0723 26.6382 22.2491 26.831 22.5865 26.839C23.5264 26.847 24.4583 26.847 25.3982 26.839C25.6714 26.839 25.8883 26.6944 25.9043 26.4212C25.9365 25.875 25.9124 25.3206 25.9124 24.8547C24.6109 24.8547 23.3577 24.8547 22.0643 24.8547ZM3.1292 12.8526C3.1292 12.8606 3.1292 12.8606 3.1292 12.8526C3.41037 12.8526 3.69155 12.8365 3.97272 12.8606C4.24586 12.8847 4.41457 12.7562 4.39047 12.5232C4.38243 12.4107 4.16553 12.226 4.02896 12.2179C3.40234 12.1778 2.77572 12.1617 2.14911 12.1858C2.03664 12.1858 1.84383 12.4027 1.85186 12.5152C1.85186 12.6276 2.04467 12.8124 2.17321 12.8365C2.47848 12.8847 2.80786 12.8526 3.1292 12.8526ZM23.4621 12.8606C24.1209 12.8606 24.7796 12.8606 25.4303 12.8606C25.6874 12.8606 25.9043 12.7883 25.9043 12.4991C25.9043 12.234 25.6794 12.1617 25.4464 12.1617C24.9644 12.1617 24.4824 12.1456 24.0084 12.1697C23.7674 12.1858 23.5344 12.2822 23.2693 12.3545C23.3497 12.5714 23.3979 12.708 23.4621 12.8606Z" fill="#F6931E"/>
<path d="M13.8702 10.4669C12.8258 10.4669 11.7814 10.4749 10.7371 10.4669C8.95362 10.4508 8.02977 8.86017 8.92149 7.30969C9.96585 5.48608 11.0263 3.67853 12.0947 1.87098C12.9302 0.45707 14.8101 0.45707 15.6456 1.87098C16.7221 3.68656 17.7825 5.51821 18.8349 7.34986C19.6945 8.85214 18.7706 10.4588 17.0434 10.4749C15.983 10.4749 14.9306 10.4669 13.8702 10.4669ZM13.8461 9.50286C14.8904 9.50286 15.9348 9.50286 16.9791 9.50286C18.0556 9.49482 18.5136 8.69147 17.9673 7.76761C16.947 6.01629 15.9187 4.25694 14.8985 2.50563C14.3361 1.5416 13.4122 1.53357 12.8419 2.49759C11.8136 4.26498 10.7772 6.03236 9.74895 7.79974C9.2348 8.68343 9.69271 9.50286 10.713 9.50286C11.7573 9.50286 12.8017 9.50286 13.8461 9.50286Z" fill="#F6931E"/>
<path d="M13.8862 17.2025C15.4528 17.2025 17.0193 17.1944 18.5858 17.2185C18.8108 17.2185 19.1161 17.331 19.2205 17.4997C19.3089 17.6363 19.1964 17.9576 19.0839 18.1424C18.7545 18.6967 18.377 19.2108 18.0315 19.7571C17.8709 20.0062 17.662 20.1106 17.3647 20.1106C15.035 20.1026 12.7053 20.1026 10.3756 20.1106C10.0783 20.1106 9.86944 20.0062 9.70877 19.7571C9.34726 19.1948 8.95361 18.6485 8.60817 18.0781C8.51177 17.9174 8.43143 17.6282 8.51177 17.4997C8.60014 17.3471 8.87328 17.2266 9.06608 17.2185C10.6728 17.1944 12.2795 17.2025 13.8862 17.2025ZM9.8373 18.1906C10.014 18.4557 10.1667 18.6565 10.2872 18.8734C10.3997 19.0743 10.5443 19.1385 10.7692 19.1305C12.8419 19.1225 14.9145 19.1305 16.9872 19.1225C17.1077 19.1225 17.2683 19.0903 17.3326 19.01C17.5254 18.769 17.6861 18.4878 17.8869 18.1826C15.1957 18.1906 12.5526 18.1906 9.8373 18.1906Z" fill="#F6931E"/>
<path d="M4.6959 17.1999C5.27432 17.1999 5.8447 17.2079 6.42312 17.1919C6.72036 17.1838 6.92923 17.2802 7.0899 17.5373C7.45945 18.1077 7.85309 18.67 8.22263 19.2404C8.52791 19.7144 8.31904 20.0839 7.75669 20.092C6.72839 20.1 5.7001 20.108 4.6718 20.092C3.44267 20.0679 2.46257 19.1601 2.30994 17.947C2.24567 17.4168 2.43044 17.2079 2.97672 17.2079C3.5471 17.1999 4.12552 17.1999 4.6959 17.1999ZM3.3543 18.172C3.5471 18.6299 3.82828 18.9271 4.24602 19.0316C4.5754 19.1119 4.92888 19.1199 5.27432 19.128C5.8206 19.144 6.37492 19.128 6.98547 19.128C6.79266 18.8387 6.66412 18.6218 6.51149 18.421C6.43918 18.3246 6.32671 18.18 6.23031 18.18C5.29039 18.1639 4.35046 18.172 3.3543 18.172Z" fill="#F6931E"/>
<path d="M23.0445 17.2001C23.6309 17.2001 24.2174 17.2001 24.8119 17.2001C25.3019 17.2081 25.4867 17.409 25.4385 17.907C25.318 19.104 24.3539 20.052 23.1569 20.0841C22.0885 20.1163 21.02 20.1002 19.9516 20.0922C19.4454 20.0841 19.2366 19.7066 19.5097 19.2727C19.8873 18.6783 20.2729 18.0757 20.6987 17.5134C20.8192 17.3527 21.0843 17.2242 21.2932 17.2081C21.8635 17.176 22.458 17.2001 23.0445 17.2001ZM24.378 18.1641C23.406 18.1641 22.4982 18.1641 21.5904 18.1721C21.502 18.1721 21.3735 18.2203 21.3253 18.2926C21.1405 18.5417 20.9718 18.8148 20.771 19.1201C21.6225 19.1201 22.4098 19.1522 23.1891 19.1121C23.7354 19.0719 24.137 18.7586 24.378 18.1641Z" fill="#F6931E"/>
<path d="M14.3521 5.02644C14.3521 5.42811 14.3602 5.82979 14.3521 6.22344C14.3441 6.52871 14.2155 6.74562 13.8862 6.75365C13.5327 6.76168 13.3881 6.53674 13.3881 6.2154C13.3881 5.44418 13.3801 4.67296 13.3881 3.8937C13.3881 3.58843 13.5247 3.36349 13.854 3.36349C14.2075 3.35546 14.3441 3.5804 14.3521 3.90977C14.3521 4.27932 14.3521 4.64886 14.3521 5.02644Z" fill="#F6931E"/>
<path d="M13.8702 7.46094C14.1996 7.46094 14.4567 7.72604 14.4486 8.04739C14.4486 8.37676 14.1915 8.63384 13.8622 8.6258C13.5328 8.6258 13.2757 8.36873 13.2838 8.03935C13.2838 7.71801 13.5408 7.46094 13.8702 7.46094Z" fill="#F6931E"/>
</svg>
