<svg width="28" height="30" viewBox="0 0 28 30" fill="none" xmlns="http://www.w3.org/2000/svg">
<rect width="28" height="30" fill="#F5F5F5"/>
<mask id="path-1-inside-1_0_1" fill="white">
<path d="M-11 -1283.89H429V260.96H-11V-1283.89Z"/>
</mask>
<path d="M428 -1283.89V260.96H430V-1283.89H428Z" fill="#E0E2E9" mask="url(#path-1-inside-1_0_1)"/>
<mask id="path-3-inside-2_0_1" fill="white">
<path d="M27.305 10.8468C27.305 12.3275 27.3978 13.8147 27.2868 15.2869C26.9961 19.1626 25.3552 22.4146 22.5184 25.0652C21.5412 25.9781 20.433 26.7062 19.2611 27.3453C17.8959 28.0895 16.5372 28.8467 15.1831 29.6104C14.2954 30.1107 13.4286 30.1107 12.539 29.6059C10.8299 28.6358 9.06501 27.756 7.40458 26.7087C3.42321 24.1964 1.12301 20.5634 0.489081 15.893C0.405378 15.274 0.375531 14.6439 0.371638 14.0184C0.358012 11.7046 0.365798 9.39079 0.366447 7.07762C0.367096 5.57811 1.23007 4.63662 2.72179 4.46338C6.17111 4.06368 9.39333 2.98204 12.3631 1.17693C13.0321 0.770093 13.7212 0.564406 14.4901 0.77723C14.7263 0.842765 14.9599 0.945284 15.1694 1.07311C18.0199 2.81074 21.098 3.9125 24.4001 4.39006C24.7316 4.43807 25.0671 4.46143 25.3954 4.52437C26.5367 4.74304 27.3459 5.6975 27.3569 6.85766C27.3699 8.18716 27.3601 9.51732 27.3601 10.8468C27.3413 10.8468 27.3232 10.8468 27.305 10.8468ZM25.2287 10.9214C25.2468 10.9214 25.265 10.9214 25.2825 10.9214C25.2825 9.62373 25.2786 8.32602 25.2851 7.02895C25.2864 6.72724 25.1728 6.58319 24.8627 6.53582C23.9024 6.38983 22.9375 6.25746 21.9896 6.04983C19.2352 5.4464 16.6534 4.39785 14.2448 2.93013C14.0015 2.78219 13.7991 2.73937 13.5311 2.90223C10.2628 4.89422 6.72004 6.09006 2.92164 6.53972C2.50767 6.58903 2.44538 6.65976 2.44538 7.06983C2.44408 8.49731 2.43824 9.9248 2.44733 11.3516C2.45511 12.6266 2.39672 13.9101 2.51416 15.176C2.90477 19.3708 4.89806 22.6404 8.44665 24.9062C9.89165 25.8289 11.4262 26.6127 12.9322 27.4374C14.0871 28.07 13.6394 28.0804 14.8035 27.4355C16.4373 26.5297 18.1211 25.6926 19.6634 24.6486C22.9998 22.3906 24.8633 19.1859 25.2092 15.1676C25.3299 13.7615 25.2287 12.3372 25.2287 10.9214Z"/>
</mask>
<path d="M27.305 10.8468C27.305 12.3275 27.3978 13.8147 27.2868 15.2869C26.9961 19.1626 25.3552 22.4146 22.5184 25.0652C21.5412 25.9781 20.433 26.7062 19.2611 27.3453C17.8959 28.0895 16.5372 28.8467 15.1831 29.6104C14.2954 30.1107 13.4286 30.1107 12.539 29.6059C10.8299 28.6358 9.06501 27.756 7.40458 26.7087C3.42321 24.1964 1.12301 20.5634 0.489081 15.893C0.405378 15.274 0.375531 14.6439 0.371638 14.0184C0.358012 11.7046 0.365798 9.39079 0.366447 7.07762C0.367096 5.57811 1.23007 4.63662 2.72179 4.46338C6.17111 4.06368 9.39333 2.98204 12.3631 1.17693C13.0321 0.770093 13.7212 0.564406 14.4901 0.77723C14.7263 0.842765 14.9599 0.945284 15.1694 1.07311C18.0199 2.81074 21.098 3.9125 24.4001 4.39006C24.7316 4.43807 25.0671 4.46143 25.3954 4.52437C26.5367 4.74304 27.3459 5.6975 27.3569 6.85766C27.3699 8.18716 27.3601 9.51732 27.3601 10.8468C27.3413 10.8468 27.3232 10.8468 27.305 10.8468ZM25.2287 10.9214C25.2468 10.9214 25.265 10.9214 25.2825 10.9214C25.2825 9.62373 25.2786 8.32602 25.2851 7.02895C25.2864 6.72724 25.1728 6.58319 24.8627 6.53582C23.9024 6.38983 22.9375 6.25746 21.9896 6.04983C19.2352 5.4464 16.6534 4.39785 14.2448 2.93013C14.0015 2.78219 13.7991 2.73937 13.5311 2.90223C10.2628 4.89422 6.72004 6.09006 2.92164 6.53972C2.50767 6.58903 2.44538 6.65976 2.44538 7.06983C2.44408 8.49731 2.43824 9.9248 2.44733 11.3516C2.45511 12.6266 2.39672 13.9101 2.51416 15.176C2.90477 19.3708 4.89806 22.6404 8.44665 24.9062C9.89165 25.8289 11.4262 26.6127 12.9322 27.4374C14.0871 28.07 13.6394 28.0804 14.8035 27.4355C16.4373 26.5297 18.1211 25.6926 19.6634 24.6486C22.9998 22.3906 24.8633 19.1859 25.2092 15.1676C25.3299 13.7615 25.2287 12.3372 25.2287 10.9214Z" fill="#F6931E" stroke="white" stroke-width="0.2" mask="url(#path-3-inside-2_0_1)"/>
<mask id="path-4-inside-3_0_1" fill="white">
<path d="M13.113 15.9239C14.3951 14.5574 15.6519 13.2169 16.9094 11.8763C17.1462 11.6239 17.3766 11.3657 17.6219 11.1211C18.0378 10.7064 18.6698 10.6935 19.0811 11.0795C19.4925 11.4656 19.5308 12.106 19.1292 12.5375C17.4058 14.39 15.6746 16.236 13.9383 18.0761C13.5191 18.5206 12.9436 18.5517 12.4836 18.1514C11.4318 17.2352 10.3897 16.308 9.35673 15.3711C8.92135 14.9759 8.91097 14.3342 9.29509 13.915C9.68051 13.4939 10.3015 13.4543 10.7531 13.8449C11.4558 14.4536 12.1462 15.0771 12.8417 15.6935C12.9215 15.7662 13.0052 15.833 13.113 15.9239Z"/>
</mask>
<path d="M13.113 15.9239C14.3951 14.5574 15.6519 13.2169 16.9094 11.8763C17.1462 11.6239 17.3766 11.3657 17.6219 11.1211C18.0378 10.7064 18.6698 10.6935 19.0811 11.0795C19.4925 11.4656 19.5308 12.106 19.1292 12.5375C17.4058 14.39 15.6746 16.236 13.9383 18.0761C13.5191 18.5206 12.9436 18.5517 12.4836 18.1514C11.4318 17.2352 10.3897 16.308 9.35673 15.3711C8.92135 14.9759 8.91097 14.3342 9.29509 13.915C9.68051 13.4939 10.3015 13.4543 10.7531 13.8449C11.4558 14.4536 12.1462 15.0771 12.8417 15.6935C12.9215 15.7662 13.0052 15.833 13.113 15.9239Z" fill="#F6931E" stroke="white" stroke-width="0.2" mask="url(#path-4-inside-3_0_1)"/>
</svg>
