<svg width="21" height="22" viewBox="0 0 21 22" fill="none" xmlns="http://www.w3.org/2000/svg">
<rect width="21" height="22" fill="#E0E2E9"/>
<g clip-path="url(#clip0_15_7)">
<rect width="1728" height="2304" transform="translate(-588 -413)" fill="white"/>
<g filter="url(#filter0_d_15_7)">
<rect x="-14" y="-88.8887" width="514.894" height="440.646" rx="8.07044" fill="white" shape-rendering="crispEdges"/>
<path d="M1.07001e-07 10.8491C0.000819713 5.06433 4.70782 0.358556 10.493 0.359375C16.277 0.360195 20.984 5.0676 20.9832 10.852C20.9827 16.6351 16.2729 21.3433 10.4901 21.3425C4.707 21.3417 -0.000819499 16.6322 1.07001e-07 10.8491ZM10.4893 20.0295C15.543 20.0316 19.6632 15.9155 19.6701 10.8581C19.6771 5.80607 15.5631 1.68304 10.5041 1.67197C5.4471 1.66132 1.30973 5.79418 1.31301 10.8536C1.31588 15.9085 5.43522 20.0275 10.4893 20.0295Z" fill="#00731F"/>
<path d="M8.95589 13.0374C9.04072 12.9329 9.08744 12.8644 9.14522 12.8066C10.9352 11.0146 12.7265 9.22331 14.5182 7.43247C14.5759 7.37469 14.6325 7.31404 14.696 7.26323C14.9497 7.06078 15.3025 7.07349 15.5406 7.28986C15.7783 7.50583 15.8234 7.88408 15.6381 8.14799C15.5877 8.22012 15.5234 8.28323 15.4607 8.34552C13.4818 10.3253 11.5024 12.305 9.52265 14.2844C9.12555 14.6811 8.78828 14.6831 8.3961 14.2909C7.41585 13.3111 6.43683 12.33 5.45494 11.3518C5.25127 11.149 5.18242 10.9125 5.2652 10.6412C5.33938 10.3986 5.51764 10.2544 5.76434 10.2077C6.0217 10.1585 6.2266 10.263 6.4065 10.4441C7.1962 11.2379 7.98957 12.028 8.78049 12.821C8.83254 12.8734 8.87475 12.9365 8.95589 13.0374Z" fill="#00731F"/>
</g>
</g>
<defs>
<filter id="filter0_d_15_7" x="-28.5268" y="-103.415" width="543.948" height="469.7" filterUnits="userSpaceOnUse" color-interpolation-filters="sRGB">
<feFlood flood-opacity="0" result="BackgroundImageFix"/>
<feColorMatrix in="SourceAlpha" type="matrix" values="0 0 0 0 0 0 0 0 0 0 0 0 0 0 0 0 0 0 127 0" result="hardAlpha"/>
<feOffset/>
<feGaussianBlur stdDeviation="7.2634"/>
<feComposite in2="hardAlpha" operator="out"/>
<feColorMatrix type="matrix" values="0 0 0 0 0 0 0 0 0 0 0 0 0 0 0 0 0 0 0.23 0"/>
<feBlend mode="normal" in2="BackgroundImageFix" result="effect1_dropShadow_15_7"/>
<feBlend mode="normal" in="SourceGraphic" in2="effect1_dropShadow_15_7" result="shape"/>
</filter>
<clipPath id="clip0_15_7">
<rect width="1728" height="2304" fill="white" transform="translate(-588 -413)"/>
</clipPath>
</defs>
</svg>
