<svg width="108" height="119" viewBox="0 0 108 119" fill="none" xmlns="http://www.w3.org/2000/svg">
<path d="M107.771 92.7333C107.74 93.9527 106.77 94.6406 106.082 95.4222C97.6089 104.709 87.4783 111.462 75.4404 115.277C70.3126 116.903 65.0597 117.966 59.6505 118.404C53.4908 118.904 47.425 118.529 41.3904 117.466C32.104 115.84 23.5993 112.369 15.6887 107.21C10.0606 103.552 5.12038 99.1743 0.774226 94.0778C0.430286 93.6713 0.117613 93.2648 0.180147 92.702C1.93111 86.386 4.49503 80.4766 8.27837 75.0986C14.4068 66.3751 22.2861 59.8402 32.0728 55.6192C33.855 54.8375 35.7623 54.306 37.8885 53.4305C30.697 48.3339 26.5072 41.6115 25.2565 33.2006C23.9745 24.6334 26.4446 17.0043 32.0102 10.4694C42.3597 -1.72475 60.1195 -2.75657 71.9072 6.56104C78.192 11.5012 81.944 18.1299 82.757 26.0717C83.9139 37.4842 79.2863 46.4892 70.0625 53.5243C71.4382 53.962 72.4388 54.2434 73.4081 54.6186C79.5365 57.0262 85.1958 60.2467 90.1986 64.6241C94.3571 68.2511 97.9216 72.3471 100.892 76.9434C104.081 81.7898 106.239 87.1052 107.771 92.7333Z" fill="#7C7C7C" fill-opacity="0.6"/>
</svg>
