<svg width="31" height="31" viewBox="0 0 31 31" fill="none" xmlns="http://www.w3.org/2000/svg">
<path d="M13.7567 0.740234C21.1542 0.740234 27.158 6.744 27.158 14.1415C27.158 21.539 21.1542 27.5427 13.7567 27.5427C6.35923 27.5427 0.355469 21.539 0.355469 14.1415C0.355469 6.744 6.35923 0.740234 13.7567 0.740234ZM13.7567 24.5647C19.5155 24.5647 24.1799 19.9003 24.1799 14.1415C24.1799 8.38267 19.5155 3.71829 13.7567 3.71829C7.99791 3.71829 3.33353 8.38267 3.33353 14.1415C3.33353 19.9003 7.99791 24.5647 13.7567 24.5647ZM26.3916 24.6706L30.6031 28.8821L28.4974 30.9879L24.2858 26.7763L26.3916 24.6706Z" fill="#F6931E"/>
</svg>
