<svg width="23" height="23" viewBox="0 0 23 23" fill="none" xmlns="http://www.w3.org/2000/svg">
<path d="M16.6686 14.6676H15.6153L15.2419 14.3076C16.0752 13.3396 16.6842 12.1993 17.0253 10.9684C17.3665 9.73755 17.4313 8.44648 17.2153 7.18761C16.5886 3.48094 13.4953 0.520943 9.76192 0.0676096C8.44941 -0.098436 7.1163 0.0379718 5.86462 0.466395C4.61294 0.894818 3.47585 1.6039 2.54036 2.53938C1.60488 3.47487 0.895795 4.61196 0.467371 5.86364C0.0389484 7.11533 -0.0974594 8.44843 0.0685862 9.76094C0.52192 13.4943 3.48192 16.5876 7.18859 17.2143C8.44746 17.4303 9.73853 17.3655 10.9694 17.0243C12.2003 16.6832 13.3405 16.0742 14.3086 15.2409L14.6686 15.6143V16.6676L20.3353 22.3343C20.8819 22.8809 21.7753 22.8809 22.3219 22.3343C22.8686 21.7876 22.8686 20.8943 22.3219 20.3476L16.6686 14.6676ZM8.66859 14.6676C5.34859 14.6676 2.66859 11.9876 2.66859 8.66761C2.66859 5.34761 5.34859 2.66761 8.66859 2.66761C11.9886 2.66761 14.6686 5.34761 14.6686 8.66761C14.6686 11.9876 11.9886 14.6676 8.66859 14.6676Z" fill="#7C7C7C"/>
</svg>
