<svg width="31" height="32" viewBox="0 0 31 32" fill="none" xmlns="http://www.w3.org/2000/svg">
<path d="M13.4013 0.875977C20.7987 0.875977 26.8025 6.87974 26.8025 14.2772C26.8025 21.6747 20.7987 27.6785 13.4013 27.6785C6.00376 27.6785 0 21.6747 0 14.2772C0 6.87974 6.00376 0.875977 13.4013 0.875977ZM13.4013 24.7004C19.1601 24.7004 23.8245 20.036 23.8245 14.2772C23.8245 8.51841 19.1601 3.85403 13.4013 3.85403C7.64244 3.85403 2.97806 8.51841 2.97806 14.2772C2.97806 20.036 7.64244 24.7004 13.4013 24.7004ZM26.0361 24.8063L30.2477 29.0179L28.1419 31.1236L23.9303 26.9121L26.0361 24.8063Z" fill="#262465"/>
</svg>
