<svg width="33" height="29" viewBox="0 0 33 29" fill="none" xmlns="http://www.w3.org/2000/svg">
<rect width="33" height="29" fill="#E0E2E9"/>
<g clip-path="url(#clip0_15_7)">
<rect width="1728" height="1982" transform="translate(-1591 -1317)" fill="white"/>
<mask id="path-1-inside-1_15_7" fill="white">
<path d="M-965.433 -1038H75.2888V73.2836H-965.433V-1038Z"/>
</mask>
<path d="M-965.433 -1038H75.2888V73.2836H-965.433V-1038Z" fill="white"/>
<path d="M-965.433 -1036.58H75.2888V-1039.42H-965.433V-1036.58Z" fill="black" mask="url(#path-1-inside-1_15_7)"/>
<mask id="path-3-inside-2_15_7" fill="white">
<path d="M-965.433 -45.582H75.2888V73.2829H-965.433V-45.582Z"/>
</mask>
<path d="M-965.433 -44.0057H75.2888V-47.1583H-965.433V-44.0057ZM75.2888 71.8612H-965.433V74.7047H75.2888V71.8612Z" fill="#EDEDED" mask="url(#path-3-inside-2_15_7)"/>
<rect x="-18.3555" y="-20.3613" width="70" height="70" rx="35" fill="#262465"/>
<path d="M32.3945 14.6537C32.3902 16.0009 31.6587 17.0545 30.3303 17.6228C26.6344 19.2047 22.9379 20.786 19.242 22.3672C14.6005 24.3532 9.95894 26.3385 5.31679 28.3232C3.79339 28.9746 2.34999 28.6061 1.45786 27.3216C0.906581 26.5281 0.770608 25.6433 1.00318 24.6982C1.80979 21.426 2.61886 18.1537 3.42055 14.8801C3.45623 14.7355 3.45869 14.5655 3.42301 14.4209C2.63239 11.1981 1.83624 7.97786 1.03763 4.75759C0.594643 2.97208 1.37418 1.37115 2.97325 0.801562C3.77125 0.517402 4.54032 0.627768 5.30633 0.956961C9.70915 2.84713 14.1157 4.72905 18.5209 6.61351C22.4629 8.30007 26.4055 9.98473 30.3475 11.6719C31.6673 12.2371 32.3994 13.3065 32.3945 14.6537ZM5.15805 13.6915C5.31125 13.6915 5.43369 13.6915 5.55551 13.6915C8.39556 13.6915 11.2356 13.6915 14.0751 13.6915C14.1876 13.6915 14.3015 13.6864 14.4128 13.6985C14.9038 13.7511 15.2508 14.1602 15.2416 14.6677C15.2311 15.2265 14.8281 15.595 14.2129 15.5956C11.3218 15.5975 8.43063 15.5962 5.53951 15.5962C5.41769 15.5962 5.29587 15.5962 5.16543 15.5962C5.13467 15.7041 5.10637 15.7922 5.08422 15.8823C4.60739 17.815 4.13179 19.7483 3.65435 21.6803C3.37871 22.7947 3.09938 23.9079 2.82374 25.023C2.6447 25.748 2.84281 26.2966 3.38794 26.603C3.8217 26.8465 4.23638 26.7254 4.65599 26.5459C12.1044 23.3574 19.554 20.1713 27.003 16.9847C27.9295 16.5883 28.8592 16.1995 29.7796 15.7884C30.4626 15.4833 30.7185 14.7951 30.43 14.1139C30.2737 13.7454 29.9654 13.5716 29.6258 13.4264C26.288 11.9999 22.9521 10.5702 19.6155 9.1424C14.6245 7.00677 9.63408 4.86923 4.63815 2.74501C4.35574 2.62513 4.0155 2.53633 3.72264 2.5801C2.96956 2.69363 2.61209 3.39896 2.82005 4.24953C3.05754 5.22126 3.3018 6.19171 3.54237 7.1628C4.07888 9.33015 4.61539 11.4975 5.15805 13.6915Z" fill="white"/>
</g>
<defs>
<clipPath id="clip0_15_7">
<rect width="1728" height="1982" fill="white" transform="translate(-1591 -1317)"/>
</clipPath>
</defs>
</svg>
