<svg width="71" height="71" viewBox="0 0 71 71" fill="none" xmlns="http://www.w3.org/2000/svg">
<rect width="71" height="71" fill="#E0E2E9"/>
<g clip-path="url(#clip0_15_7)">
<rect width="1728" height="1982" transform="translate(-1572 -1296)" fill="white"/>
<mask id="path-1-inside-1_15_7" fill="white">
<path d="M-946.433 -1017H94.2888V94.2836H-946.433V-1017Z"/>
</mask>
<path d="M-946.433 -1017H94.2888V94.2836H-946.433V-1017Z" fill="white"/>
<path d="M-946.433 -1015.58H94.2888V-1018.42H-946.433V-1015.58Z" fill="black" mask="url(#path-1-inside-1_15_7)"/>
<mask id="path-3-inside-2_15_7" fill="white">
<path d="M-946.433 -24.582H94.2888V94.2829H-946.433V-24.582Z"/>
</mask>
<path d="M-946.433 -23.0057H94.2888V-26.1583H-946.433V-23.0057ZM94.2888 92.8612H-946.433V95.7047H94.2888V92.8612Z" fill="#EDEDED" mask="url(#path-3-inside-2_15_7)"/>
<rect x="0.644531" y="0.638672" width="70" height="70" rx="35" fill="#262465"/>
<path d="M51.3945 35.6537C51.3902 37.0009 50.6587 38.0545 49.3303 38.6228C45.6344 40.2047 41.9379 41.786 38.242 43.3672C33.6005 45.3532 28.9589 47.3385 24.3168 49.3232C22.7934 49.9746 21.35 49.6061 20.4579 48.3216C19.9066 47.5281 19.7706 46.6433 20.0032 45.6982C20.8098 42.426 21.6189 39.1537 22.4205 35.8801C22.4562 35.7355 22.4587 35.5655 22.423 35.4209C21.6324 32.1981 20.8362 28.9779 20.0376 25.7576C19.5946 23.9721 20.3742 22.3711 21.9732 21.8016C22.7712 21.5174 23.5403 21.6278 24.3063 21.957C28.7091 23.8471 33.1157 25.7291 37.5209 27.6135C41.4629 29.3001 45.4055 30.9847 49.3475 32.6719C50.6673 33.2371 51.3994 34.3065 51.3945 35.6537ZM24.158 34.6915C24.3112 34.6915 24.4337 34.6915 24.5555 34.6915C27.3956 34.6915 30.2356 34.6915 33.0751 34.6915C33.1876 34.6915 33.3015 34.6864 33.4128 34.6985C33.9038 34.7511 34.2508 35.1602 34.2416 35.6677C34.2311 36.2265 33.8281 36.595 33.2129 36.5956C30.3218 36.5975 27.4306 36.5962 24.5395 36.5962C24.4177 36.5962 24.2959 36.5962 24.1654 36.5962C24.1347 36.7041 24.1064 36.7922 24.0842 36.8823C23.6074 38.815 23.1318 40.7483 22.6543 42.6803C22.3787 43.7947 22.0994 44.9079 21.8237 46.023C21.6447 46.748 21.8428 47.2966 22.3879 47.603C22.8217 47.8465 23.2364 47.7254 23.656 47.5459C31.1044 44.3574 38.554 41.1713 46.003 37.9847C46.9295 37.5883 47.8592 37.1995 48.7796 36.7884C49.4626 36.4833 49.7185 35.7951 49.43 35.1139C49.2737 34.7454 48.9654 34.5716 48.6258 34.4264C45.288 32.9999 41.9521 31.5702 38.6155 30.1424C33.6245 28.0068 28.6341 25.8692 23.6382 23.745C23.3557 23.6251 23.0155 23.5363 22.7226 23.5801C21.9696 23.6936 21.6121 24.399 21.82 25.2495C22.0575 26.2213 22.3018 27.1917 22.5424 28.1628C23.0789 30.3302 23.6154 32.4975 24.158 34.6915Z" fill="white"/>
</g>
<defs>
<clipPath id="clip0_15_7">
<rect width="1728" height="1982" fill="white" transform="translate(-1572 -1296)"/>
</clipPath>
</defs>
</svg>
