<svg width="66" height="66" viewBox="0 0 66 66" fill="none" xmlns="http://www.w3.org/2000/svg">
<rect x="0.399963" y="0.317627" width="64.8" height="64.7925" rx="32.3962" fill="white"/>
<path d="M26.1213 47.3397C39.7062 47.3397 47.1365 36.0846 47.1365 26.3243C47.1365 26.0046 47.1365 25.6863 47.115 25.3681C48.5604 24.323 49.8082 23.0289 50.8 21.5465C49.4519 22.1438 48.022 22.5355 46.5577 22.7086C48.0996 21.7855 49.2535 20.3338 49.8049 18.6234C48.355 19.4837 46.7688 20.09 45.1148 20.4161C44.0012 19.232 42.5283 18.4479 40.9242 18.1852C39.3201 17.9225 37.6741 18.1958 36.2409 18.9628C34.8078 19.7298 33.6673 20.9478 32.9961 22.4282C32.3249 23.9087 32.1603 25.5691 32.5278 27.1525C29.5913 27.0053 26.7186 26.2421 24.0961 24.9126C21.4737 23.5831 19.1601 21.717 17.3056 19.4354C16.3611 21.0614 16.0718 22.9862 16.4966 24.818C16.9214 26.6498 18.0284 28.2508 19.5922 29.2951C18.4168 29.2602 17.2671 28.9431 16.24 28.3706V28.4641C16.2404 30.1694 16.8307 31.822 17.9108 33.1417C18.9908 34.4614 20.4941 35.3668 22.1656 35.7045C21.0782 36.001 19.9373 36.0444 18.8306 35.8312C19.3025 37.2988 20.2214 38.5822 21.4586 39.5019C22.6959 40.4216 24.1897 40.9316 25.731 40.9605C23.1156 43.016 19.8847 44.1319 16.5582 44.1285C15.9705 44.1274 15.3834 44.0918 14.8 44.0219C18.1777 46.1895 22.1078 47.3393 26.1213 47.3339" fill="#262465"/>
</svg>
