<svg width="66" height="65" viewBox="0 0 66 65" fill="none" xmlns="http://www.w3.org/2000/svg">
<rect x="0.599976" y="0.317627" width="64.8" height="64.3545" rx="32.1773" fill="#F6931E"/>
<path d="M43.5232 19.7576H22.4767C18.3474 19.7576 15 23.105 15 27.2343V37.7553C15 41.8846 18.3474 45.2321 22.4767 45.2321H43.5232C47.6525 45.2321 51 41.8846 51 37.7553V27.2343C51 23.105 47.6525 19.7576 43.5232 19.7576ZM38.4668 33.0067L28.6226 37.7018C28.3603 37.8269 28.0573 37.6356 28.0573 37.3451V27.6615C28.0573 27.3667 28.3683 27.1757 28.6311 27.309L38.4753 32.2975C38.768 32.4458 38.7629 32.8655 38.4668 33.0067Z" fill="white"/>
</svg>
