<svg width="42" height="43" viewBox="0 0 42 43" fill="none" xmlns="http://www.w3.org/2000/svg">
<g clip-path="url(#clip0_390_98)">
<path d="M40.7695 24.0605C40.9336 25.0449 41.0156 26.0293 40.8516 27.0137C40.6875 28.0801 40.4414 28.9824 39.9492 29.7207C40.1133 30.7051 40.0312 31.6895 39.7852 32.6738C39.457 33.6582 39.0469 34.5605 38.4727 35.2168C38.4727 37.5137 37.8984 39.3184 36.5859 40.6309C35.2734 41.9434 33.3867 42.5996 31.0078 42.5996H27.6445C26.0039 42.5996 24.1992 42.3535 22.2305 41.8613C21.082 41.6152 19.4414 41.123 17.4727 40.3848L15.0117 39.5645C14.1914 39.4004 13.6172 39.2363 13.125 39.2363V39.9746C13.125 40.7129 12.7969 41.3691 12.3047 41.8613C11.8125 42.3535 11.1562 42.5996 10.5 42.5996H2.625C1.88672 42.5996 1.23047 42.3535 0.738281 41.8613C0.246094 41.3691 0 40.7129 0 39.9746V18.9746C0 18.3184 0.246094 17.6621 0.738281 17.1699C1.23047 16.6777 1.88672 16.3496 2.625 16.3496H10.5C11.4023 16.3496 12.1406 16.7598 12.6328 17.498C12.8789 17.498 13.125 17.416 13.2891 17.334C13.7812 17.0879 14.3555 16.5137 15.1758 15.6113C15.668 15.1191 16.4062 14.2168 17.3906 12.9043C18.5391 11.2637 19.4414 10.1973 20.0156 9.70508C20.3438 9.37695 20.5898 8.88477 20.8359 8.14648C21 7.73633 21.1641 7.08008 21.3281 6.0957C21.9844 2.48633 23.2969 0.599609 25.1836 0.599609C27.4805 0.599609 29.2031 1.25586 30.3516 2.56836C31.418 3.88086 31.9922 5.76758 31.9922 8.22852C31.9922 9.29492 31.8281 10.3613 31.5 11.3457C31.2539 12.002 30.9258 12.7402 30.4336 13.7246L30.2695 13.9707H36.0117C37.6523 13.9707 39.0469 14.627 40.1953 15.7754C41.3438 17.0059 42 18.4004 42 20.041C42 21.6816 41.5898 22.9941 40.7695 24.0605ZM2.625 39.9746H10.5V18.9746H2.625V39.9746ZM37.4062 23.2402C38.0625 23.0762 38.5547 22.748 38.8828 22.0918C39.2109 21.5176 39.375 20.7793 39.375 19.959C39.375 19.1387 39.0469 18.3184 38.3906 17.6621C37.7344 17.0059 36.9141 16.5957 36.0117 16.5957H26.8242C26.8242 15.8574 26.9062 15.1191 27.2344 14.3809C27.3984 13.9707 27.6445 13.3145 28.0547 12.4941C28.4648 11.6738 28.793 11.0176 28.957 10.5254C29.2031 9.78711 29.3672 9.04883 29.3672 8.22852C29.3672 6.75195 29.1211 5.60352 28.793 4.94727C28.1367 3.79883 26.9883 3.22461 25.1836 3.22461C24.8555 3.55273 24.5273 4.04492 24.3633 4.70117C24.1992 5.11133 24.0352 5.76758 23.8711 6.58789C23.625 7.81836 23.4609 8.7207 23.2969 9.21289C22.8867 10.1973 22.3945 11.0176 21.8203 11.5918C21.2461 12.166 20.3438 13.2324 19.1953 14.791C17.8828 16.5137 16.8984 17.6621 16.2422 18.3184C15.0938 19.4668 14.0273 19.959 13.125 19.959V36.6113C13.7812 36.6113 14.6016 36.7754 15.5859 37.0215C16.1602 37.1855 17.1445 37.5137 18.5391 38.0059C20.3438 38.6621 21.8203 39.0723 22.8047 39.3184C24.5273 39.8105 26.168 39.9746 27.6445 39.9746H31.0078C32.6484 39.9746 33.9609 39.5645 34.7812 38.6621C35.6836 37.6777 36.0117 36.2012 35.6836 34.1504C36.4219 33.8223 36.9141 33.084 37.2422 32.0176C37.5703 30.9512 37.4062 29.9668 36.9141 29.0645C37.4883 28.8184 37.8984 28.2441 38.1445 27.4238C38.3086 26.6035 38.3906 25.7832 38.2266 24.9629C38.0625 24.1426 37.8164 23.5684 37.4062 23.2402ZM8.53125 36.0371C8.53125 35.5449 8.28516 35.0527 7.95703 34.6426C7.54688 34.3145 7.05469 34.0684 6.5625 34.0684C5.98828 34.0684 5.49609 34.3145 5.16797 34.6426C4.75781 35.0527 4.59375 35.5449 4.59375 36.0371C4.59375 36.6113 4.75781 37.1035 5.16797 37.4316C5.49609 37.8418 5.98828 38.0059 6.5625 38.0059C7.05469 38.0059 7.54688 37.8418 7.95703 37.4316C8.28516 37.1035 8.53125 36.6113 8.53125 36.0371Z" fill="#606770"/>
</g>
<defs>
<clipPath id="clip0_390_98">
<rect width="42" height="42" fill="white" transform="translate(0 0.599609)"/>
</clipPath>
</defs>
</svg>
