<svg width="24" height="23" viewBox="0 0 24 23" fill="none" xmlns="http://www.w3.org/2000/svg">
<path d="M12 1.5C6.477 1.5 2 5.977 2 11.5C2 17.023 6.477 21.5 12 21.5C17.523 21.5 22 17.023 22 11.5C22 5.977 17.523 1.5 12 1.5Z" stroke="#5D5D5D" stroke-width="2.5" stroke-linecap="round" stroke-linejoin="round"/>
<path d="M4.27148 17.846C4.27148 17.846 6.50048 15 12.0005 15C17.5005 15 19.7305 17.846 19.7305 17.846M12.0005 11.5C12.7961 11.5 13.5592 11.1839 14.1218 10.6213C14.6844 10.0587 15.0005 9.29565 15.0005 8.5C15.0005 7.70435 14.6844 6.94129 14.1218 6.37868C13.5592 5.81607 12.7961 5.5 12.0005 5.5C11.2048 5.5 10.4418 5.81607 9.87916 6.37868C9.31655 6.94129 9.00048 7.70435 9.00048 8.5C9.00048 9.29565 9.31655 10.0587 9.87916 10.6213C10.4418 11.1839 11.2048 11.5 12.0005 11.5Z" stroke="#5D5D5D" stroke-width="2.5" stroke-linecap="round" stroke-linejoin="round"/>
</svg>
